<svg width="161" height="27" viewBox="0 0 161 27" fill="none" xmlns="http://www.w3.org/2000/svg">
<path d="M27.1354 0.44025C27.2155 0.44025 27.2555 0.520296 27.2555 0.680386C27.2555 0.840477 27.2155 0.920522 27.1354 0.920522C24.9474 0.920522 23.8536 2.30797 23.8536 5.08288V25.9747C23.8536 26.0281 23.7868 26.0681 23.6535 26.0948C23.5466 26.1214 23.4666 26.1082 23.4133 26.0548L4.64263 3.80215V20.8518C4.64263 22.266 4.89611 23.3066 5.40306 23.9736C5.9367 24.6406 6.73713 24.9741 7.80448 24.9741C7.88452 24.9741 7.92454 25.0542 7.92454 25.2143C7.92454 25.3744 7.88452 25.4544 7.80448 25.4544C7.11071 25.4544 6.57704 25.441 6.20357 25.4144L4.16236 25.3744L2.00113 25.4144C1.60091 25.441 1.01391 25.4544 0.240136 25.4544C0.186769 25.4544 0.160091 25.3744 0.160091 25.2143C0.160091 25.0542 0.186769 24.9741 0.240136 24.9741C1.38745 24.9741 2.22792 24.6406 2.76156 23.9736C3.32188 23.3066 3.60204 22.266 3.60204 20.8518V2.68152C2.42804 1.50752 1.26738 0.920522 0.120068 0.920522C0.0400227 0.920522 0 0.840477 0 0.680386C0 0.520296 0.0400227 0.44025 0.120068 0.44025L1.68095 0.480273C2.00113 0.506951 2.45473 0.520296 3.04172 0.520296L5.1229 0.480273C5.36304 0.453595 5.66987 0.44025 6.04342 0.44025C6.25686 0.44025 6.40368 0.493618 6.48373 0.600341C6.59042 0.680386 6.75051 0.8805 6.964 1.20068C7.20414 1.57423 7.53758 2.01448 7.96457 2.52143L22.853 20.4916V5.08288C22.853 3.66874 22.5995 2.62815 22.0926 1.96111C21.5855 1.26738 20.7985 0.920522 19.7312 0.920522C19.6778 0.920522 19.6512 0.840477 19.6512 0.680386C19.6512 0.520296 19.6778 0.44025 19.7312 0.44025L21.332 0.480273C22.1326 0.53364 22.813 0.560318 23.3733 0.560318C23.8536 0.560318 24.5472 0.53364 25.4545 0.480273L27.1354 0.44025ZM47.5807 19.6511C46.4333 19.6511 45.4461 19.2509 44.619 18.4504C43.8186 17.65 43.4184 16.6761 43.4184 15.5288C43.4184 14.4082 43.8186 13.4476 44.619 12.6472C45.4461 11.8201 46.4333 11.4065 47.5807 11.4065C48.728 11.4065 49.7019 11.8201 50.5024 12.6472C51.3028 13.4476 51.7031 14.4082 51.7031 15.5288C51.7031 16.6761 51.3028 17.65 50.5024 18.4504C49.7019 19.2509 48.728 19.6511 47.5807 19.6511ZM94.8434 24.9741C94.8968 24.9741 94.9234 25.0542 94.9234 25.2143C94.9234 25.3744 94.8968 25.4544 94.8434 25.4544H89.0401C88.3997 25.4544 87.1858 24.3204 85.398 22.0525C83.637 19.7578 81.5292 16.6228 79.0744 12.6472C78.4608 12.7806 77.8738 12.8473 77.3134 12.8473C76.8065 12.8473 76.1528 12.8206 75.3523 12.7672V22.2126C75.3523 23.013 75.4324 23.6134 75.5925 24.0136C75.7526 24.3872 76.0461 24.6406 76.473 24.774C76.9266 24.9075 77.6336 24.9741 78.5942 24.9741C78.6742 24.9741 78.7142 25.0542 78.7142 25.2143C78.7142 25.3744 78.6742 25.4544 78.5942 25.4544C77.7671 25.4544 77.1133 25.441 76.633 25.4144L73.7514 25.3744L70.9498 25.4144C70.4429 25.441 69.7625 25.4544 68.9087 25.4544C68.8286 25.4544 68.7886 25.3744 68.7886 25.2143C68.7886 25.0542 68.8286 24.9741 68.9087 24.9741C69.8692 24.9741 70.5764 24.9075 71.0299 24.774C71.4835 24.6406 71.7903 24.3872 71.9504 24.0136C72.1105 23.6134 72.1905 23.013 72.1905 22.2126V3.68209C72.1905 2.88163 72.1105 2.29464 71.9504 1.92109C71.7903 1.54754 71.4835 1.29406 71.0299 1.16066C70.603 1.00057 69.9092 0.920522 68.9487 0.920522C68.8954 0.920522 68.8687 0.840477 68.8687 0.680386C68.8687 0.520296 68.8954 0.44025 68.9487 0.44025L70.9498 0.480273C72.1239 0.53364 73.0578 0.560318 73.7514 0.560318C74.2317 0.560318 74.6853 0.546974 75.1122 0.520296C75.5392 0.493618 75.9126 0.466928 76.2328 0.44025C77.1133 0.360205 77.9405 0.320182 78.7142 0.320182C80.9823 0.320182 82.7299 0.773776 83.9572 1.68095C85.1846 2.56145 85.7982 3.78881 85.7982 5.36304C85.7982 6.61708 85.4248 7.80442 84.6776 8.92505C83.9306 10.0457 82.9566 10.9528 81.756 11.6466C83.9972 15.0351 85.865 17.69 87.3591 19.6111C88.88 21.5055 90.2275 22.8796 91.4014 23.7334C92.5755 24.5605 93.7227 24.9741 94.8434 24.9741ZM75.3523 11.7266C76.3663 11.8333 77.1533 11.8867 77.7137 11.8867C79.4214 11.8867 80.6353 11.5131 81.3557 10.7661C82.1029 9.99232 82.4764 8.67157 82.4764 6.80385C82.4764 4.696 82.0761 3.20181 81.2757 2.32132C80.4752 1.44082 79.368 1.00057 77.9538 1.00057C77.2601 1.00057 76.7265 1.06727 76.3529 1.20068C76.0061 1.33409 75.7526 1.60091 75.5925 2.00113C75.4324 2.37468 75.3523 2.96168 75.3523 3.76213V11.7266ZM114.056 19.6511C112.909 19.6511 111.921 19.2509 111.094 18.4504C110.294 17.65 109.893 16.6761 109.893 15.5288C109.893 14.4082 110.294 13.4476 111.094 12.6472C111.921 11.8201 112.909 11.4065 114.056 11.4065C115.203 11.4065 116.177 11.8201 116.977 12.6472C117.778 13.4476 118.178 14.4082 118.178 15.5288C118.178 16.6761 117.778 17.65 116.977 18.4504C116.177 19.2509 115.203 19.6511 114.056 19.6511ZM149.913 25.9347C147.004 25.9347 144.47 25.3744 142.308 24.2537C140.147 23.1331 138.492 21.6122 137.345 19.6911C136.197 17.7701 135.625 15.6222 135.625 13.2475C135.625 10.6594 136.277 8.36474 137.586 6.3636C138.919 4.36247 140.734 2.80159 143.029 1.68095C145.35 0.560318 147.952 0 150.833 0C152.114 0 153.355 0.120068 154.555 0.360205C155.782 0.600341 156.783 0.920522 157.557 1.32075C157.77 1.45415 157.903 1.57423 157.957 1.68095C158.01 1.78768 158.05 1.97446 158.077 2.24127L158.598 7.08401C158.598 7.16406 158.517 7.21742 158.357 7.2441C158.224 7.2441 158.144 7.20408 158.117 7.12403C157.423 5.14958 156.289 3.62872 154.715 2.56145C153.141 1.49418 151.246 0.960545 149.032 0.960545C145.883 0.960545 143.455 1.92109 141.748 3.84218C140.04 5.76326 139.187 8.40476 139.187 11.7667C139.187 14.3815 139.693 16.7161 140.707 18.7706C141.721 20.7984 143.109 22.386 144.87 23.5333C146.657 24.6806 148.672 25.2543 150.913 25.2543C152.194 25.2543 153.181 25.1342 153.875 24.8941C154.568 24.654 155.076 24.1871 155.396 23.4933C155.716 22.7995 155.876 21.7723 155.876 20.4116C155.876 19.0241 155.782 18.0636 155.596 17.5299C155.436 16.9696 155.062 16.596 154.475 16.4093C153.915 16.2226 152.927 16.1291 151.514 16.1291C151.353 16.1291 151.273 16.0224 151.273 15.809C151.273 15.7289 151.286 15.6622 151.313 15.6088C151.366 15.5288 151.42 15.4888 151.473 15.4888C153.607 15.6222 155.342 15.6889 156.676 15.6889C157.93 15.6889 159.264 15.6489 160.679 15.5688C160.731 15.5688 160.771 15.6088 160.799 15.6889C160.851 15.7423 160.879 15.7956 160.879 15.849C160.879 16.0357 160.811 16.1291 160.679 16.1291C160.091 16.1025 159.678 16.1958 159.438 16.4093C159.198 16.596 159.038 16.9963 158.958 17.61C158.904 18.2237 158.878 19.2909 158.878 20.8118C158.878 22.0125 158.918 22.8663 158.998 23.3732C159.104 23.8801 159.158 24.2003 159.158 24.3338C159.158 24.4939 159.118 24.6006 159.038 24.654C158.984 24.6806 158.864 24.734 158.678 24.8141C155.396 25.5611 152.474 25.9347 149.913 25.9347Z" fill="#1D1D1D"/>
</svg>
