<svg width="230" height="140" viewBox="0 0 230 140" fill="none" xmlns="http://www.w3.org/2000/svg">
<path d="M44.8593 65.6442C43.3936 66.816 41.571 67.6504 40.099 67.8478C38.9009 67.9943 38.9201 68.3254 38.9201 68.6184C38.9201 69.1088 38.5059 71.185 38.1108 72.2167C37.0465 75.2037 35.0774 76.7003 32.0951 76.7003C30.0495 76.7003 28.1824 75.624 27.2902 73.4714C26.1304 70.5863 26.5765 66.039 28.3544 62.7082C29.1127 61.288 30.7505 57.575 35.3833 57.868C37.2059 57.9826 38.7926 58.8424 39.3279 61.4854C39.4618 62.4153 39.5892 62.6445 39.5892 64.2112C39.6338 65.8225 39.4235 65.606 39.8186 65.606C41.0613 65.606 42.3039 65.4595 43.3299 64.8226C44.1774 64.2877 44.6745 64.5743 45.1205 64.5743C45.9235 64.5679 45.8789 64.8099 44.8593 65.6442ZM36.4412 67.7459C36.4412 67.6503 36.3201 67.644 36.1417 67.5994C35.4725 67.5039 34.3191 66.7715 33.7392 66.1792C33.4716 65.9372 33.3377 65.7397 33.2485 65.7397C33.0701 65.7397 33.0255 66.1792 32.8471 67.4529C32.3564 70.5354 32.5539 74.1146 33.1338 74.1146C33.1784 74.1146 33.5417 73.8026 33.8985 73.4141C34.6122 72.6307 34.7716 72.1085 35.3515 70.9366C35.7912 69.9558 36.5304 67.9433 36.4412 67.7459ZM36.8554 62.2688C36.7662 61.6319 36.1863 58.8933 35.4343 58.8933C34.7206 58.8933 34.1025 60.9504 34.2745 62.5617C34.4976 64.224 35.0775 65.3512 36.1863 66.2301C36.677 66.5677 36.7216 66.6186 36.8108 66.3257C36.9446 65.9372 36.9892 63.1986 36.8554 62.2688Z" fill="white"/>
<path d="M52.0489 73.9529C49.4234 76.4239 46.8107 77.0799 44.7715 76.4557C41.5725 75.4749 39.7372 71.227 41.4642 65.7372C42.8279 61.3045 46.0014 57.5788 49.9396 58.2858C55.1524 59.222 53.4637 65.9919 48.8882 68.8324C47.9004 69.4438 45.8548 70.329 45.8548 70.329C45.8548 70.329 45.0583 74.5833 46.6896 74.3286C49.4681 73.8828 50.5641 71.8321 53.247 67.686C53.6867 67.0046 56.172 67.3294 56.2293 67.5841C56.344 67.9662 53.7058 72.418 52.0489 73.9529ZM46.0652 66.7052C46.0652 66.7052 47.8239 66.1639 49.296 64.8583C51.2778 63.0941 50.8381 60.725 50.0926 60.4957C49.5127 60.3174 48.1999 61.1262 46.919 64.3169C46.6769 64.9029 46.0652 66.7052 46.0652 66.7052Z" fill="white"/>
<path d="M210.027 66.347C210.027 66.4425 209.651 67.3214 209.224 68.3468C205.828 72.5629 203.018 79.6959 197.665 75.0467C196.702 74.1614 195.791 72.1617 195.581 70.4421C195.581 70.0218 195.473 69.697 195.422 69.7479C195.364 69.7925 195.046 70.3084 194.619 70.9134C189.591 78.6323 184.359 76.5752 184.454 68.213C184.486 65.5955 185.353 60.3731 186.373 58.558C187.067 57.3925 191.483 58.1568 192.076 58.8064C192.662 59.4114 192.267 60.6215 191.248 64.3536C190.553 66.9075 188.775 74.9703 193.255 68.3022C194.402 66.4362 194.408 66.2642 195.3 64.5765C196.543 62.2265 196.078 62.4939 197.697 60.3922C198.703 59.0866 200.934 59.144 201.686 59.7936C202.113 60.163 202.393 61.7042 201.858 63.5193C200.902 67.5571 200.386 71.1236 200.813 71.9579C201.189 72.6521 201.297 72.7476 201.775 72.5183C202.527 72.1935 204.655 67.7354 205.828 65.5063C206.631 63.9715 208.912 65.0478 209.288 64.9523C209.562 64.8567 210.027 66.2069 210.027 66.347Z" fill="white"/>
<path d="M8.89412 49.9121C8.14216 49.9503 7.51766 50.4852 7.35197 51.2176C6.68923 54.1982 5.03872 61.7197 4.6946 64.057C4.26127 66.993 3.80248 74.107 4.08924 75.0177C4.35689 75.8711 6.82942 75.6737 8.70295 75.7119C10.6402 75.7501 10.3088 75.0877 10.4044 74.2279C10.9716 69.082 12.8069 52.6634 13.1701 52.1156C13.4569 51.6889 17.5353 51.8736 19.4662 51.9373C20.2118 51.9628 19.9441 52.3831 19.7911 53.7651C19.1666 59.2231 17.0064 74.3553 17.0956 75.3298C17.2103 76.5462 22.3911 76.215 22.8308 75.5144C23.0539 75.1641 25.7431 52.1475 25.7431 50.5171C25.7367 49.1797 13.0299 49.6892 8.89412 49.9121Z" fill="white"/>
<path d="M69.1486 61.0516C68.6133 61.007 67.7657 60.4911 67.4025 60.2427C66.0069 59.2747 65.1849 57.7907 61.9094 57.6825C56.8878 57.5105 53.504 65.3632 53.2491 67.6878C53.1153 68.8788 52.3697 74.0056 56.7094 74.1139C61.0427 74.2285 64.1207 68.6941 64.3883 68.4903C64.6559 68.2929 65.4653 68.1209 65.3824 68.7004C65.2613 69.4965 64.8471 71.7574 62.5148 74.5596C60.1824 77.3619 56.1104 79.6738 55.6388 83.7434C55.1736 87.8066 57.4422 91.424 60.5775 91.424C65.4461 91.424 67.3642 84.4885 68.4986 75.2857C68.7343 73.3814 69.652 71.0632 70.1044 69.5857C71.7677 64.1595 71.7995 64.6181 72.3603 61.6439C72.5069 60.8796 70.4358 61.1471 69.1486 61.0516ZM60.5393 88.8129C60.2589 89.0549 58.4937 90.0357 58.7167 85.9597C58.9398 81.8837 63.8721 76.6931 63.8721 76.6931C63.8721 76.6931 64.1844 85.6795 60.5393 88.8129ZM58.7295 69.4328C58.3408 66.8981 60.8388 60.4402 62.6868 59.9625C64.1844 59.574 65.5417 61.9877 66.0069 63.0895C66.0069 63.0895 59.131 72.044 58.7295 69.4328Z" fill="white"/>
<path d="M84.5958 73.9529C81.9703 76.4239 79.3576 77.0799 77.3184 76.4557C74.1194 75.4749 72.2841 71.227 74.011 65.7372C75.3748 61.3045 78.5483 57.5788 82.4865 58.2858C87.6992 59.222 86.0105 65.9919 81.4351 68.8324C80.4473 69.4438 78.4017 70.329 78.4017 70.329C78.4017 70.329 77.6052 74.5833 79.2365 74.3286C82.0149 73.8828 84.1306 69.6412 86.8135 65.4951C87.2532 64.8137 89.7385 65.1385 89.7958 65.3932C89.9105 65.7754 86.2527 72.418 84.5958 73.9529ZM78.612 66.7052C78.612 66.7052 80.3708 66.1639 81.8429 64.8583C83.8247 63.0941 83.385 60.725 82.6394 60.4957C82.0595 60.3174 80.7468 61.1262 79.4659 64.3169C79.2238 64.9029 78.612 66.7052 78.612 66.7052Z" fill="white"/>
<path d="M68.625 74.5513L73.5255 71.6727L73.5892 67.4375C73.5892 67.4375 71.4034 68.9405 70.1162 69.5838C68.8289 70.227 68.625 74.5513 68.625 74.5513Z" fill="white"/>
<path d="M92.8894 56.8945C91.4938 57.0792 88.8046 64.8237 88.4987 67.4412C88.1929 70.0524 87.7595 75.141 88.0654 75.625C88.3713 76.109 92.5645 76.6058 92.6282 75.9944C92.6919 75.383 92.5644 64.0275 93.4184 63.5817C94.2659 63.1359 93.6032 72.0521 94.0875 72.4152C94.5718 72.7782 97.9174 73.1285 98.4654 72.5807C99.0134 72.033 100.097 66.6897 100.887 66.7024C101.677 66.7151 100.702 76.0262 101.492 76.3128C102.283 76.5994 105.679 76.8096 106.042 76.3128C106.406 75.8161 106.061 59.977 105.813 58.3402C105.692 57.525 102.187 57.1748 101.505 57.4805C100.524 57.9199 98.8477 64.658 97.9811 64.5306C97.0443 64.3905 97.86 58.5823 97.4968 57.8244C97.1335 57.0665 92.8894 56.8945 92.8894 56.8945Z" fill="white"/>
<path d="M125.109 60.4792C125.077 59.9506 124.714 59.5048 124.204 59.3774C123.331 59.1482 121.668 59.0208 120.757 59.4475C119.864 59.8615 117.895 65.466 118.348 72.9874C118.469 75.0063 118.367 76.0827 119.195 76.6622C120.795 77.7767 123.516 77.4901 123.962 76.6112C124.421 75.7196 128.633 63.4853 130.309 63.8356C131.985 64.1858 129.398 68.8478 129.36 72.306C129.321 75.4713 132.909 75.7069 134.636 74.8408C135.688 74.3122 136.739 72.3696 137.924 69.6247C138.307 68.7331 139.798 64.7336 138.963 64.8036C138.128 64.8737 136.924 67.4657 135.477 69.9623C134.515 71.6245 132.686 72.8919 132.896 70.5864C133.107 68.2809 137.478 61.4027 133.922 59.4475C130.366 57.4923 125.479 65.1475 124.918 65.8417C124.414 66.4595 125.262 62.9312 125.109 60.4792Z" fill="white"/>
<path d="M154.836 65.1286C153.37 66.3005 151.548 67.1347 150.076 67.3322C148.878 67.4787 148.897 67.8098 148.897 68.1028C148.897 68.5932 148.482 70.6694 148.087 71.7011C147.023 74.6881 145.054 76.1847 142.072 76.1847C140.026 76.1847 138.159 75.1084 137.267 72.9557C136.107 70.0707 136.553 65.5235 138.331 62.1926C139.089 60.7724 140.727 57.0594 145.36 57.3523C147.182 57.467 148.769 58.3268 149.304 60.9698C149.438 61.8996 149.566 62.1289 149.566 63.6956C149.61 65.3069 149.4 65.0904 149.795 65.0904C151.038 65.0904 152.28 64.9439 153.306 64.307C154.154 63.772 154.651 64.0586 155.097 64.0586C155.9 64.0523 155.855 64.2943 154.836 65.1286ZM146.418 67.2303C146.418 67.1347 146.297 67.1284 146.118 67.0838C145.449 66.9883 144.296 66.2559 143.716 65.6636C143.448 65.4216 143.314 65.2242 143.225 65.2242C143.047 65.2242 143.002 65.6636 142.824 66.9373C142.333 70.0198 142.53 73.599 143.11 73.599C143.155 73.599 143.518 73.2869 143.875 72.8984C144.589 72.1151 144.748 71.5928 145.328 70.421C145.768 69.4402 146.507 67.4277 146.418 67.2303ZM146.832 61.7531C146.743 61.1163 146.163 58.3778 145.411 58.3778C144.697 58.3778 144.079 60.4348 144.251 62.0461C144.474 63.7083 145.054 64.8356 146.163 65.7145C146.653 66.052 146.698 66.103 146.787 65.81C146.921 65.4215 146.966 62.683 146.832 61.7531Z" fill="white"/>
<path d="M161.959 73.4529C159.334 75.9239 156.721 76.5799 154.682 75.9558C151.483 74.975 149.647 70.727 151.374 65.2372C152.738 60.8045 155.912 57.0788 159.85 57.7858C165.063 58.722 163.374 65.492 158.798 68.3324C157.811 68.9438 155.765 69.8291 155.765 69.8291C155.765 69.8291 154.968 74.0833 156.6 73.8286C159.378 73.3828 160.474 71.3321 163.157 67.186C163.597 66.5046 166.082 66.8294 166.139 67.0841C166.254 67.4662 163.616 71.918 161.959 73.4529ZM155.975 66.2052C155.975 66.2052 157.734 65.6639 159.206 64.3583C161.188 62.5941 160.748 60.225 160.003 59.9957C159.423 59.8174 158.11 60.6262 156.829 63.8169C156.587 64.4029 155.975 66.2052 155.975 66.2052Z" fill="white"/>
<path d="M178.984 60.6062C178.449 60.5616 177.602 60.0458 177.238 59.7974C175.843 58.8294 175.021 57.3518 171.745 57.2372C166.724 57.0652 163.34 64.9178 163.085 67.2424C162.951 68.4334 162.206 73.5602 166.545 73.6685C170.879 73.7831 173.957 68.2487 174.224 68.0449C174.492 67.8475 175.301 67.6755 175.218 68.255C175.097 69.0511 174.683 71.3121 172.351 74.1143C170.018 76.9166 165.946 79.2284 165.475 83.298C165.01 87.3613 167.278 90.9787 170.413 90.9787C175.282 90.9787 177.2 84.0432 178.335 74.8404C178.57 72.9361 179.488 70.6178 179.94 69.1403C181.604 63.7141 181.635 64.1727 182.196 61.1985C182.343 60.4342 180.278 60.7081 178.984 60.6062ZM170.382 88.3676C170.101 88.6096 168.336 89.5904 168.559 85.5144C168.782 81.4384 173.714 76.2478 173.714 76.2478C173.714 76.2478 174.02 85.2341 170.382 88.3676ZM168.572 68.9938C168.183 66.4591 170.681 60.0012 172.529 59.5235C174.027 59.135 175.384 61.5488 175.849 62.6506C175.849 62.6506 168.973 71.605 168.572 68.9938Z" fill="white"/>
<path d="M178.344 74.8569C178.344 74.8569 184.067 71.4177 184.914 69.9465C185.762 68.4753 186.144 64.4949 184.596 66.0297C183.047 67.5646 180.785 70.2267 179.478 70.5898C178.166 70.9528 178.344 74.8569 178.344 74.8569Z" fill="white"/>
<path d="M212.686 57.0781C211.291 57.2628 208.602 65.0072 208.296 67.6247C207.99 70.2359 207.556 75.3246 207.862 75.8086C208.168 76.2926 212.361 76.7894 212.425 76.178C212.489 75.5729 212.361 64.2111 213.215 63.7653C214.063 63.3195 213.4 72.2357 213.884 72.5987C214.369 72.9618 217.714 73.312 218.262 72.7643C218.81 72.2166 219.894 66.8733 220.684 66.886C221.474 66.8987 220.499 76.2098 221.289 76.4964C222.079 76.783 225.476 76.9932 225.839 76.4964C226.202 75.9996 225.858 60.1606 225.61 58.5238C225.489 57.7086 221.984 57.3584 221.302 57.6641C220.321 58.1035 218.645 64.8416 217.778 64.7142C216.841 64.5741 217.657 58.7722 217.294 58.0079C216.93 57.2437 212.686 57.0781 212.686 57.0781Z" fill="white"/>
<path d="M164.908 44.7136L141.232 24L117.562 44.7136H120.103L141.232 26.6942L162.368 44.7136H164.908Z" fill="white"/>
<path d="M133.84 41.7532L141.376 34.3555L148.635 41.7532H133.84Z" stroke="white" stroke-width="0.581494" stroke-miterlimit="10"/>
<path d="M30.2734 46.1929L51.8356 29.918H135.321" stroke="white" stroke-width="0.581494" stroke-miterlimit="10"/>
<path d="M156.031 37.3164H203.402L224.09 51.3998V53.5914H223.039" stroke="white" stroke-width="0.581494" stroke-miterlimit="10"/>
<path d="M43.7125 101.461C44.1076 101.576 44.5154 101.735 44.936 101.939C45.3566 102.143 45.6816 102.353 45.911 102.57C45.9684 102.633 46.0066 102.691 46.0257 102.735C46.0449 102.78 46.0385 102.85 46.0194 102.952L45.6943 104.608C45.688 104.633 45.6561 104.646 45.6115 104.639C45.5669 104.633 45.5414 104.614 45.5414 104.576C45.5159 103.799 45.2801 103.168 44.8468 102.672C44.4135 102.181 43.8272 101.824 43.088 101.614C42.4252 101.423 41.8071 101.404 41.24 101.563C40.6728 101.723 40.1821 102.041 39.7679 102.506C39.3537 102.971 39.0414 103.57 38.8311 104.296C38.6463 104.926 38.5698 105.544 38.589 106.149C38.6081 106.76 38.7292 107.321 38.9395 107.837C39.1498 108.352 39.4365 108.792 39.8061 109.155C40.1694 109.518 40.6091 109.773 41.1061 109.919C41.7179 110.098 42.3105 110.078 42.8904 109.856C43.4703 109.633 44.012 109.193 44.5218 108.518C44.5409 108.486 44.5728 108.48 44.6238 108.505C44.6684 108.531 44.6875 108.556 44.6811 108.582L44.0247 110.142C43.9738 110.244 43.9355 110.308 43.9037 110.333C43.8718 110.359 43.8081 110.378 43.7189 110.39C43.2409 110.435 42.7757 110.435 42.3296 110.39C41.8836 110.346 41.4566 110.263 41.0424 110.142C40.1821 109.894 39.4811 109.543 38.9458 109.104C38.4105 108.665 38.0091 108.168 37.7478 107.62C37.4865 107.072 37.3463 106.512 37.3145 105.939C37.289 105.366 37.3463 104.824 37.4929 104.315C37.6841 103.659 37.99 103.111 38.4105 102.672C38.8311 102.232 39.3282 101.888 39.9081 101.646C40.4816 101.404 41.0998 101.27 41.7497 101.232C42.4189 101.194 43.0689 101.27 43.7125 101.461Z" fill="white"/>
<path d="M51.797 112.386L45.9406 111.214C45.9151 111.208 45.9024 111.176 45.9152 111.125C45.9279 111.067 45.947 111.048 45.9725 111.048C46.2847 111.112 46.5269 111.138 46.6926 111.118C46.8646 111.106 46.9857 111.036 47.0686 110.908C47.1514 110.781 47.2215 110.583 47.2725 110.322L48.547 103.96C48.598 103.692 48.6107 103.489 48.5853 103.349C48.5598 103.208 48.4641 103.094 48.3176 103.011C48.1646 102.928 47.9352 102.858 47.623 102.794C47.5975 102.788 47.5847 102.756 47.5975 102.705C47.6102 102.648 47.6294 102.629 47.6548 102.629L53.2627 103.75C53.3519 103.769 53.3901 103.82 53.3774 103.903L53.0587 105.641C53.0524 105.667 53.0269 105.679 52.9759 105.673C52.9249 105.667 52.8994 105.648 52.8931 105.622C52.9313 105.106 52.8293 104.686 52.5872 104.368C52.345 104.049 51.9882 103.839 51.5102 103.743L50.8093 103.603C50.5352 103.546 50.3186 103.527 50.1656 103.546C50.0127 103.565 49.8916 103.629 49.8151 103.737C49.7387 103.852 49.6749 104.017 49.6303 104.234L48.3813 110.488C48.3367 110.711 48.3303 110.883 48.3558 111.016C48.3813 111.15 48.4578 111.259 48.5853 111.335C48.7127 111.411 48.8975 111.475 49.146 111.526L50.0509 111.711C50.5735 111.813 51.0323 111.749 51.4338 111.507C51.8352 111.265 52.1539 110.876 52.396 110.335C52.4024 110.31 52.4279 110.303 52.4852 110.322C52.5362 110.341 52.5617 110.367 52.5553 110.392C52.4661 110.634 52.3769 110.921 52.2813 111.265C52.1857 111.609 52.1093 111.927 52.0455 112.22C52.02 112.36 51.9372 112.411 51.797 112.386ZM51.6632 109.074C51.7396 108.679 51.6886 108.367 51.5038 108.132C51.319 107.896 50.9749 107.73 50.4843 107.635L48.4896 107.233L48.5534 106.915L50.5862 107.323C51.0514 107.418 51.4146 107.405 51.6632 107.291C51.9117 107.176 52.0774 106.947 52.1411 106.609C52.1475 106.59 52.173 106.584 52.2239 106.597C52.2749 106.609 52.3004 106.622 52.294 106.641C52.2367 106.928 52.1921 107.144 52.1539 107.297C52.1156 107.45 52.0838 107.616 52.0455 107.788C52.0009 107.998 51.969 108.208 51.9372 108.424C51.9117 108.635 51.8735 108.864 51.8225 109.099C51.8161 109.119 51.7906 109.119 51.7332 109.112C51.6823 109.106 51.6568 109.093 51.6632 109.074Z" fill="white"/>
<path d="M55.2225 111.374L56.3186 104.623L56.6627 104.699L55.5666 111.425C55.4902 111.902 55.522 112.272 55.675 112.526C55.8215 112.781 56.1083 112.94 56.5353 113.004C56.5608 113.01 56.5735 113.036 56.5671 113.093C56.5607 113.15 56.5416 113.176 56.5161 113.17C56.3122 113.144 56.1019 113.106 55.8916 113.068C55.6813 113.029 55.4392 112.991 55.1715 112.953C54.923 112.915 54.6872 112.889 54.4642 112.864C54.2412 112.845 54.0309 112.819 53.8397 112.787C53.8206 112.787 53.8142 112.756 53.8269 112.698C53.8333 112.641 53.8461 112.615 53.8652 112.622C54.2539 112.679 54.5598 112.603 54.7828 112.399C54.9931 112.195 55.1461 111.851 55.2225 111.374ZM64.7367 114.163C64.7558 114.163 64.7622 114.195 64.7495 114.252C64.7431 114.31 64.7304 114.335 64.7112 114.329C64.4818 114.297 64.2205 114.252 63.9338 114.201C63.647 114.15 63.3411 114.106 63.0225 114.061C62.7166 114.017 62.4299 113.985 62.1622 113.953C61.8946 113.927 61.6524 113.896 61.4357 113.864C61.4103 113.857 61.3975 113.832 61.4039 113.775C61.4103 113.717 61.4294 113.692 61.4548 113.698C61.9073 113.762 62.2068 113.743 62.3534 113.641C62.5 113.539 62.5892 113.291 62.6146 112.883L63.2647 106.31L63.9147 105.61L59.1353 113.437C59.1225 113.475 59.0843 113.488 59.0205 113.475C58.9632 113.469 58.925 113.443 58.9122 113.405L56.3441 105.47C56.1147 104.769 55.7068 104.374 55.1205 104.292C55.1014 104.292 55.0951 104.26 55.1078 104.202C55.1142 104.145 55.1269 104.12 55.1461 104.126C55.3117 104.151 55.4838 104.177 55.6622 104.215C55.8407 104.247 55.9936 104.279 56.1274 104.292C56.3058 104.317 56.4652 104.336 56.6054 104.342C56.7456 104.349 56.8603 104.362 56.9367 104.374C57.0642 104.393 57.1598 104.451 57.2235 104.553C57.2872 104.655 57.37 104.865 57.472 105.189L59.7152 112.03L59.0779 112.845L63.5068 105.661C63.5705 105.559 63.6407 105.476 63.7171 105.432C63.7936 105.381 63.8828 105.361 63.972 105.374C64.0357 105.381 64.1186 105.4 64.2142 105.425C64.3097 105.451 64.4245 105.47 64.5519 105.489C64.8132 105.527 65.0298 105.553 65.2083 105.565C65.3867 105.578 65.5651 105.603 65.7499 105.629C65.769 105.629 65.7754 105.661 65.7627 105.718C65.7499 105.775 65.7436 105.801 65.7244 105.795C65.2784 105.731 64.947 105.756 64.724 105.871C64.5009 105.986 64.3671 106.234 64.3225 106.616L63.7107 113.036C63.6916 113.303 63.698 113.513 63.7362 113.66C63.7745 113.806 63.8637 113.915 64.0166 113.985C64.1759 114.061 64.4117 114.119 64.7367 114.163Z" fill="white"/>
<path d="M71.7852 115.022L65.846 114.41C65.8205 114.41 65.8078 114.378 65.8141 114.321C65.8205 114.264 65.8396 114.238 65.8651 114.245C66.1837 114.276 66.4259 114.276 66.5916 114.251C66.7572 114.219 66.8783 114.143 66.9484 114.009C67.0185 113.875 67.0695 113.671 67.095 113.404L67.7577 106.952C67.7832 106.685 67.7768 106.475 67.7386 106.335C67.694 106.194 67.5984 106.093 67.4391 106.023C67.2798 105.952 67.044 105.902 66.7318 105.87C66.7063 105.87 66.6935 105.838 66.6999 105.781C66.7062 105.723 66.7254 105.698 66.7509 105.704L72.4415 106.29C72.5371 106.296 72.5754 106.347 72.569 106.43L72.4161 108.188C72.4161 108.213 72.3842 108.232 72.3332 108.226C72.2822 108.226 72.2504 108.213 72.244 108.182C72.2312 107.666 72.0911 107.258 71.817 106.965C71.5494 106.672 71.167 106.494 70.6891 106.449L69.9754 106.373C69.695 106.347 69.4783 106.347 69.3254 106.379C69.1725 106.411 69.0577 106.487 68.994 106.608C68.9239 106.729 68.8793 106.901 68.8538 107.124L68.2038 113.468C68.1783 113.69 68.1911 113.869 68.2293 113.996C68.2675 114.13 68.3568 114.225 68.4906 114.289C68.6244 114.353 68.8156 114.397 69.0705 114.423L69.9881 114.518C70.517 114.569 70.9695 114.461 71.3455 114.187C71.7215 113.913 72.0019 113.493 72.193 112.926C72.193 112.901 72.2249 112.894 72.2822 112.907C72.3396 112.92 72.3651 112.945 72.3587 112.971C72.295 113.219 72.2312 113.518 72.1675 113.869C72.1038 114.219 72.0528 114.544 72.0273 114.843C72.0019 114.971 71.9254 115.034 71.7852 115.022ZM71.3327 111.735C71.371 111.334 71.2881 111.028 71.0842 110.818C70.8739 110.602 70.5234 110.474 70.02 110.423L67.9999 110.213L68.0318 109.895L70.0964 110.105C70.568 110.156 70.9249 110.105 71.167 109.971C71.4092 109.837 71.543 109.589 71.5813 109.245C71.5813 109.226 71.6067 109.22 71.6577 109.226C71.7087 109.232 71.7342 109.245 71.7342 109.264C71.7023 109.551 71.6768 109.774 71.6577 109.933C71.6386 110.092 71.6195 110.258 71.6004 110.436C71.5812 110.653 71.5622 110.863 71.5558 111.079C71.5494 111.296 71.5303 111.525 71.5048 111.767C71.5048 111.786 71.4729 111.793 71.4156 111.786C71.3582 111.767 71.3263 111.754 71.3327 111.735Z" fill="white"/>
<path d="M73.4356 115.19C73.4165 115.19 73.4101 115.158 73.4164 115.107C73.4228 115.056 73.4292 115.025 73.4483 115.025C73.786 115.05 74.041 115.044 74.213 115.012C74.3914 114.98 74.5125 114.891 74.5763 114.757C74.64 114.623 74.6846 114.419 74.7037 114.146L75.188 107.675C75.2071 107.407 75.1944 107.197 75.1498 107.064C75.1052 106.923 74.9968 106.822 74.8375 106.758C74.6718 106.694 74.4297 106.65 74.1047 106.624C74.0792 106.624 74.0665 106.592 74.0665 106.535C74.0728 106.478 74.0855 106.452 74.1174 106.452C74.3532 106.471 74.6081 106.497 74.9013 106.529C75.188 106.567 75.4939 106.592 75.8061 106.618C76.1758 106.643 76.5135 106.662 76.8066 106.669C77.0998 106.675 77.3674 106.688 77.5968 106.707C77.6159 106.707 77.6223 106.739 77.616 106.79C77.6096 106.847 77.6032 106.873 77.5841 106.873C77.24 106.847 76.9787 106.853 76.8003 106.898C76.6218 106.943 76.5007 107.032 76.4306 107.166C76.3605 107.299 76.316 107.503 76.2968 107.771L75.8125 114.209C75.7934 114.477 75.8062 114.687 75.8508 114.827C75.8954 114.974 76.0037 115.076 76.1821 115.133C76.3606 115.19 76.6155 115.235 76.9596 115.26C76.9787 115.26 76.9851 115.292 76.9787 115.343C76.9723 115.4 76.9659 115.426 76.9468 115.426C76.7047 115.407 76.437 115.381 76.1503 115.349C75.8635 115.317 75.5321 115.292 75.1561 115.26C74.8375 115.235 74.5317 115.216 74.2322 115.203C73.9326 115.19 73.6714 115.209 73.4356 115.19ZM75.3537 114.324L75.1307 114.082L81.7581 107.974L81.9939 108.229L75.3537 114.324ZM78.9159 105.981C79.1963 106 79.413 105.93 79.566 105.771C79.7189 105.612 79.8336 105.42 79.9164 105.198C79.9865 105.026 80.063 104.866 80.1458 104.733C80.2287 104.593 80.3689 104.529 80.5664 104.548C80.7257 104.561 80.8405 104.612 80.9042 104.701C80.9743 104.79 80.9998 104.905 80.9934 105.045C80.9743 105.28 80.8659 105.484 80.6684 105.669C80.4645 105.853 80.2096 105.987 79.8973 106.083C79.5851 106.178 79.2601 106.21 78.9096 106.185C78.5718 106.159 78.2596 106.076 77.9601 105.93C77.6606 105.783 77.4312 105.612 77.2591 105.401C77.0934 105.191 77.0169 104.975 77.036 104.752C77.0488 104.612 77.0934 104.503 77.1826 104.427C77.2654 104.351 77.3866 104.319 77.5331 104.325C77.7498 104.338 77.8836 104.427 77.9409 104.573C77.9983 104.726 78.0493 104.892 78.0939 105.07C78.1321 105.28 78.2086 105.478 78.3233 105.669C78.438 105.86 78.6356 105.955 78.9159 105.981ZM79.464 115.642C79.4385 115.642 79.4257 115.61 79.4257 115.553C79.4321 115.496 79.4449 115.47 79.4767 115.47C79.8336 115.496 80.0949 115.496 80.2733 115.458C80.4517 115.426 80.5664 115.337 80.6302 115.203C80.6939 115.069 80.7321 114.865 80.7512 114.591L81.2356 108.153C81.2547 107.885 81.2483 107.675 81.2037 107.535C81.1591 107.395 81.0571 107.287 80.8914 107.216C80.7257 107.146 80.4645 107.102 80.1076 107.076C80.0821 107.076 80.0694 107.044 80.0694 106.987C80.0757 106.93 80.0885 106.904 80.1204 106.904C80.3562 106.923 80.611 106.949 80.9042 106.981C81.1973 107.013 81.516 107.051 81.8792 107.076C82.1978 107.102 82.5037 107.115 82.8096 107.127C83.1154 107.14 83.3831 107.146 83.6125 107.166C83.6316 107.166 83.638 107.197 83.6316 107.248C83.6253 107.306 83.6189 107.331 83.5997 107.331C83.262 107.306 83.0135 107.312 82.8414 107.35C82.6694 107.388 82.5483 107.471 82.4782 107.605C82.4081 107.739 82.3635 107.936 82.3444 108.204L81.8601 114.674C81.8409 114.942 81.8537 115.152 81.9047 115.298C81.9556 115.445 82.064 115.547 82.2233 115.604C82.3826 115.661 82.6375 115.706 82.9753 115.731C82.9944 115.731 83.0008 115.763 82.9944 115.821C82.988 115.878 82.9816 115.903 82.9625 115.903C82.7267 115.884 82.4591 115.859 82.1595 115.827C81.86 115.795 81.5478 115.77 81.2292 115.744C80.8659 115.719 80.5409 115.7 80.2478 115.687C79.9547 115.674 79.6934 115.661 79.464 115.642Z" fill="white"/>
<path d="M85.337 114.901L85.6493 108.424C85.662 108.156 85.6429 107.946 85.5919 107.813C85.5409 107.679 85.4326 107.577 85.2669 107.513C85.1012 107.456 84.8527 107.418 84.5277 107.399C84.5022 107.399 84.4894 107.367 84.4894 107.309C84.4894 107.252 84.5086 107.227 84.5341 107.227C84.7698 107.239 85.0311 107.258 85.3179 107.284C85.6046 107.309 85.9105 107.335 86.2291 107.348C86.6051 107.367 86.9365 107.373 87.2296 107.373C87.5228 107.373 87.7904 107.379 88.0198 107.392C88.0389 107.392 88.0453 107.424 88.0453 107.475C88.0453 107.532 88.0326 107.558 88.0134 107.558C87.6693 107.539 87.4081 107.558 87.2296 107.602C87.0512 107.653 86.9301 107.742 86.8664 107.876C86.7963 108.016 86.7581 108.22 86.7453 108.488L86.4331 114.939C86.4203 115.213 86.4394 115.417 86.4841 115.557C86.535 115.697 86.6433 115.799 86.8218 115.856C86.9938 115.914 87.2551 115.945 87.6056 115.964C87.6247 115.964 87.6311 115.996 87.6311 116.047C87.6311 116.098 87.6184 116.13 87.5992 116.13C87.3571 116.117 87.0894 116.098 86.8027 116.079C86.5159 116.054 86.1845 116.035 85.8086 116.015C85.4899 116.003 85.1841 115.99 84.8845 115.984C84.585 115.977 84.3174 115.971 84.088 115.958C84.0689 115.958 84.0625 115.926 84.0625 115.875C84.0625 115.824 84.0752 115.792 84.0944 115.792C84.4321 115.812 84.687 115.799 84.8591 115.761C85.0311 115.722 85.1522 115.633 85.2159 115.5C85.286 115.372 85.3243 115.168 85.337 114.901ZM86.0125 111.666L86.0252 111.341L92.213 111.64L92.2002 111.959L86.0125 111.666ZM91.8689 108.749C91.8816 108.481 91.8688 108.271 91.8242 108.131C91.7796 107.991 91.6713 107.883 91.5056 107.819C91.3336 107.755 91.0723 107.711 90.7154 107.698C90.6899 107.698 90.6772 107.666 90.6772 107.615C90.6772 107.564 90.6963 107.532 90.7218 107.532C90.9448 107.545 91.2061 107.564 91.4992 107.59C91.7924 107.615 92.1237 107.641 92.487 107.66C92.8056 107.672 93.1179 107.685 93.4174 107.685C93.7169 107.685 93.9845 107.691 94.2076 107.704C94.2331 107.704 94.2458 107.736 94.2458 107.787C94.2458 107.838 94.2267 107.87 94.2012 107.87C93.8762 107.857 93.6213 107.87 93.4492 107.908C93.2772 107.946 93.1561 108.042 93.0924 108.169C93.0286 108.296 92.9904 108.5 92.9777 108.774L92.6654 115.251C92.6527 115.525 92.6718 115.729 92.7164 115.869C92.761 116.009 92.8757 116.111 93.0478 116.168C93.2198 116.226 93.4683 116.257 93.7933 116.277C93.8188 116.277 93.8316 116.308 93.8316 116.359C93.8316 116.417 93.8124 116.442 93.787 116.442C93.5639 116.429 93.2963 116.417 92.9968 116.391C92.6909 116.366 92.385 116.347 92.0664 116.334C91.7032 116.315 91.3718 116.308 91.0786 116.302C90.7855 116.296 90.5242 116.289 90.3012 116.277C90.2757 116.277 90.263 116.245 90.263 116.187C90.263 116.13 90.2821 116.105 90.3076 116.105C90.6644 116.124 90.9257 116.111 91.1041 116.073C91.2762 116.035 91.3973 115.945 91.4546 115.812C91.512 115.672 91.5502 115.468 91.5629 115.2L91.8689 108.749Z" fill="white"/>
<path d="M98.8042 116.649C98.6449 116.642 98.4473 116.629 98.2115 116.61C97.9757 116.591 97.7272 116.572 97.4787 116.547C97.2238 116.528 96.9816 116.515 96.7395 116.508C96.4591 116.502 96.1723 116.496 95.8728 116.502C95.5733 116.502 95.3121 116.502 95.089 116.496C95.0635 116.496 95.0508 116.464 95.0508 116.413C95.0508 116.356 95.0699 116.33 95.0954 116.33C95.414 116.33 95.6561 116.311 95.8218 116.273C95.9875 116.235 96.1022 116.152 96.166 116.018C96.2297 115.884 96.2679 115.674 96.2743 115.4L96.44 108.917C96.4464 108.637 96.4273 108.427 96.3699 108.293C96.3189 108.159 96.2106 108.064 96.0513 108.019C95.892 107.974 95.6498 107.943 95.3248 107.923C95.3057 107.923 95.2993 107.898 95.2993 107.841C95.2993 107.783 95.3121 107.758 95.3312 107.758C95.567 107.764 95.8155 107.777 96.0895 107.796C96.3572 107.815 96.663 107.834 97.0008 107.841C97.3576 107.847 97.6826 107.853 97.9885 107.847C98.2944 107.841 98.5557 107.841 98.7787 107.847C98.8042 107.847 98.8169 107.879 98.8169 107.93C98.8169 107.987 98.7978 108.013 98.7723 108.013C98.4473 108.013 98.1924 108.038 98.0204 108.076C97.8483 108.121 97.7272 108.204 97.6571 108.337C97.587 108.471 97.5488 108.681 97.5424 108.974L97.3767 115.432C97.3704 115.617 97.3959 115.782 97.4469 115.916C97.4978 116.05 97.6125 116.158 97.7846 116.241C97.9566 116.317 98.2116 116.362 98.5621 116.375C99.2885 116.394 99.811 116.235 100.13 115.891C100.448 115.547 100.614 115.025 100.633 114.311C100.646 113.751 100.582 113.299 100.429 112.961C100.276 112.624 100.053 112.375 99.7473 112.222C99.4415 112.069 99.0591 111.987 98.6067 111.974C98.3518 111.968 98.0905 111.98 97.8228 112.012C97.5488 112.044 97.2812 112.089 97.0072 112.146L96.9753 111.853C97.3066 111.789 97.6444 111.738 97.9885 111.706C98.3326 111.675 98.6704 111.662 99.0018 111.668C99.588 111.681 100.098 111.777 100.525 111.936C100.952 112.101 101.283 112.356 101.513 112.7C101.748 113.044 101.857 113.49 101.844 114.037C101.831 114.579 101.691 115.05 101.436 115.451C101.175 115.853 100.824 116.158 100.372 116.368C99.9003 116.566 99.3841 116.661 98.8042 116.649ZM104.788 115.611C104.782 115.878 104.801 116.088 104.852 116.228C104.896 116.368 105.005 116.464 105.164 116.515C105.323 116.566 105.572 116.598 105.897 116.604C105.916 116.604 105.922 116.629 105.922 116.687C105.922 116.744 105.91 116.77 105.89 116.77C105.655 116.763 105.4 116.751 105.113 116.738C104.826 116.719 104.52 116.706 104.183 116.7C103.858 116.693 103.545 116.687 103.259 116.687C102.965 116.687 102.704 116.687 102.475 116.68C102.456 116.68 102.449 116.649 102.449 116.598C102.449 116.54 102.462 116.515 102.481 116.515C102.806 116.521 103.055 116.508 103.227 116.464C103.399 116.419 103.514 116.33 103.571 116.19C103.628 116.05 103.666 115.846 103.673 115.579L103.838 109.095C103.845 108.828 103.826 108.618 103.768 108.484C103.711 108.35 103.609 108.248 103.437 108.197C103.271 108.14 103.023 108.108 102.698 108.102C102.679 108.102 102.672 108.07 102.672 108.019C102.672 107.962 102.685 107.936 102.704 107.936C102.94 107.943 103.201 107.955 103.488 107.974C103.775 107.994 104.087 108.013 104.412 108.019C104.75 108.025 105.062 108.032 105.349 108.019C105.642 108.013 105.897 108.013 106.12 108.019C106.139 108.019 106.145 108.044 106.145 108.102C106.145 108.159 106.133 108.185 106.113 108.185C105.788 108.178 105.54 108.197 105.381 108.248C105.221 108.299 105.113 108.395 105.049 108.535C104.986 108.675 104.954 108.879 104.947 109.146L104.788 115.611Z" fill="white"/>
<path d="M107.201 116.784C107.182 116.784 107.176 116.759 107.176 116.701C107.176 116.644 107.189 116.618 107.201 116.618C107.539 116.618 107.794 116.599 107.966 116.555C108.138 116.51 108.253 116.415 108.31 116.275C108.367 116.134 108.399 115.931 108.399 115.657L108.444 109.167C108.444 108.893 108.418 108.689 108.361 108.556C108.304 108.422 108.195 108.326 108.023 108.275C107.858 108.224 107.609 108.193 107.278 108.193C107.252 108.193 107.233 108.167 107.24 108.11C107.246 108.053 107.252 108.027 107.284 108.027C107.52 108.027 107.781 108.04 108.068 108.053C108.355 108.065 108.661 108.078 108.979 108.078C109.355 108.078 109.687 108.078 109.98 108.065C110.273 108.052 110.54 108.046 110.77 108.053C110.789 108.053 110.795 108.078 110.795 108.135C110.795 108.193 110.783 108.218 110.77 108.218C110.426 108.218 110.165 108.244 109.992 108.295C109.82 108.346 109.699 108.447 109.642 108.587C109.578 108.728 109.546 108.931 109.546 109.205L109.502 115.663C109.502 115.931 109.527 116.141 109.585 116.281C109.642 116.421 109.757 116.517 109.935 116.561C110.114 116.612 110.375 116.631 110.719 116.638C110.738 116.638 110.744 116.663 110.744 116.72C110.744 116.778 110.732 116.803 110.719 116.803C110.477 116.803 110.209 116.797 109.922 116.784C109.636 116.771 109.298 116.765 108.928 116.765C108.61 116.765 108.304 116.765 108.004 116.771C107.698 116.778 107.431 116.784 107.201 116.784ZM109.056 115.784L108.82 115.561L115.02 109.014L115.269 109.256L109.056 115.784ZM112.044 107.218C112.325 107.218 112.535 107.135 112.675 106.963C112.815 106.791 112.924 106.594 112.988 106.371C113.045 106.193 113.109 106.034 113.185 105.887C113.262 105.741 113.395 105.671 113.593 105.671C113.752 105.671 113.867 105.715 113.943 105.798C114.02 105.881 114.052 105.995 114.052 106.136C114.052 106.371 113.956 106.581 113.765 106.779C113.574 106.976 113.332 107.129 113.026 107.244C112.72 107.358 112.395 107.416 112.051 107.409C111.713 107.409 111.394 107.346 111.082 107.218C110.776 107.097 110.528 106.932 110.349 106.734C110.171 106.537 110.082 106.327 110.082 106.104C110.082 105.964 110.12 105.849 110.203 105.766C110.286 105.683 110.4 105.639 110.547 105.645C110.764 105.645 110.904 105.722 110.974 105.868C111.044 106.015 111.108 106.174 111.159 106.352C111.216 106.556 111.305 106.753 111.426 106.938C111.56 107.123 111.764 107.212 112.044 107.218ZM113.242 116.822C113.217 116.822 113.198 116.797 113.198 116.739C113.198 116.682 113.211 116.657 113.242 116.657C113.599 116.657 113.861 116.638 114.033 116.593C114.205 116.548 114.319 116.453 114.37 116.313C114.421 116.173 114.447 115.969 114.453 115.695L114.498 109.237C114.498 108.97 114.472 108.759 114.428 108.619C114.377 108.479 114.268 108.377 114.09 108.326C113.918 108.269 113.65 108.237 113.3 108.237C113.274 108.237 113.255 108.212 113.255 108.154C113.255 108.097 113.268 108.072 113.3 108.072C113.536 108.072 113.797 108.084 114.084 108.097C114.37 108.11 114.702 108.123 115.065 108.123C115.384 108.123 115.696 108.123 115.995 108.11C116.295 108.097 116.569 108.091 116.805 108.097C116.824 108.097 116.83 108.123 116.83 108.18C116.83 108.237 116.817 108.263 116.805 108.263C116.467 108.263 116.218 108.288 116.046 108.333C115.881 108.384 115.76 108.473 115.702 108.613C115.639 108.747 115.607 108.951 115.607 109.224L115.562 115.714C115.562 115.988 115.588 116.192 115.651 116.332C115.709 116.472 115.823 116.568 115.995 116.612C116.167 116.657 116.416 116.682 116.754 116.689C116.773 116.689 116.779 116.714 116.779 116.771C116.779 116.829 116.766 116.854 116.754 116.854C116.518 116.854 116.25 116.848 115.944 116.835C115.639 116.822 115.333 116.816 115.014 116.816C114.651 116.816 114.319 116.816 114.033 116.822C113.746 116.829 113.472 116.822 113.242 116.822Z" fill="white"/>
<path d="M123.779 115.588C123.785 115.868 123.823 116.079 123.894 116.225C123.964 116.372 124.117 116.467 124.34 116.518C124.563 116.569 124.9 116.594 125.347 116.588C125.372 116.588 125.391 116.614 125.391 116.671C125.391 116.728 125.378 116.754 125.353 116.754C125.053 116.76 124.728 116.76 124.378 116.754C124.027 116.747 123.645 116.747 123.237 116.754C122.931 116.76 122.625 116.766 122.332 116.779C122.039 116.792 121.772 116.805 121.542 116.805C121.523 116.805 121.517 116.779 121.51 116.722C121.51 116.665 121.517 116.639 121.536 116.639C121.861 116.633 122.109 116.607 122.269 116.556C122.434 116.505 122.536 116.41 122.587 116.27C122.638 116.13 122.657 115.926 122.657 115.652L122.562 109.162C122.555 108.895 122.53 108.691 122.479 108.551C122.428 108.417 122.32 108.321 122.154 108.277C121.988 108.226 121.746 108.207 121.415 108.213C121.396 108.213 121.389 108.188 121.383 108.13C121.383 108.073 121.389 108.048 121.408 108.048C121.644 108.041 121.905 108.048 122.192 108.054C122.479 108.06 122.778 108.067 123.091 108.06C123.333 108.054 123.632 108.035 123.983 108.003C124.333 107.971 124.684 107.952 125.041 107.946C125.582 107.939 126.073 108.009 126.506 108.162C126.94 108.315 127.296 108.557 127.564 108.888C127.832 109.219 127.972 109.659 127.991 110.2C127.998 110.684 127.915 111.105 127.743 111.468C127.571 111.831 127.335 112.124 127.035 112.359C126.736 112.595 126.398 112.773 126.035 112.894C125.665 113.009 125.308 113.073 124.951 113.079C124.837 113.079 124.722 113.079 124.607 113.073C124.493 113.066 124.378 113.047 124.276 113.022C124.238 113.015 124.225 112.977 124.238 112.92C124.25 112.862 124.27 112.83 124.301 112.843C124.384 112.862 124.473 112.875 124.563 112.881C124.652 112.888 124.728 112.894 124.792 112.894C125.149 112.888 125.474 112.799 125.767 112.627C126.067 112.455 126.302 112.194 126.487 111.837C126.672 111.487 126.755 111.047 126.748 110.525C126.742 110.022 126.647 109.595 126.468 109.251C126.29 108.907 126.047 108.646 125.735 108.462C125.423 108.277 125.066 108.194 124.665 108.194C124.403 108.2 124.199 108.22 124.053 108.258C123.906 108.296 123.811 108.385 123.753 108.525C123.702 108.665 123.677 108.882 123.677 109.168L123.779 115.588Z" fill="white"/>
<path d="M135.433 116.511L129.462 116.69C129.437 116.69 129.418 116.664 129.418 116.607C129.418 116.55 129.43 116.524 129.456 116.524C129.774 116.511 130.017 116.486 130.176 116.435C130.335 116.384 130.444 116.288 130.495 116.142C130.545 115.995 130.571 115.792 130.558 115.524L130.367 109.041C130.361 108.773 130.322 108.57 130.265 108.436C130.208 108.302 130.093 108.213 129.927 108.168C129.762 108.124 129.519 108.105 129.201 108.111C129.175 108.111 129.156 108.086 129.156 108.028C129.156 107.971 129.169 107.945 129.195 107.945L134.911 107.773C135.006 107.773 135.051 107.812 135.057 107.894L135.14 109.659C135.14 109.684 135.115 109.703 135.064 109.71C135.013 109.716 134.981 109.703 134.974 109.678C134.892 109.168 134.7 108.78 134.394 108.525C134.089 108.27 133.694 108.149 133.203 108.162L132.489 108.181C132.209 108.187 131.992 108.219 131.845 108.27C131.699 108.321 131.597 108.41 131.546 108.538C131.495 108.665 131.469 108.843 131.476 109.066L131.667 115.441C131.673 115.664 131.705 115.836 131.763 115.964C131.82 116.091 131.916 116.174 132.056 116.218C132.196 116.263 132.394 116.288 132.648 116.276L133.572 116.25C134.108 116.238 134.541 116.066 134.872 115.741C135.21 115.416 135.433 114.964 135.548 114.384C135.548 114.359 135.573 114.346 135.631 114.352C135.688 114.359 135.714 114.378 135.714 114.403C135.682 114.658 135.663 114.964 135.644 115.314C135.624 115.664 135.624 115.995 135.631 116.295C135.644 116.435 135.573 116.505 135.433 116.511ZM134.554 113.314C134.541 112.913 134.42 112.62 134.184 112.435C133.948 112.251 133.579 112.168 133.075 112.181L131.043 112.244L131.036 111.919L133.107 111.856C133.585 111.843 133.929 111.748 134.152 111.582C134.369 111.41 134.477 111.155 134.465 110.811C134.465 110.792 134.49 110.779 134.541 110.779C134.592 110.779 134.618 110.786 134.618 110.805C134.624 111.098 134.63 111.321 134.63 111.48C134.63 111.639 134.63 111.805 134.637 111.983C134.643 112.2 134.656 112.41 134.675 112.626C134.694 112.843 134.707 113.072 134.719 113.314C134.719 113.333 134.694 113.34 134.637 113.346C134.586 113.34 134.554 113.333 134.554 113.314Z" fill="white"/>
<path d="M142.054 107.292C142.461 107.273 142.901 107.292 143.366 107.35C143.831 107.407 144.207 107.496 144.494 107.624C144.571 107.668 144.622 107.706 144.653 107.744C144.685 107.783 144.704 107.853 144.717 107.955L144.953 109.623C144.953 109.649 144.934 109.674 144.883 109.681C144.838 109.693 144.806 109.681 144.8 109.642C144.52 108.916 144.093 108.394 143.526 108.069C142.952 107.744 142.283 107.604 141.518 107.643C140.83 107.674 140.237 107.859 139.753 108.197C139.269 108.534 138.905 108.993 138.67 109.566C138.434 110.146 138.332 110.808 138.37 111.566C138.402 112.222 138.529 112.827 138.746 113.4C138.963 113.973 139.262 114.464 139.626 114.878C139.995 115.298 140.409 115.616 140.875 115.839C141.34 116.062 141.83 116.164 142.359 116.139C142.997 116.107 143.551 115.89 144.029 115.495C144.507 115.1 144.877 114.502 145.131 113.699C145.138 113.661 145.17 113.648 145.221 113.655C145.272 113.661 145.297 113.68 145.297 113.706L145.182 115.393C145.17 115.508 145.151 115.578 145.131 115.616C145.112 115.648 145.055 115.686 144.978 115.731C144.539 115.928 144.099 116.081 143.666 116.183C143.232 116.285 142.799 116.342 142.372 116.368C141.474 116.412 140.703 116.31 140.046 116.068C139.39 115.826 138.854 115.489 138.428 115.056C138.001 114.623 137.682 114.139 137.472 113.61C137.255 113.082 137.14 112.547 137.115 112.018C137.083 111.337 137.191 110.719 137.446 110.165C137.701 109.611 138.058 109.127 138.523 108.706C138.988 108.292 139.524 107.961 140.129 107.713C140.734 107.464 141.384 107.324 142.054 107.292Z" fill="white"/>
<path d="M148.372 107.353C147.793 107.398 147.353 107.589 147.053 107.933C146.754 108.276 146.544 108.811 146.442 109.531C146.435 109.55 146.403 109.563 146.352 109.563C146.301 109.569 146.276 109.557 146.27 109.525C146.282 109.404 146.289 109.225 146.295 109.003C146.301 108.78 146.308 108.531 146.308 108.27C146.308 108.009 146.308 107.754 146.301 107.512C146.295 107.27 146.289 107.066 146.276 106.907C146.27 106.863 146.301 106.837 146.352 106.831C146.41 106.824 146.435 106.85 146.442 106.894C146.448 106.99 146.499 107.054 146.595 107.086C146.69 107.124 146.798 107.143 146.92 107.143C147.041 107.149 147.143 107.149 147.225 107.143C148.028 107.111 148.965 107.06 150.042 106.977C150.692 106.926 151.215 106.882 151.61 106.844C151.998 106.799 152.374 106.767 152.744 106.742C153.063 106.716 153.305 106.678 153.47 106.627C153.643 106.57 153.744 106.468 153.776 106.315C153.783 106.277 153.815 106.258 153.866 106.251C153.917 106.245 153.942 106.264 153.948 106.302C153.942 106.442 153.936 106.64 153.942 106.894C153.948 107.149 153.955 107.41 153.955 107.678C153.961 107.952 153.968 108.2 153.974 108.436C153.98 108.671 153.987 108.843 153.999 108.952C153.999 108.977 153.974 108.996 153.923 109.003C153.872 109.009 153.846 108.996 153.846 108.964C153.725 108.245 153.502 107.741 153.171 107.455C152.84 107.168 152.374 107.047 151.769 107.092C151.444 107.117 151.202 107.156 151.043 107.207C150.883 107.257 150.781 107.347 150.737 107.474C150.692 107.601 150.686 107.792 150.705 108.054L151.176 114.499C151.196 114.766 151.24 114.97 151.31 115.104C151.38 115.238 151.508 115.32 151.693 115.359C151.877 115.39 152.164 115.397 152.54 115.365C152.559 115.365 152.572 115.39 152.572 115.448C152.578 115.505 152.572 115.531 152.553 115.531C152.304 115.55 152.018 115.562 151.705 115.581C151.393 115.594 151.049 115.613 150.679 115.645C150.322 115.671 149.991 115.702 149.679 115.734C149.367 115.766 149.08 115.792 148.819 115.811C148.793 115.811 148.774 115.785 148.768 115.728C148.761 115.671 148.774 115.645 148.806 115.639C149.169 115.613 149.443 115.569 149.634 115.505C149.819 115.448 149.946 115.339 149.997 115.199C150.055 115.053 150.068 114.849 150.048 114.575L149.57 108.105C149.551 107.856 149.513 107.665 149.443 107.544C149.373 107.423 149.258 107.353 149.093 107.334C148.933 107.328 148.691 107.328 148.372 107.353Z" fill="white"/>
<path d="M160.196 115.018C159.527 115.088 158.909 115.031 158.342 114.853C157.775 114.674 157.277 114.394 156.844 114.018C156.417 113.643 156.067 113.19 155.799 112.668C155.531 112.146 155.366 111.579 155.302 110.968C155.226 110.216 155.302 109.541 155.538 108.942C155.774 108.344 156.111 107.834 156.557 107.408C157.003 106.981 157.501 106.643 158.061 106.401C158.622 106.159 159.183 106 159.75 105.943C160.438 105.873 161.069 105.93 161.636 106.121C162.203 106.312 162.701 106.592 163.128 106.975C163.554 107.35 163.892 107.796 164.147 108.306C164.402 108.815 164.561 109.35 164.619 109.904C164.689 110.554 164.619 111.172 164.415 111.757C164.211 112.343 163.911 112.866 163.503 113.331C163.096 113.795 162.611 114.178 162.044 114.477C161.471 114.77 160.852 114.955 160.196 115.018ZM160.649 114.662C161.235 114.598 161.751 114.394 162.197 114.044C162.643 113.694 162.975 113.21 163.191 112.605C163.402 111.993 163.465 111.267 163.382 110.42C163.293 109.554 163.064 108.802 162.688 108.159C162.318 107.516 161.834 107.032 161.241 106.707C160.649 106.382 159.967 106.255 159.208 106.331C158.233 106.433 157.513 106.841 157.048 107.554C156.583 108.267 156.411 109.197 156.526 110.344C156.596 111.006 156.742 111.611 156.978 112.165C157.214 112.719 157.507 113.19 157.883 113.585C158.252 113.98 158.673 114.273 159.145 114.464C159.616 114.655 160.113 114.719 160.649 114.662Z" fill="white"/>
<path d="M168.566 112.654C168.604 112.934 168.668 113.138 168.757 113.272C168.846 113.405 169.006 113.482 169.235 113.507C169.465 113.533 169.802 113.514 170.248 113.45C170.274 113.444 170.293 113.469 170.299 113.526C170.306 113.584 170.299 113.609 170.268 113.616C169.974 113.66 169.649 113.698 169.299 113.737C168.948 113.775 168.572 113.826 168.165 113.883C167.859 113.928 167.559 113.972 167.272 114.023C166.979 114.074 166.718 114.112 166.489 114.15C166.47 114.15 166.457 114.125 166.45 114.074C166.444 114.017 166.45 113.991 166.47 113.985C166.795 113.94 167.03 113.883 167.19 113.813C167.343 113.743 167.438 113.635 167.47 113.488C167.502 113.342 167.496 113.138 167.457 112.87L166.546 106.444C166.508 106.177 166.457 105.979 166.387 105.852C166.317 105.725 166.196 105.648 166.03 105.616C165.858 105.591 165.616 105.597 165.291 105.642C165.272 105.642 165.259 105.616 165.252 105.565C165.246 105.508 165.252 105.483 165.272 105.476C165.501 105.444 165.762 105.413 166.049 105.387C166.336 105.362 166.635 105.323 166.941 105.285C167.183 105.253 167.476 105.196 167.814 105.12C168.158 105.043 168.502 104.98 168.859 104.929C169.395 104.852 169.892 104.865 170.344 104.96C170.796 105.056 171.179 105.253 171.485 105.546C171.791 105.846 171.988 106.26 172.071 106.795C172.141 107.279 172.109 107.705 171.982 108.081C171.854 108.457 171.657 108.782 171.389 109.056C171.121 109.329 170.809 109.546 170.465 109.711C170.115 109.877 169.764 109.979 169.414 110.03C169.305 110.049 169.191 110.055 169.07 110.062C168.955 110.068 168.84 110.068 168.738 110.055C168.7 110.049 168.681 110.017 168.687 109.954C168.694 109.89 168.713 109.864 168.738 109.871C168.821 109.877 168.91 109.877 168.999 109.877C169.089 109.877 169.165 109.871 169.229 109.858C169.579 109.807 169.892 109.68 170.166 109.469C170.44 109.259 170.644 108.973 170.777 108.597C170.911 108.228 170.943 107.782 170.873 107.26C170.803 106.763 170.656 106.349 170.44 106.03C170.223 105.712 169.943 105.483 169.611 105.343C169.28 105.202 168.917 105.158 168.515 105.215C168.254 105.253 168.056 105.298 167.916 105.355C167.776 105.413 167.693 105.515 167.655 105.661C167.617 105.807 167.623 106.024 167.661 106.311L168.566 112.654Z" fill="white"/>
<path d="M183.014 111.247C183.059 111.24 183.09 111.259 183.097 111.317C183.11 111.374 183.09 111.406 183.046 111.412C182.778 111.463 182.504 111.501 182.224 111.54C181.937 111.572 181.663 111.616 181.402 111.667C181.109 111.724 180.854 111.775 180.643 111.839C180.433 111.896 180.191 111.954 179.923 111.998C179.885 112.005 179.866 111.979 179.853 111.928C179.84 111.871 179.853 111.845 179.891 111.833C180.344 111.75 180.605 111.629 180.682 111.463C180.758 111.304 180.65 111.03 180.369 110.642L176.259 105.037L176.578 104.292L175.055 111.017C174.921 111.622 174.985 112.043 175.246 112.272C175.507 112.501 175.928 112.565 176.508 112.457C176.552 112.45 176.584 112.469 176.59 112.527C176.603 112.584 176.584 112.616 176.54 112.622C176.265 112.673 176.011 112.712 175.775 112.737C175.539 112.762 175.252 112.807 174.902 112.871C174.564 112.934 174.29 112.992 174.086 113.049C173.882 113.106 173.634 113.164 173.34 113.215C173.302 113.221 173.283 113.196 173.27 113.145C173.258 113.087 173.27 113.055 173.309 113.049C173.557 113.004 173.761 112.915 173.927 112.782C174.092 112.648 174.239 112.438 174.36 112.151C174.481 111.864 174.602 111.463 174.711 110.947L176.38 103.636C176.387 103.604 176.412 103.585 176.469 103.572C176.527 103.56 176.559 103.566 176.578 103.604L181.16 109.807C181.465 110.215 181.72 110.533 181.931 110.756C182.141 110.979 182.332 111.126 182.504 111.189C182.676 111.253 182.842 111.279 183.014 111.247ZM175.482 108.247L175.628 107.89L178.47 107.362L178.623 107.661L175.482 108.247Z" fill="white"/>
<path d="M185.125 109.752L183.379 103.504C183.309 103.243 183.226 103.052 183.137 102.937C183.047 102.822 182.914 102.759 182.735 102.759C182.557 102.752 182.315 102.797 181.996 102.886C181.97 102.892 181.945 102.873 181.932 102.816C181.919 102.765 181.926 102.733 181.951 102.721C182.174 102.657 182.429 102.593 182.716 102.529C182.996 102.466 183.296 102.389 183.602 102.307C183.959 102.205 184.284 102.109 184.564 102.014C184.844 101.918 185.093 101.842 185.322 101.778C185.341 101.772 185.354 101.797 185.373 101.854C185.386 101.905 185.386 101.937 185.367 101.944C185.036 102.039 184.793 102.135 184.64 102.237C184.488 102.338 184.405 102.466 184.379 102.612C184.36 102.765 184.386 102.969 184.456 103.23L186.195 109.452C186.265 109.713 186.348 109.904 186.444 110.025C186.533 110.146 186.673 110.204 186.858 110.204C187.043 110.204 187.298 110.153 187.636 110.064C187.655 110.057 187.667 110.083 187.687 110.14C187.699 110.191 187.699 110.223 187.68 110.229C187.444 110.293 187.189 110.363 186.909 110.433C186.629 110.503 186.304 110.586 185.947 110.688C185.641 110.771 185.348 110.86 185.061 110.949C184.774 111.038 184.519 111.114 184.296 111.178C184.277 111.185 184.264 111.159 184.245 111.102C184.233 111.051 184.233 111.019 184.252 111.013C184.577 110.923 184.813 110.828 184.972 110.739C185.125 110.65 185.214 110.529 185.227 110.376C185.24 110.223 185.195 110.013 185.125 109.752ZM184.742 106.472L184.653 106.16L190.624 104.497L190.714 104.809L184.742 106.472ZM189.382 101.861C189.312 101.6 189.229 101.409 189.139 101.288C189.05 101.167 188.916 101.103 188.738 101.096C188.56 101.09 188.292 101.135 187.954 101.23C187.929 101.237 187.903 101.217 187.89 101.16C187.878 101.109 187.884 101.077 187.91 101.065C188.126 101.007 188.375 100.944 188.668 100.874C188.955 100.81 189.273 100.727 189.624 100.625C189.93 100.542 190.229 100.447 190.516 100.358C190.803 100.269 191.058 100.186 191.274 100.122C191.3 100.116 191.325 100.141 191.338 100.192C191.351 100.243 191.344 100.275 191.319 100.288C191 100.377 190.771 100.466 190.618 100.562C190.465 100.657 190.382 100.778 190.363 100.925C190.344 101.071 190.376 101.275 190.446 101.536L192.192 107.784C192.262 108.045 192.345 108.236 192.44 108.357C192.53 108.478 192.67 108.535 192.848 108.535C193.027 108.535 193.275 108.491 193.588 108.401C193.613 108.395 193.639 108.414 193.651 108.471C193.664 108.522 193.658 108.554 193.632 108.561C193.415 108.618 193.161 108.688 192.867 108.758C192.574 108.828 192.275 108.911 191.963 108.994C191.612 109.089 191.293 109.185 191.013 109.274C190.733 109.363 190.484 109.433 190.267 109.497C190.242 109.503 190.216 109.484 190.204 109.427C190.191 109.369 190.197 109.344 190.223 109.338C190.567 109.242 190.815 109.147 190.968 109.057C191.121 108.968 191.204 108.847 191.217 108.694C191.23 108.542 191.198 108.338 191.128 108.083L189.382 101.861Z" fill="white"/>
<path d="M22.0547 95.3047C22.0547 95.3047 27.5605 99.5654 31.639 100.54" stroke="white" stroke-width="0.581494" stroke-miterlimit="10"/>
<path d="M208.537 95.0781C208.537 95.0781 203.032 99.3388 198.953 100.313" stroke="white" stroke-width="0.581494" stroke-miterlimit="10"/>
<path d="M133.657 29.5195H50.4309L28.7891 46.763V48.8739H118.434V44.7633H115.854L133.657 29.5195ZM55.7199 43.2079L63.1913 36.0217L70.3818 43.2079H55.7199ZM74.8459 43.2079L82.3173 36.0217L89.5078 43.2079H74.8459ZM93.9719 43.2079L101.443 36.0217L108.634 43.2079H93.9719Z" fill="white"/>
<path d="M223.117 53.6083V51.5091L202.616 38.0195H155.898L163.949 44.7731H161.369L161.392 48.2171H160.21V53.5732L223.117 53.6083Z" fill="white"/>
</svg>
