<svg width="230" height="140" viewBox="0 0 230 140" fill="none" xmlns="http://www.w3.org/2000/svg">
<path d="M57.481 32.8624H50.7662C51.6896 33.2535 52.5726 33.7353 53.4021 34.3008C53.8409 34.6324 54.3579 34.8431 54.9022 34.9122C56.2381 34.9697 56.7167 33.6751 57.481 32.8408M57.2881 45.9166L47.0659 47.4342C46.9302 50.0594 46.1373 56.7843 46.573 63.7753C47.1088 72.6292 49.2161 80.4977 59.6383 80.6703V45.5066L58.8811 45.6433V42.2916C56.1309 42.493 53.5879 42.7663 50.7162 43.1115C50.7662 43.7804 50.8091 44.9456 50.8376 45.6361H57.2667C57.4596 45.6433 57.4739 45.8806 57.2881 45.9166ZM98.62 72.8665C105.435 71.7157 105.828 64.1349 106.228 58.4098C94.6769 60.1503 82.9974 59.2801 81.4972 48.3404C80.6972 43.8883 81.4972 36.1781 82.9974 28.2592C83.0688 27.8349 83.2474 27.3817 84.3332 27.3817H94.5911C94.8269 27.3817 95.6912 27.2163 95.5055 28.3815C94.3554 35.5235 93.1696 43.1619 93.9197 47.1752C95.3483 53.1306 100.806 53.1378 106.528 51.8C106.663 43.9236 106.219 36.0479 105.199 28.2376C105.199 27.9499 104.971 27.3746 105.978 27.3746H116.571C117.014 27.3746 117.536 27.3746 117.686 28.288C119 37.6381 119.5 50.3974 118.4 60.6538C117.3 70.9102 115.079 77.7358 103.549 79.7209C97.5057 80.7566 90.9051 79.7209 84.9761 78.3975C84.076 78.2033 83.8046 77.8365 83.7903 77.0237V72.5932C83.7903 71.5503 84.1903 71.1547 85.2618 71.3993C89.405 72.2048 94.8197 73.4995 98.62 72.8665ZM128.33 65.7748C129.815 74.4057 132.373 77.7142 141.459 79.3541C147.148 80.2917 152.96 80.1649 158.603 78.9801C159.496 78.7859 159.761 78.4191 159.789 77.6063V73.2118C159.789 72.1617 159.389 71.8164 158.318 72.0178C154.146 72.8306 148.353 73.931 144.609 72.0178C141.273 70.2485 140.652 65.3936 140.323 61.6176C139.866 56.0626 139.866 50.479 140.323 44.924C140.681 41.148 141.302 36.2931 144.609 34.5166C148.353 32.6106 154.146 33.7111 158.318 34.5166C159.389 34.7324 159.782 34.38 159.789 33.3371V28.9353C159.789 28.1154 159.496 27.7558 158.603 27.5616C152.96 26.3767 147.148 26.2499 141.459 27.1876C132.373 28.8274 129.815 32.1575 128.33 40.7668C127.029 49.0466 127.029 57.4806 128.33 65.7604V65.7748ZM200.421 65.7748C198.921 74.4057 196.364 77.7142 187.277 79.3541C181.588 80.2924 175.776 80.1656 170.133 78.9801C169.24 78.7859 168.969 78.4191 168.954 77.6063V73.2118C168.954 72.1617 169.347 71.8164 170.383 72.0178C174.555 72.8306 180.341 73.931 184.084 72.0178C188.463 69.6947 188.592 60.8192 188.713 56.1945H172.997C172.212 56.1945 172.019 55.8277 172.019 55.1229V50.1241C172.019 49.4481 172.276 49.2107 172.997 49.2107H188.713C188.556 44.7658 188.32 36.7391 184.127 34.5166C180.384 32.6106 174.598 33.7111 170.426 34.5166C169.354 34.7324 168.997 34.38 168.997 33.3371V28.9353C168.997 28.1154 169.283 27.7558 170.176 27.5616C175.819 26.376 181.631 26.2492 187.32 27.1876C196.406 28.8274 198.964 32.1575 200.464 40.7668C201.757 49.0472 201.757 57.4801 200.464 65.7604L200.421 65.7748ZM76.5405 106.101V111.754H77.5906C79.6836 111.754 80.8123 110.963 80.8123 108.676C80.8123 106.518 79.7836 106.101 77.8549 106.101H76.5405ZM76.5405 113.293V119.407C76.5468 119.443 76.5443 119.48 76.5332 119.516C76.5221 119.551 76.5028 119.583 76.4769 119.609C76.451 119.635 76.4192 119.654 76.3843 119.665C76.3494 119.677 76.3123 119.679 76.2762 119.673H74.476C74.44 119.677 74.4033 119.674 74.3689 119.662C74.3344 119.65 74.303 119.631 74.2769 119.605C74.2509 119.58 74.2308 119.549 74.2183 119.514C74.2058 119.48 74.2011 119.443 74.2046 119.407V104.806C74.2009 104.77 74.2054 104.733 74.218 104.699C74.2305 104.665 74.2507 104.634 74.2769 104.609C74.3032 104.584 74.3348 104.566 74.3693 104.555C74.4038 104.544 74.4404 104.541 74.476 104.547H78.4907C81.3052 104.547 83.1339 105.338 83.1339 108.568C83.1339 111.797 81.2266 113.293 78.1906 113.293H76.5405ZM134.052 106.101V111.754H135.074C137.174 111.754 138.31 110.963 138.31 108.676C138.31 106.518 137.274 106.101 135.352 106.101H134.052ZM134.052 113.293V119.407C134.052 119.586 133.959 119.673 133.774 119.673H131.988C131.802 119.673 131.709 119.586 131.709 119.407V104.806C131.709 104.633 131.802 104.547 131.988 104.547H136.002C138.817 104.547 140.646 105.338 140.646 108.568C140.646 111.797 138.738 113.293 135.702 113.293H134.052ZM88.3343 106.101V110.992H92.8418C93.0276 110.992 93.1275 111.078 93.1275 111.258V112.272C93.1275 112.444 93.0276 112.538 92.8418 112.538H88.3343V118.126H93.8276C94.0133 118.126 94.1062 118.213 94.1062 118.393V119.407C94.1062 119.586 94.0133 119.673 93.8276 119.673H86.2841C86.2478 119.679 86.2106 119.676 86.1754 119.665C86.1403 119.654 86.1082 119.634 86.0818 119.609C86.0555 119.583 86.0355 119.551 86.0234 119.516C86.0114 119.481 86.0077 119.443 86.0127 119.407V104.806C86.0127 104.633 86.1056 104.547 86.2841 104.547H93.8348C94.0205 104.547 94.1134 104.633 94.1134 104.806V105.827C94.1134 106 94.0205 106.094 93.8348 106.094L88.3343 106.101ZM97.7565 105.691C95.4563 108.33 95.3777 115.76 97.7565 118.508C99.4923 120.514 103.393 120.442 105.307 118.508C105.338 118.478 105.363 118.442 105.38 118.403C105.397 118.363 105.406 118.321 105.406 118.277C105.406 118.234 105.397 118.192 105.38 118.152C105.363 118.113 105.338 118.077 105.307 118.047L104.778 117.393C104.757 117.353 104.727 117.318 104.69 117.293C104.653 117.267 104.611 117.25 104.566 117.243C104.522 117.237 104.476 117.242 104.434 117.256C104.391 117.271 104.353 117.296 104.321 117.328C102.293 119.054 100.035 118.954 99.0352 116.055C98.3698 113.46 98.3698 110.738 99.0352 108.143C100.007 105.266 102.293 105.137 104.321 106.87C104.352 106.902 104.39 106.926 104.432 106.941C104.473 106.956 104.518 106.962 104.562 106.957C104.606 106.952 104.648 106.937 104.686 106.913C104.723 106.89 104.755 106.858 104.778 106.82L105.307 106.158C105.338 106.128 105.363 106.092 105.38 106.052C105.397 106.011 105.406 105.968 105.406 105.925C105.406 105.881 105.397 105.838 105.38 105.797C105.363 105.757 105.338 105.721 105.307 105.691C103.4 103.756 99.4995 103.691 97.7636 105.691H97.7565ZM113.201 106.101V119.414C113.201 119.594 113.115 119.68 112.929 119.68H111.165C110.979 119.68 110.893 119.594 110.893 119.414V106.101H107.486C107.3 106.101 107.2 106.007 107.2 105.835V104.813C107.2 104.641 107.3 104.554 107.486 104.554H116.629C116.815 104.554 116.908 104.641 116.908 104.813V105.835C116.908 106.007 116.815 106.101 116.629 106.101H113.201ZM121.023 108.151C120.74 109.447 120.617 110.773 120.658 112.099C120.613 113.435 120.721 114.773 120.98 116.084C121.851 119.248 125.223 119.32 126.109 116.084C126.368 114.773 126.476 113.435 126.43 112.099C126.475 110.773 126.352 109.446 126.066 108.151C125.173 104.964 121.937 104.964 121.03 108.151H121.023ZM119.923 118.601C118.744 117.285 118.137 115.12 118.137 112.128C118.137 109.563 118.572 107.609 119.444 106.266C121.208 103.569 125.873 103.569 127.645 106.266C128.516 107.604 128.952 109.558 128.952 112.128C128.952 115.149 128.357 117.307 127.166 118.601C125.452 120.5 121.651 120.5 119.93 118.601H119.923ZM146.296 107.719L144.617 113.631H147.982L146.296 107.719ZM144.189 115.178L143.024 119.414C142.998 119.501 142.942 119.575 142.866 119.624C142.79 119.673 142.699 119.693 142.61 119.68H140.753C140.431 119.68 140.446 119.435 140.488 119.306L145.096 104.799C145.117 104.724 145.164 104.658 145.228 104.614C145.291 104.569 145.369 104.548 145.446 104.554H147.16C147.237 104.55 147.312 104.572 147.375 104.616C147.437 104.66 147.482 104.725 147.503 104.799L152.118 119.306C152.161 119.435 152.168 119.68 151.847 119.68H149.996C149.768 119.68 149.632 119.594 149.589 119.414L148.418 115.178H144.189ZM162.597 119.68C162.412 119.68 162.326 119.594 162.326 119.414V112.588H156.883V119.414C156.888 119.451 156.884 119.488 156.872 119.523C156.86 119.558 156.84 119.59 156.814 119.616C156.787 119.642 156.755 119.661 156.72 119.672C156.685 119.683 156.648 119.686 156.611 119.68H154.811C154.775 119.686 154.737 119.683 154.702 119.672C154.667 119.661 154.635 119.642 154.609 119.616C154.582 119.59 154.562 119.558 154.55 119.523C154.538 119.488 154.535 119.451 154.54 119.414V104.813C154.54 104.641 154.633 104.554 154.811 104.554H156.611C156.79 104.554 156.883 104.641 156.883 104.813V111.042H162.305V104.813C162.305 104.641 162.39 104.554 162.576 104.554H164.369C164.555 104.554 164.64 104.641 164.64 104.813V119.414C164.64 119.594 164.555 119.68 164.369 119.68H162.597ZM51.1234 16.8233C50.409 16.9528 49.6018 17.1541 48.9803 17.334C49.0136 16.8961 48.8921 16.4605 48.6375 16.1041C48.4039 15.7961 48.1001 15.5494 47.7517 15.3848C47.4374 15.205 47.0373 14.9461 47.0373 14.6656H48.3446C48.9853 14.6162 49.6246 14.7777 50.1661 15.1259C50.4424 15.318 50.6719 15.5704 50.8377 15.8643C51.0034 16.1582 51.1011 16.486 51.1234 16.8233ZM61.7385 16.7298C63.8815 16.9096 65.5674 18.5423 65.4245 20.3979C65.3801 20.9424 65.1846 21.4633 64.8602 21.9011C63.4315 21.9874 62.0147 22.0234 60.6098 22.009C60.8884 20.5705 59.6883 18.6646 58.1454 18.2042C58.5765 17.6778 59.13 17.2665 59.7568 17.0068C60.3835 16.7471 61.0642 16.647 61.7385 16.7154V16.7298ZM54.4736 17.5929C56.6167 17.5929 58.424 18.9882 58.424 20.7216C58.4234 21.1548 58.3127 21.5807 58.1025 21.9587C55.5558 21.8655 53.0221 21.5478 50.5305 21.0093C50.5305 20.9158 50.5305 20.8151 50.5305 20.7216C50.5305 18.9882 52.302 17.5929 54.4808 17.5929H54.4736ZM68.9891 16.3486C71.1321 16.4709 72.8394 18.0388 72.8394 19.8513C72.8404 20.1439 72.797 20.4349 72.7108 20.7144C71.0166 21.1802 69.2866 21.5026 67.539 21.6782C67.6354 20.916 67.4991 20.1424 67.1482 19.4602C66.7973 18.7779 66.2484 18.2195 65.5745 17.859C65.9627 17.3277 66.4819 16.9075 67.0807 16.6401C67.6796 16.3727 68.3374 16.2673 68.9891 16.3342V16.3486ZM77.4255 93.3793C70.282 93.0196 64.7888 91.4661 61.4671 85.2662C62.1814 90.3656 64.3244 95.3716 68.8962 98.0543L77.4255 93.3793ZM76.4611 19.1608C78.3184 19.7938 79.3685 20.5202 79.3685 21.3185C79.3685 22.1169 78.347 22.793 76.5111 23.4187C76.522 23.3231 76.522 23.2266 76.5111 23.131C76.4585 22.7579 76.3191 22.4025 76.1044 22.0939C75.8896 21.7852 75.6056 21.5318 75.2753 21.3545L74.1466 24.0876C63.8244 26.4252 42.7155 26.4755 32.3647 24.0157C32.3647 22.9368 32.3647 21.858 32.3647 20.7863C31.4932 21.2394 30.0717 22.1313 30.2931 23.318C29.5319 23.0846 28.8096 22.7379 28.1501 22.2895C27.0643 21.4984 27.3929 20.7 28.4287 20.0383C29.6618 19.3688 30.9854 18.8841 32.3576 18.5998C32.3576 17.0822 32.3576 15.5646 32.3576 14.0326C32.3576 10.2279 35.2578 10.6234 35.2578 6.23607V1.25173C35.2576 1.18855 35.281 1.12758 35.3233 1.08095C35.3657 1.03431 35.4239 1.00542 35.4864 1H38.0866C38.1529 1 38.2165 1.02652 38.2634 1.07373C38.3103 1.12094 38.3366 1.18497 38.3366 1.25173V2.1364C38.3366 2.20316 38.3103 2.26719 38.2634 2.3144C38.2165 2.36161 38.1529 2.38813 38.0866 2.38813H37.0008C36.3936 2.38813 36.2865 2.67583 36.2865 3.32315V7.36528C36.3405 8.41564 36.1135 9.46136 35.6293 10.3933C34.8006 11.5872 34.8435 12.8747 36.6008 12.8747H38.7009V20.6209C39.4321 20.0201 40.008 19.2502 40.3796 18.3769C40.9916 17.0021 41.301 15.5103 41.2869 14.0039C41.2869 11.2636 39.7867 10.7026 38.951 8.96919C39.6653 7.7249 40.894 7.0632 40.894 4.43078V1.35243C40.894 1.28376 40.9211 1.2179 40.9693 1.16934C41.0175 1.12078 41.0829 1.0935 41.1511 1.0935H43.3656C43.4326 1.09537 43.4961 1.12348 43.5428 1.17184C43.5895 1.22019 43.6156 1.28498 43.6156 1.35243V4.42359C43.5555 5.71743 43.993 6.98482 44.8371 7.96225C45.6813 6.98482 46.1187 5.71743 46.0587 4.42359V1.35243C46.0566 1.28801 46.0792 1.22525 46.1217 1.17708C46.1642 1.12891 46.2235 1.09899 46.2873 1.0935H48.5017C48.5687 1.09537 48.6323 1.12348 48.679 1.17184C48.7257 1.22019 48.7518 1.28498 48.7517 1.35243V4.42359C48.7517 7.95506 50.8948 7.94786 51.2377 10.5156H55.7523C55.8205 10.5156 55.8859 10.5428 55.9342 10.5914C55.9824 10.6399 56.0095 10.7058 56.0095 10.7745V12.5078C56.0113 12.5676 56.0362 12.6243 56.0789 12.666C56.1216 12.7076 56.1787 12.7308 56.2381 12.7308C56.8564 12.7277 57.4669 12.8698 58.0212 13.1457C58.5754 13.4216 59.0582 13.8238 59.4312 14.3203C59.7683 14.815 59.9793 15.3856 60.0455 15.9818L58.1454 16.0321C58.0923 15.5642 57.8769 15.1302 57.5371 14.8065C57.1974 14.4828 56.755 14.2903 56.2881 14.2628C56.1166 14.2268 55.988 14.3203 55.9952 14.4786V16.176C54.988 16.2551 53.9807 16.3558 52.9735 16.4996C52.9266 15.8713 52.7119 15.2674 52.352 14.7519C52.036 14.3252 51.6353 13.9693 51.1753 13.7068C50.7154 13.4443 50.2063 13.281 49.6804 13.2271C49.6211 13.22 49.5664 13.1912 49.5268 13.146C49.4873 13.1009 49.4657 13.0427 49.4661 12.9825V10.7745C49.4661 10.707 49.44 10.6422 49.3933 10.5939C49.3466 10.5455 49.283 10.5174 49.2161 10.5156H42.987C42.9536 10.5155 42.9205 10.5223 42.8896 10.5354C42.8588 10.5485 42.8309 10.5677 42.8076 10.5918C42.7843 10.616 42.7661 10.6446 42.7539 10.6759C42.7418 10.7073 42.736 10.7408 42.737 10.7745V16.0249C42.737 20.6065 44.6443 23.9366 48.5017 24.4544L46.223 20.4195C48.916 22.5772 57.7596 22.9872 61.0956 22.9872C67.7818 22.9872 73.4752 22.0234 75.6253 20.664C75.6253 20.664 76.7897 19.9664 76.4611 19.1608ZM160.425 91.9767C174.076 91.1137 187.67 89.7687 201.185 87.8555H201.235C201.349 87.8421 201.458 87.8064 201.557 87.7503C201.657 87.6942 201.744 87.6188 201.815 87.5286C201.885 87.4383 201.937 87.335 201.967 87.2245C201.998 87.1139 202.007 86.9984 201.993 86.8845C201.966 86.652 201.848 86.4396 201.666 86.294C201.484 86.1484 201.252 86.0814 201.021 86.1077C187.799 87.7045 174.162 88.7689 160.304 89.4378C132.537 90.7612 104.235 90.6677 76.454 89.3084L73.9181 89.1717V61.7758C70.9821 60.9127 67.1532 61.8693 64.3244 63.2862C63.3078 62.9678 62.2455 62.8219 61.1813 62.8547V78.3112C61.2528 84.396 64.753 88.6035 69.8249 90.603C72.3822 91.5452 76.1039 91.7969 77.6398 91.9048C105.209 93.5866 132.854 93.6034 160.425 91.9552V91.9767ZM35.9079 86.1077C35.7905 86.0869 35.6702 86.0904 35.5543 86.1182C35.4384 86.1459 35.3294 86.1974 35.234 86.2692C35.1386 86.3411 35.0589 86.4319 34.9997 86.536C34.9405 86.6401 34.9032 86.7553 34.89 86.8745C34.8768 86.9937 34.888 87.1144 34.9229 87.2291C34.9578 87.3438 35.0157 87.45 35.0931 87.5413C35.1704 87.6325 35.2655 87.7069 35.3724 87.7597C35.4794 87.8125 35.596 87.8426 35.715 87.8483H35.7721C42.5584 88.7402 49.347 89.5193 56.1381 90.1858V94.9113H63.3672C60.8027 91.2216 59.8312 86.5681 59.6526 82.1303H56.1381V88.0281C49.3089 87.4959 42.5655 86.8581 35.9079 86.1149V86.1077ZM35.9079 138.979C35.6783 139.002 35.4491 138.933 35.2691 138.788C35.089 138.643 34.9722 138.433 34.9435 138.202C34.9195 137.972 34.9871 137.741 35.1317 137.56C35.2763 137.38 35.486 137.264 35.715 137.239H35.7721C49.6447 135.397 63.541 134.05 77.4612 133.196C91.3814 132.343 105.323 131.911 119.286 131.902C133.044 131.902 146.774 132.261 160.425 133.125C174.076 133.988 187.67 135.333 201.185 137.253H201.235C201.349 137.265 201.459 137.301 201.559 137.356C201.659 137.412 201.746 137.488 201.817 137.578C201.888 137.668 201.939 137.772 201.97 137.883C202 137.994 202.008 138.11 201.993 138.224C201.979 138.339 201.944 138.45 201.888 138.551C201.831 138.652 201.756 138.741 201.666 138.812C201.576 138.884 201.472 138.937 201.361 138.968C201.251 138.999 201.135 139.008 201.021 138.994C187.799 137.397 174.162 136.332 160.304 135.671C146.445 135.009 132.358 134.743 118.3 134.779C104.242 134.815 90.2765 135.124 76.454 135.8C62.6314 136.476 49.0803 137.497 35.9079 138.979ZM80.0614 22.944L78.197 32.1143C78.1669 32.3234 78.0598 32.5134 77.8971 32.6466C77.7343 32.7799 77.5277 32.8466 77.3183 32.8336H63.5029C62.4743 32.8336 61.8457 32.7329 60.9456 33.3946C60.5443 33.7201 60.2298 34.141 60.0303 34.6194C59.8308 35.0977 59.7525 35.6185 59.8026 36.1349C59.8026 37.5734 60.2741 38.5587 59.5169 39.9541C58.4954 41.8241 56.2095 41.6874 53.8022 41.6299C53.1235 37.336 47.716 32.8624 43.4299 32.8624H29.6788C29.5688 32.8712 29.4581 32.8578 29.3533 32.8229C29.2485 32.7881 29.1517 32.7325 29.0685 32.6595C28.9854 32.5865 28.9175 32.4974 28.869 32.3977C28.8204 32.2979 28.7922 32.1893 28.7859 32.0784L27 23.2389C29.143 25.5693 39.8582 26.943 53.4307 26.943C67.0032 26.943 78.5613 25.4542 80.0471 22.944H80.0614Z" fill="white"/>
</svg>
