<svg width="302" height="205" viewBox="0 0 302 205" fill="none" xmlns="http://www.w3.org/2000/svg">
<g clip-path="url(#clip0_2001_1696)">
<path d="M131.28 151.911C131.17 155.321 131 158.191 130.74 160.391C129.32 170.681 119.74 170.391 117.51 170.151C117.51 171.091 118.31 171.631 119.98 171.631C126.12 171.371 132.257 171.227 138.39 171.201C144.29 171.201 150.18 171.317 156.06 171.551C157.74 171.551 158.5 171.071 158.5 170.311C158.5 170.201 158.5 170.001 158.45 170.011C151.32 170.711 145.24 167.861 144.45 160.391C144.26 158.741 144.11 156.701 144 154.391L143.69 63.8707C143.659 63.4668 143.763 63.0641 143.986 62.7257C144.208 62.3873 144.537 62.1323 144.92 62.0007C148.845 60.8802 152.92 60.3775 157 60.5107C163.64 60.5275 170.198 61.9736 176.23 64.7507C185.5 69.2207 192.03 78.1507 193.11 87.6707C193.805 93.5319 192.285 99.4413 188.85 104.241C186.761 107.184 184.063 109.643 180.94 111.451C211.94 98.8807 206.74 52.0207 157.05 55.3807C143.11 56.3207 134.37 58.3307 120.67 56.2107C118.99 56.2107 118.23 56.5107 118.23 57.4307C118.07 57.7007 130.8 57.6007 131.23 67.5007C131.37 69.6307 131.45 71.6507 131.48 75.2407C131.79 100.671 132.16 126.511 131.32 151.911M153 115.581C157.82 117.501 161.05 120.711 164.11 124.501C168.11 129.501 171.96 134.691 175.93 139.741C181.755 147.328 187.966 154.611 194.54 161.561C181 166.431 168.05 172.451 155 178.191C128 190.111 99.9998 201.651 70.4398 202.251C62.3639 202.468 54.2945 201.621 46.4398 199.731C20.6098 193.331 2.58984 175.121 3.63984 150.511C3.80136 149.018 4.07887 147.54 4.46984 146.091C4.55851 145.756 4.54133 145.401 4.42068 145.076C4.30002 144.751 4.08179 144.472 3.79591 144.276C3.51004 144.079 3.17051 143.977 2.82389 143.981C2.47727 143.986 2.14053 144.097 1.85984 144.301C0.629844 145.211 0.919844 147.521 0.959844 148.801C1.56984 171.481 20.2298 194.321 45.5298 201.331C68.2998 207.651 95.2898 204.331 121.81 197.601C136.44 193.881 151.45 188.331 166.62 182.671C178.49 178.251 190.55 173.531 202.81 169.591C214.49 180.001 227.62 188.001 243.1 190.671C252.26 192.251 262.1 191.721 268.91 187.841C271.171 186.571 273.148 184.853 274.72 182.791C275.922 181.189 276.775 179.353 277.225 177.402C277.674 175.451 277.71 173.427 277.33 171.461C276.716 168.356 275.299 165.466 273.22 163.081C268.22 157.231 259.02 153.481 250.84 152.411C241.06 151.131 230.43 152.091 219.91 154.251C215.91 155.071 212.03 156.041 208.17 157.131C199.31 147.071 188.49 133.541 180.5 125.411C172.21 117.001 161.81 116.331 153 115.581ZM265 188.161C246.61 193.641 227.23 176.091 216.73 166.221L216.15 165.671C218.23 165.131 220.32 164.671 222.4 164.141C233.93 161.521 245.67 160.231 256.4 162.061C261.98 163.061 268.07 165.161 271.62 169.161C273.181 170.87 274.186 173.012 274.504 175.304C274.822 177.597 274.437 179.932 273.4 182.001C271.6 185.441 268.59 187.101 265.03 188.161H265ZM205.33 9.22071C205.22 9.22071 205.11 9.22071 204.67 9.80071L196.3 20.0007C195.63 20.8207 195.01 21.4007 194.1 21.2107C193.908 21.1821 193.72 21.1318 193.54 21.0607C193.41 21.0607 193.36 21.0607 193.33 21.1107C193.3 21.1607 193.39 21.3007 193.64 21.3907C194.52 21.7007 195.58 22.0107 195.78 22.0807C195.98 22.1507 196.78 22.4907 197.23 22.6507C197.39 22.7107 197.52 22.7107 197.56 22.5907C197.6 22.4707 197.56 22.4707 197.41 22.4207L197.23 22.3507C196.91 22.2407 196.57 21.9307 196.7 21.5607C196.87 21.1339 197.11 20.7384 197.41 20.3907L199.71 17.4707C199.733 17.4321 199.768 17.4023 199.809 17.386C199.851 17.3696 199.897 17.3678 199.94 17.3807L203.94 18.8007C203.978 18.8099 204.011 18.8317 204.035 18.8627C204.059 18.8936 204.071 18.9318 204.07 18.9707L204.19 24.2007C204.193 24.2901 204.176 24.3791 204.14 24.4607C204.08 24.6307 203.94 24.6907 203.9 24.6707C203.864 24.6628 203.827 24.6675 203.794 24.6839C203.761 24.7002 203.735 24.7274 203.72 24.7607C203.72 24.8707 203.89 24.9407 204.24 25.0907C205.52 25.5807 206.89 26.0907 207.17 26.1707H207.37C207.474 26.2624 207.592 26.3367 207.72 26.3907L208.85 26.9207C209.48 27.2998 210.205 27.4907 210.94 27.4707C212.277 27.1091 213.54 26.5133 214.67 25.7107L217.43 24.0007L219.52 24.9307C219.61 24.9807 219.62 25.0407 219.58 25.1407L219.37 25.5707C218.56 27.3007 217.9 28.7207 217.45 29.4407C217.15 29.9307 216.86 30.2807 216.28 30.1007C216 30.0107 215.72 29.9107 215.44 29.7907C215.408 29.7769 215.374 29.7698 215.34 29.7698C215.305 29.7698 215.271 29.7769 215.24 29.7907C215.24 29.7907 215.24 29.9807 215.46 30.0707C216.46 30.5407 217.62 31.0107 217.71 31.0707C217.8 31.1307 218.83 31.6707 219.37 31.9307C219.57 32.0207 219.68 32.0207 219.73 31.9307C219.78 31.8407 219.73 31.8107 219.64 31.7607C219.46 31.6661 219.29 31.5556 219.13 31.4307C218.8 31.1907 218.9 30.7507 219.07 30.2007C219.34 29.3907 220 27.9707 220.81 26.2007L222.34 23.0007C223.66 20.1907 223.89 19.6907 224.2 19.1307C224.51 18.5707 224.8 18.3107 225.46 18.4707C225.678 18.5219 225.89 18.5991 226.09 18.7007H226.29C226.29 18.7007 226.29 18.5107 226.07 18.4207C225.26 18.0407 224.07 17.5607 224.01 17.5207C223.95 17.4807 222.29 16.5207 221.73 16.2807C219.59 15.2807 216.61 15.1507 215.26 18.0307C214.973 18.774 214.89 19.5806 215.02 20.3667C215.15 21.1528 215.488 21.8897 216 22.5007C216 22.5807 216.27 22.8407 216.34 22.9207C216.11 22.7207 216.02 22.8607 215.93 22.9207C214.384 24.0963 212.734 25.1273 211 26.0007C210.578 26.2333 210.113 26.378 209.633 26.4261C209.154 26.4742 208.67 26.4248 208.21 26.2807C208.024 26.2389 207.843 26.1786 207.67 26.1007C207.67 26.0407 207.59 26.0107 207.51 25.9907C207.256 25.8982 207.017 25.7702 206.8 25.6107C206.44 25.3607 206.01 24.8607 205.92 22.9607C205.78 19.7007 205.56 10.9607 205.53 10.1007C205.5 9.24071 205.45 9.26071 205.33 9.22071ZM174.3 111.001C172.898 111.672 171.353 111.991 169.8 111.931C161.87 111.931 153.58 106.201 153.58 95.0007C153.58 84.5507 159.89 80.8907 167.38 80.8907C168.255 80.8787 169.129 80.9155 170 81.0007C172.261 81.1699 174.442 81.9096 176.34 83.1507C177.125 83.6911 177.767 84.4157 178.208 85.2612C178.649 86.1066 178.876 87.0472 178.87 88.0007C178.902 88.0107 178.937 88.0107 178.97 88.0007C179.28 88.0007 179.41 87.7707 179.41 87.0707C179.41 82.6607 179.68 81.4207 179.68 80.8107C179.68 80.6307 179.59 80.4107 179.15 80.4107C177.43 80.4107 172.63 79.2207 168.83 79.2207C155.7 79.2207 148.95 87.3307 148.62 95.7007C148.28 104.601 155.21 113.791 169.5 113.791C172.294 113.86 175.08 113.44 177.73 112.551C179.17 111.981 179.34 111.791 179.33 110.291V96.6207C176.95 96.7007 174.46 96.6207 172.06 96.6207C171.57 96.6207 171.32 96.7607 171.32 97.0207C173.03 97.1807 175.19 96.8207 175.19 101.901V108.531C175.19 109.501 175.28 110.451 174.3 111.001ZM98.8598 87.6407L121.6 111.001C123.94 113.341 124.46 113.831 124.82 113.831C125.18 113.831 125.21 113.611 125.21 110.691L125.3 84.8507V81.4407C125.3 80.4407 125.3 80.3407 124.7 80.3007H123.86C122.73 80.3007 120.29 80.1707 118.7 80.1707C118.17 80.1707 117.7 80.1107 117.78 80.7307C119.33 80.5607 121.44 80.8407 121.89 82.5607C122.078 83.4445 122.162 84.3474 122.14 85.2507L122.67 106.121L98.5798 81.0007C98.1398 80.5507 97.3898 79.5907 97.0398 79.5907C96.6898 79.5907 96.5898 79.9807 96.5598 81.3207V112.861C96.5598 113.381 96.6498 113.471 97.0898 113.441C97.8123 113.391 98.5374 113.391 99.2598 113.441C100.1 113.441 101.37 113.531 102.92 113.531C103.44 113.531 103.71 113.441 103.71 113.171V113.001C103.28 112.801 100.64 113.451 99.8998 111.301C99.5789 110.067 99.4309 108.795 99.4598 107.521L98.8598 87.6407ZM296.72 121.861C296.494 121.859 296.273 121.924 296.085 122.047C295.896 122.171 295.749 122.348 295.661 122.555C295.572 122.763 295.548 122.992 295.59 123.213C295.632 123.435 295.739 123.639 295.897 123.8C296.055 123.96 296.257 124.071 296.478 124.117C296.698 124.163 296.928 124.142 297.137 124.058C297.346 123.973 297.525 123.829 297.652 123.642C297.779 123.456 297.848 123.236 297.85 123.011C297.851 122.861 297.823 122.713 297.767 122.574C297.711 122.435 297.628 122.308 297.523 122.202C297.418 122.095 297.293 122.01 297.155 121.951C297.018 121.893 296.87 121.862 296.72 121.861ZM235 31.5307C234.776 31.5307 234.558 31.597 234.372 31.7211C234.186 31.8453 234.041 32.0218 233.956 32.2283C233.87 32.4348 233.848 32.662 233.892 32.8812C233.935 33.1004 234.043 33.3017 234.201 33.4597C234.359 33.6178 234.56 33.7254 234.779 33.769C234.999 33.8126 235.226 33.7902 235.432 33.7047C235.639 33.6192 235.815 33.4743 235.939 33.2885C236.064 33.1027 236.13 32.8842 236.13 32.6607C236.127 32.3618 236.007 32.0759 235.796 31.8646C235.585 31.6532 235.299 31.5333 235 31.5307ZM55.0698 40.2507C54.8464 40.2507 54.6279 40.317 54.4421 40.4412C54.2562 40.5653 54.1114 40.7418 54.0259 40.9483C53.9403 41.1548 53.918 41.382 53.9616 41.6012C54.0052 41.8204 54.1128 42.0217 54.2708 42.1797C54.4288 42.3378 54.6302 42.4454 54.8494 42.489C55.0686 42.5326 55.2958 42.5102 55.5023 42.4247C55.7088 42.3392 55.8852 42.1943 56.0094 42.0085C56.1336 41.8227 56.1998 41.6042 56.1998 41.3807C56.1972 41.0818 56.0773 40.7959 55.866 40.5846C55.6546 40.3732 55.3687 40.2533 55.0698 40.2507ZM4.50984 120.781C4.28635 120.781 4.06788 120.847 3.88205 120.971C3.69622 121.095 3.55139 121.272 3.46586 121.478C3.38033 121.685 3.35796 121.912 3.40156 122.131C3.44516 122.35 3.55278 122.552 3.71081 122.71C3.86885 122.868 4.07019 122.975 4.28939 123.019C4.50859 123.063 4.7358 123.04 4.94228 122.955C5.14876 122.869 5.32524 122.724 5.4494 122.539C5.57357 122.353 5.63984 122.134 5.63984 121.911C5.63723 121.612 5.51734 121.326 5.30599 121.115C5.09464 120.903 4.80873 120.783 4.50984 120.781ZM292 105.231C292 105.171 292 105.121 292.12 105.131L297.77 105.231C297.859 105.223 297.948 105.248 298.02 105.301C298.02 105.361 298.02 105.421 297.86 105.521L293.27 108.901C293.2 108.901 293.14 108.961 293.11 108.901L292 105.231ZM301 104.751C301 104.631 300.83 104.591 300.13 104.561L287 103.851C285.95 103.851 285.11 103.641 284.72 102.851C284.66 102.701 284.56 102.441 284.52 102.311C284.48 102.181 284.43 102.141 284.35 102.171C284.27 102.201 284.23 102.331 284.35 102.571C284.62 103.471 285 104.501 285.06 104.711C285.12 104.921 285.32 105.711 285.46 106.221C285.51 106.391 285.58 106.491 285.7 106.451C285.82 106.411 285.8 106.361 285.76 106.231L285.7 106.041C285.6 105.711 285.65 105.261 286.03 105.141C286.471 105.031 286.926 104.991 287.38 105.021L291.1 105.131C291.146 105.13 291.191 105.145 291.229 105.172C291.267 105.199 291.295 105.237 291.31 105.281L292.56 109.371C292.575 109.406 292.578 109.445 292.567 109.482C292.556 109.519 292.532 109.55 292.5 109.571L288.36 112.771C288.296 112.832 288.216 112.874 288.13 112.891C288.075 112.909 288.017 112.912 287.96 112.9C287.904 112.887 287.852 112.86 287.81 112.821C287.801 112.788 287.778 112.76 287.748 112.743C287.718 112.726 287.683 112.721 287.65 112.731C287.54 112.731 287.6 112.971 287.65 113.341C288.01 114.661 288.44 116.061 288.52 116.341C288.6 116.621 288.68 116.711 288.8 116.671C288.92 116.631 288.89 116.561 288.85 116.451C288.77 116.192 288.73 115.922 288.73 115.651C288.73 115.221 288.86 114.571 290.34 113.371L300.46 105.431C301.06 104.931 301 104.861 301 104.751ZM291.4 95.8807C294.26 94.6607 294.77 94.4407 295.4 94.2307C296.03 94.0207 296.4 94.0107 296.73 94.4707C296.823 94.6083 296.906 94.7519 296.98 94.9007C296.983 94.9191 296.99 94.9366 297.001 94.952C297.012 94.9674 297.026 94.9803 297.042 94.9898C297.058 94.9993 297.076 95.0051 297.095 95.007C297.113 95.0089 297.132 95.0068 297.15 95.0007C297.23 95.0007 297.26 94.8507 297.15 94.6507C296.92 94.1007 296.79 93.8007 296.33 92.8807L292.33 83.3507C292.33 83.2607 291.86 82.0807 291.51 81.2607C291.42 81.0607 291.35 80.9807 291.24 81.0207C291.208 81.0413 291.184 81.0736 291.175 81.1108C291.166 81.1479 291.171 81.1873 291.19 81.2207C291.279 81.4272 291.349 81.6414 291.4 81.8607C291.52 82.5207 291.3 82.7907 290.69 83.0907C290.08 83.3907 289.61 83.6007 286.75 84.8107L283.52 86.1807C281.77 86.9307 280.32 87.5407 279.52 87.7707C278.96 87.9307 278.52 88.0107 278.29 87.6707C278.171 87.5069 278.068 87.3329 277.98 87.1507C277.98 87.0407 277.86 87.0307 277.81 87.0507C277.76 87.0707 277.7 87.2107 277.81 87.4107C278.04 87.9607 278.59 89.0907 278.63 89.1807C278.67 89.2707 279.1 90.4507 279.53 91.4607C279.62 91.6607 279.71 91.7307 279.81 91.6807C279.91 91.6307 279.9 91.6007 279.81 91.4907C279.71 91.2107 279.62 90.9307 279.54 90.6407C279.37 90.0607 279.73 89.7807 280.24 89.5007C280.97 89.0807 282.42 88.5007 284.18 87.7207L291.85 84.4607C291.95 84.4607 291.98 84.4607 292.01 84.5207L295.3 92.2907C295.307 92.3051 295.31 92.3208 295.311 92.3366C295.311 92.3525 295.309 92.3684 295.303 92.3833C295.298 92.3981 295.289 92.4118 295.278 92.4234C295.267 92.4349 295.254 92.4442 295.24 92.4507L287.57 95.7007C285.81 96.4507 284.36 97.0607 283.57 97.3007C283.01 97.4507 282.57 97.5307 282.34 97.2007C282.221 97.0369 282.118 96.8629 282.03 96.6807C281.98 96.5707 281.91 96.5607 281.86 96.5807C281.81 96.6007 281.75 96.7407 281.86 96.9307C282.09 97.4907 282.64 98.6107 282.68 98.7107C282.72 98.8107 283.15 99.9807 283.58 100.991C283.66 101.181 283.75 101.251 283.85 101.211C283.95 101.171 283.94 101.131 283.85 101.021C283.742 100.743 283.648 100.459 283.57 100.171C283.41 99.5807 283.76 99.3107 284.28 99.0207C285.01 98.6107 286.45 98.0207 288.21 97.2407L291.4 95.8807ZM282.75 78.1407C285.39 76.5007 285.86 76.2007 286.42 75.9007C286.98 75.6007 287.42 75.5207 287.77 75.9007C287.887 76.0192 287.991 76.1499 288.08 76.2907C288.08 76.3607 288.21 76.4107 288.27 76.3607C288.33 76.3107 288.35 76.2007 288.27 76.0107C287.95 75.5007 287.78 75.2307 287.19 74.3907L281.7 65.6107C281.65 65.5307 281.03 64.4307 280.56 63.6707C280.44 63.4907 280.36 63.4307 280.26 63.4907C280.237 63.5149 280.224 63.5472 280.224 63.5807C280.224 63.6143 280.237 63.6465 280.26 63.6707C280.38 63.8637 280.48 64.068 280.56 64.2807C280.8 64.9107 280.56 65.2207 280.06 65.6107C279.56 66.0007 279.06 66.2807 276.43 67.9207L273.43 69.7807C271.81 70.7807 270.43 71.6207 269.72 71.9807C269.19 72.2207 268.72 72.3707 268.48 72.0707C268.337 71.9278 268.21 71.7702 268.1 71.6007C268.04 71.5007 267.96 71.5007 267.92 71.5307C267.885 71.5843 267.866 71.6468 267.866 71.7107C267.866 71.7746 267.885 71.8371 267.92 71.8907C268.24 72.4007 268.92 73.4207 269.01 73.5107C269.1 73.6007 269.68 74.6907 270.26 75.6207C270.37 75.8007 270.48 75.8607 270.56 75.8007C270.64 75.7407 270.64 75.7107 270.56 75.6007C270.408 75.3419 270.272 75.0748 270.15 74.8007C269.9 74.2607 270.21 73.9207 270.67 73.5607C271.33 73.0407 272.67 72.2107 274.28 71.1907L281.35 66.7807C281.37 66.7645 281.394 66.7556 281.42 66.7556C281.445 66.7556 281.47 66.7645 281.49 66.7807L286 74.0007C286.02 74.0227 286.03 74.0512 286.03 74.0807C286.03 74.1102 286.02 74.1387 286 74.1607L278.93 78.5807C277.31 79.5807 275.93 80.4307 275.21 80.7807C274.68 81.0207 274.26 81.1707 273.98 80.8807C273.837 80.7378 273.71 80.5802 273.6 80.4107C273.53 80.3107 273.46 80.3107 273.41 80.3407C273.36 80.3707 273.33 80.5107 273.41 80.7007C273.73 81.2007 274.41 82.2307 274.5 82.3207C274.59 82.4107 275.16 83.5007 275.74 84.4307C275.85 84.6107 275.96 84.6607 276.05 84.6107C276.14 84.5607 276.13 84.5107 276.05 84.4107C275.899 84.1514 275.763 83.8843 275.64 83.6107C275.39 83.0607 275.69 82.7307 276.15 82.3707C276.81 81.8407 278.15 81.0107 279.76 80.0007L282.75 78.1407ZM263.39 64.2807C261.97 64.7607 260.96 65.0407 260.33 64.2807C259.7 63.5207 260.16 62.6507 260.97 61.9707C261.2 61.7807 261.26 61.7307 261.17 61.6207C261.08 61.5107 261.11 61.5507 260.93 61.6207C260.23 62.078 259.561 62.5825 258.93 63.1307C258.852 63.1969 258.793 63.2829 258.759 63.3796C258.726 63.4764 258.719 63.5804 258.74 63.6807C258.856 64.1615 259.074 64.6117 259.38 65.0007C260.06 65.8107 261.46 65.8707 263.23 65.3007L275.48 61.3907C276.89 60.9407 277.35 60.9907 277.66 61.0907C277.976 61.2047 278.253 61.4057 278.46 61.6707C278.56 61.7907 278.64 61.8207 278.72 61.7607C278.8 61.7007 278.72 61.6007 278.62 61.4307C278.25 60.9807 277.62 60.3707 277.62 60.2807C277.253 59.7432 276.848 59.232 276.41 58.7507C276.21 58.5007 276.1 58.4407 275.99 58.5007C275.88 58.5607 275.99 58.6507 275.99 58.7407C276.162 58.9293 276.307 59.1414 276.42 59.3707C276.439 59.4616 276.43 59.556 276.394 59.6417C276.358 59.7273 276.298 59.8002 276.22 59.8507L275.31 60.2207C273.77 60.8407 268.01 62.8207 265.16 63.7507L269.55 54.2207C269.758 53.7193 270.049 53.2562 270.41 52.8507C270.472 52.7921 270.552 52.7554 270.636 52.7464C270.721 52.7374 270.807 52.7564 270.88 52.8007C271.096 52.9355 271.285 53.1083 271.44 53.3107C271.53 53.4207 271.6 53.4407 271.67 53.3707C271.74 53.3007 271.67 53.1507 271.43 52.8707C270.95 52.3007 270.33 51.6507 270.2 51.4907C270.07 51.3307 269.36 50.4107 268.75 49.6707C268.54 49.4307 268.4 49.2907 268.31 49.3707C268.22 49.4507 268.23 49.4807 268.31 49.5807C268.482 49.7693 268.627 49.9814 268.74 50.2107C269.03 50.8707 268.96 51.2107 268.49 52.2907L263.39 64.2807ZM254.62 49.0707C253.659 50.1323 252.633 51.1341 251.55 52.0707C251.09 52.4307 250.72 52.6807 250.37 52.4607C250.202 52.3521 250.041 52.2318 249.89 52.1007C249.8 52.0207 249.73 52.0307 249.69 52.1007C249.65 52.1707 249.69 52.2807 249.81 52.4307C250.24 52.8507 251.19 53.6807 251.23 53.7207C251.27 53.7607 252.16 54.7207 252.94 55.4707C253.1 55.6107 253.22 55.6407 253.29 55.5707C253.36 55.5007 253.34 55.4507 253.29 55.3707C253.08 55.1556 252.883 54.9286 252.7 54.6907C252.32 54.2207 252.54 53.8207 252.9 53.3607C253.41 52.6907 254.5 51.5607 255.83 50.1907L261.51 44.3007C261.65 44.1607 261.77 44.0907 261.88 44.1407C262.141 44.269 262.378 44.4416 262.58 44.6507C262.968 44.9674 263.283 45.3649 263.503 45.8157C263.722 46.2664 263.84 46.7595 263.85 47.2607C263.842 47.8236 263.72 48.3791 263.494 48.8944C263.267 49.4097 262.939 49.8743 262.53 50.2607C262.224 50.5673 261.861 50.8106 261.461 50.9765C261.061 51.1425 260.633 51.228 260.2 51.228C259.767 51.228 259.338 51.1425 258.938 50.9765C258.539 50.8106 258.175 50.5673 257.87 50.2607L257.8 50.2007C257.5 49.9107 257.4 49.8407 257.28 49.9607C257.16 50.0807 257.28 50.1407 257.35 50.2107C257.438 50.3187 257.531 50.4222 257.63 50.5207C258.04 50.9681 258.535 51.3302 259.085 51.5864C259.635 51.8425 260.23 51.9878 260.837 52.0138C261.443 52.0398 262.049 51.9461 262.619 51.7379C263.189 51.5298 263.713 51.2113 264.16 50.8007C264.258 50.7124 264.352 50.619 264.44 50.5207C265.052 49.8735 265.386 49.0117 265.37 48.1207C265.37 47.6907 265.29 46.4607 263.5 44.7407C262.84 44.1007 261.97 43.3407 261.65 43.0407C261.54 42.9307 260.72 42.0407 260.08 41.4307C259.92 41.2807 259.82 41.2407 259.74 41.3307C259.66 41.4207 259.74 41.4707 259.74 41.5207C259.908 41.6772 260.059 41.8516 260.19 42.0407C260.56 42.5907 260.46 42.9307 260.01 43.4507C259.56 43.9707 259.21 44.3307 257.01 46.5607L254.62 49.0707ZM246.25 42.1507C245.05 43.6307 244.06 44.8507 243.46 45.4407C243.03 45.8407 242.68 46.1107 242.32 45.9307C242.141 45.8395 241.97 45.7324 241.81 45.6107C241.72 45.5407 241.65 45.6107 241.61 45.6107C241.57 45.6107 241.61 45.7907 241.76 45.9307C242.22 46.3107 243.23 47.0507 243.31 47.1107C243.39 47.1707 244.31 48.0107 245.17 48.7007C245.34 48.8407 245.46 48.8507 245.52 48.7707C245.58 48.6907 245.52 48.6607 245.52 48.5807C245.286 48.3889 245.069 48.1782 244.87 47.9507C244.45 47.5207 244.64 47.1007 244.95 46.6207C245.4 45.9007 246.39 44.6807 247.59 43.2007L252.79 36.7807C252.89 36.6607 252.97 36.6507 253.07 36.7207L255.41 38.7207C255.604 38.8706 255.759 39.0653 255.862 39.2882C255.965 39.5111 256.012 39.7556 256 40.0007C255.929 40.2538 255.818 40.4936 255.67 40.7107C255.58 40.8107 255.55 40.9107 255.62 40.9807C255.69 41.0507 255.81 40.9807 255.89 40.9107C255.97 40.8407 256.65 40.0907 256.79 39.9107C257.19 39.5107 257.41 39.3907 257.5 39.2807C257.59 39.1707 257.58 39.1207 257.5 39.0707C257.42 39.0207 257.33 39.0707 257.21 38.9807C256.949 38.8491 256.704 38.688 256.48 38.5007C256.11 38.2207 252.97 35.6807 252.66 35.4307C252.58 35.3707 251.66 34.5307 250.95 33.9707C250.78 33.8307 250.68 33.8007 250.6 33.8907C250.579 33.9198 250.567 33.9548 250.567 33.9907C250.567 34.0266 250.579 34.0616 250.6 34.0907C250.778 34.2317 250.942 34.3891 251.09 34.5607C251.51 35.0807 251.44 35.4307 251.09 35.9807C250.74 36.5307 250.36 36.9807 248.41 39.3507L246.25 42.1507ZM222.87 18.0707L220.4 23.3707C220.369 23.4788 220.317 23.5797 220.247 23.6673C220.176 23.7549 220.089 23.8275 219.99 23.8807C219.65 24.0807 219.4 23.9807 218.82 23.7007C217.872 23.2318 217.149 22.4068 216.808 21.4062C216.467 20.4056 216.536 19.3107 217 18.3607L217.12 18.1207C218.26 15.7307 220.12 16.1207 221.05 16.5807C221.686 16.9292 222.291 17.3306 222.86 17.7807C222.893 17.8213 222.912 17.8717 222.914 17.924C222.915 17.9764 222.9 18.0279 222.87 18.0707ZM200.69 16.7307C200.63 16.7307 200.6 16.6607 200.69 16.5907L204.18 12.1407C204.27 12.0207 204.35 11.9707 204.39 11.9807C204.43 11.9907 204.46 12.0707 204.46 12.2407L204.4 17.9307C204.4 18.0207 204.4 18.0707 204.28 18.0407L200.69 16.7307ZM192.49 11.3207C193.13 8.32071 193.25 7.73071 193.42 7.12071C193.59 6.51071 193.83 6.12071 194.42 6.12071C194.586 6.1007 194.754 6.1007 194.92 6.12071C194.99 6.12071 195.08 6.12071 195.1 6.04071C195.12 5.96071 194.98 6.04071 194.78 5.90071C194.19 5.78071 192.96 5.58071 192.86 5.55071C192.76 5.52071 191.55 5.22071 190.67 5.03071C190.46 5.03071 190.35 5.03071 190.33 5.12071C190.31 5.21071 190.33 5.25071 190.46 5.27071C190.682 5.31755 190.9 5.38449 191.11 5.47071C191.72 5.74071 191.81 6.09071 191.71 6.75071C191.61 7.41071 191.45 8.15071 190.81 11.1807L190.72 11.5907C190.72 11.6907 190.64 11.7007 190.58 11.6807L182.33 9.93071C182.27 9.93071 182.21 9.93071 182.23 9.79071L182.32 9.38071C182.97 6.38071 183.13 5.58071 183.32 4.97071C183.51 4.36071 183.73 3.97071 184.32 3.97071C184.483 3.95062 184.647 3.95062 184.81 3.97071C184.89 3.97071 184.98 3.97071 184.99 3.88071C185 3.79071 184.93 3.71071 184.72 3.66071C184.13 3.54071 182.89 3.34071 182.8 3.32071C182.71 3.30071 181.48 2.98071 180.61 2.79071C180.39 2.79071 180.29 2.79071 180.27 2.88071C180.25 2.97071 180.27 3.01071 180.39 3.03071C180.612 3.07755 180.83 3.14449 181.04 3.23071C181.66 3.50071 181.75 3.84071 181.64 4.52071C181.53 5.20071 181.44 5.69071 180.79 8.73071L180 12.2407C179.6 14.1107 179.28 15.6507 179 16.4507C178.8 16.9907 178.61 17.4007 178.21 17.4007C178.01 17.4208 177.809 17.4208 177.61 17.4007C177.49 17.4007 177.44 17.4007 177.42 17.4807C177.4 17.5607 177.49 17.6607 177.7 17.7107C178.29 17.8307 179.52 18.0307 179.62 18.0507C179.72 18.0707 180.93 18.3907 182 18.6307C182.22 18.6307 182.33 18.6307 182.35 18.5307C182.37 18.4307 182.35 18.4107 182.22 18.3807L181.36 18.1207C180.79 17.9107 180.77 17.4607 180.83 16.8907C180.9 16.0507 181.23 14.5107 181.63 12.6407L182.02 10.8107C182.02 10.7107 182.1 10.7107 182.16 10.7207L190.41 12.4707C190.438 12.4755 190.464 12.4902 190.482 12.5122C190.5 12.5342 190.51 12.5621 190.51 12.5907L190.12 14.4307C189.73 16.2907 189.4 17.8307 189.12 18.6307C188.92 19.1807 188.73 19.6307 188.33 19.6307C188.129 19.6342 187.928 19.6175 187.73 19.5807C187.61 19.5807 187.56 19.5807 187.55 19.6707C187.54 19.7607 187.61 19.8507 187.82 19.8907C188.41 20.0107 189.65 20.2107 189.75 20.2307C189.85 20.2507 191.06 20.5807 192.13 20.8007C192.34 20.8507 192.45 20.8007 192.47 20.7107C192.49 20.6207 192.47 20.5907 192.34 20.5607C192.049 20.4892 191.762 20.4024 191.48 20.3007C190.91 20.1007 190.89 19.6407 190.95 19.0607C191.02 18.2307 191.35 16.6907 191.75 14.8207L192.49 11.3207ZM174 7.66071C174.38 4.58071 174.45 4.02071 174.56 3.40071C174.67 2.78071 174.89 2.40071 175.43 2.40071C175.596 2.3807 175.764 2.3807 175.93 2.40071C176.01 2.40071 176.1 2.40071 176.11 2.30071C176.12 2.20071 176.03 2.13071 175.81 2.10071C175.22 2.03071 173.97 1.94071 173.87 1.92071C173.77 1.90071 172.53 1.70071 171.64 1.59071C171.43 1.59071 171.32 1.59071 171.31 1.71071C171.3 1.83071 171.37 1.84071 171.45 1.85071C171.675 1.87126 171.896 1.91826 172.11 1.99071C172.75 2.21071 172.87 2.54071 172.82 3.22071C172.77 3.90071 172.69 4.63071 172.31 7.71071V8.12071C172.312 8.13759 172.311 8.15484 172.305 8.17082C172.299 8.18681 172.289 8.20099 172.276 8.21202C172.263 8.22304 172.247 8.23055 172.23 8.23382C172.213 8.23709 172.196 8.23602 172.18 8.23071L163.8 7.23071C163.785 7.22945 163.771 7.22535 163.758 7.21862C163.746 7.2119 163.734 7.2027 163.725 7.19154C163.716 7.18038 163.709 7.1675 163.704 7.15362C163.7 7.13975 163.698 7.12517 163.7 7.11071V6.68071C164.08 3.60071 164.18 2.83071 164.29 2.20071C164.4 1.57071 164.62 1.20071 165.16 1.20071C165.326 1.1807 165.494 1.1807 165.66 1.20071C165.678 1.20678 165.698 1.20898 165.717 1.20716C165.736 1.20535 165.755 1.19956 165.772 1.19016C165.789 1.18076 165.803 1.16796 165.815 1.15257C165.827 1.13717 165.835 1.11951 165.84 1.10071C165.84 0.980709 165.75 0.930709 165.54 0.900709C164.95 0.830709 163.7 0.740709 163.6 0.720709C163.5 0.700709 162.27 0.400709 161.38 0.290709C161.16 0.290709 161.06 0.290709 161.05 0.410709C161.04 0.530709 161.11 0.540709 161.19 0.550709C161.415 0.571264 161.636 0.618255 161.85 0.690709C162.49 0.910709 162.61 1.24071 162.57 1.92071C162.53 2.60071 162.46 3.11071 162.08 6.19071L161.66 9.66071C161.42 11.5607 161.23 13.1207 161.03 13.9407C160.88 14.5007 160.73 14.9407 160.32 14.9407C160.12 14.9608 159.919 14.9608 159.72 14.9407C159.6 14.9407 159.55 14.9407 159.55 15.0407C159.55 15.1407 159.63 15.2107 159.84 15.2407C160.44 15.3107 161.69 15.4107 161.79 15.4207C161.89 15.4307 163.12 15.6407 164.21 15.7807C164.42 15.7807 164.53 15.7807 164.54 15.6607C164.55 15.5407 164.54 15.5307 164.4 15.5207C164.11 15.5207 163.81 15.4107 163.52 15.3307C162.94 15.1807 162.87 14.7307 162.89 14.1507C162.89 13.3107 163.08 11.7507 163.31 9.85071L163.54 8.00071C163.538 7.98719 163.54 7.97348 163.544 7.96062C163.549 7.94775 163.556 7.93607 163.566 7.92644C163.575 7.91681 163.587 7.90949 163.6 7.90504C163.613 7.90058 163.626 7.8991 163.64 7.90071L172.02 8.90071C172.034 8.90196 172.048 8.90607 172.061 8.91279C172.074 8.91952 172.086 8.92872 172.095 8.93988C172.104 8.95103 172.111 8.96392 172.115 8.97779C172.12 8.99167 172.121 9.00625 172.12 9.02071L171.89 10.8807C171.66 12.7807 171.47 14.3307 171.27 15.1507C171.12 15.7207 170.97 16.1507 170.56 16.1507C170.36 16.1708 170.159 16.1708 169.96 16.1507C169.84 16.1507 169.8 16.1507 169.79 16.2507C169.78 16.3507 169.87 16.4307 170.09 16.4507C170.68 16.5207 171.93 16.6107 172.03 16.6307C172.13 16.6507 173.36 16.8607 174.45 16.9907C174.67 16.9907 174.77 16.9907 174.79 16.8607C174.81 16.7307 174.79 16.7407 174.64 16.7307C174.343 16.6829 174.05 16.6195 173.76 16.5407C173.18 16.3907 173.11 15.9407 173.13 15.3607C173.13 14.5207 173.32 12.9607 173.55 11.0607L174 7.66071ZM148 8.81071C147.94 8.81071 147.89 8.81071 147.93 8.68071L149.5 3.25071C149.49 3.20382 149.494 3.15493 149.511 3.11036C149.529 3.0658 149.56 3.0276 149.6 3.00071C149.6 3.00071 149.71 3.06071 149.77 3.21071L151.85 8.52071C151.85 8.60071 151.85 8.66071 151.78 8.66071L148 8.81071ZM149.82 0.000708617C149.7 0.000708617 149.62 0.120709 149.41 0.790709L145.33 13.2907C145 14.2907 144.63 15.0707 143.72 15.2207C143.528 15.2511 143.334 15.2711 143.14 15.2807C143.04 15.2807 142.96 15.3307 142.97 15.4107C142.98 15.4907 143.09 15.5707 143.35 15.5607C144.29 15.5607 145.35 15.4207 145.6 15.4207H147.16C147.33 15.4207 147.45 15.4207 147.44 15.2407C147.43 15.0607 147.38 15.1307 147.25 15.1307H147.05C146.71 15.1307 146.28 14.9707 146.27 14.5807C146.275 14.1247 146.353 13.6725 146.5 13.2407L147.57 9.67071C147.579 9.62653 147.603 9.58668 147.637 9.55764C147.671 9.52859 147.715 9.51206 147.76 9.51071L152 9.36071C152.038 9.3541 152.077 9.36161 152.111 9.38184C152.144 9.40208 152.168 9.43366 152.18 9.47071L154.18 14.3007C154.216 14.3824 154.233 14.4713 154.23 14.5607C154.239 14.6174 154.23 14.6756 154.203 14.7263C154.175 14.7769 154.132 14.8172 154.08 14.8407C154.05 14.8539 154.026 14.877 154.011 14.9063C153.996 14.9355 153.992 14.9689 154 15.0007C154 15.1107 154.22 15.1107 154.6 15.1207C155.97 15.1207 157.43 15.0607 157.72 15.0507C158.01 15.0407 158.12 14.9907 158.11 14.8707C158.1 14.7507 158.03 14.7507 157.91 14.7607C157.639 14.7725 157.369 14.7387 157.11 14.6607C156.69 14.5607 156.11 14.2707 155.32 12.5207C154 9.52071 150.6 1.43071 150.32 0.690709C150.04 -0.0492914 150 0.000708617 149.82 0.000708617ZM135.07 10.3507C135.2 12.2607 135.31 13.8307 135.27 14.6707C135.27 15.2507 135.16 15.6707 134.77 15.8007C134.578 15.8608 134.38 15.901 134.18 15.9207C134.06 15.9207 134.02 15.9907 134.03 16.0507C134.04 16.1107 134.14 16.2007 134.36 16.1907C134.996 16.1581 135.631 16.0913 136.26 15.9907C136.32 15.9907 137.61 15.9907 138.7 15.8907C138.92 15.8907 139.02 15.8007 139.01 15.7007C139 15.6007 139.01 15.5907 138.84 15.5907C138.54 15.6107 138.24 15.6107 137.94 15.5907C137.34 15.5907 137.19 15.1207 137.09 14.5907C136.94 13.7607 136.83 12.2007 136.69 10.2907L136.12 2.13071C136.12 1.93071 136.12 1.79071 136.26 1.74071C136.527 1.6313 136.811 1.57035 137.1 1.56071C137.595 1.48607 138.101 1.51888 138.582 1.65692C139.063 1.79496 139.509 2.03499 139.89 2.36071C140.299 2.7471 140.627 3.21169 140.854 3.72698C141.081 4.24227 141.202 4.7978 141.21 5.36071C141.225 5.79576 141.153 6.22942 140.999 6.63671C140.846 7.04399 140.613 7.41685 140.315 7.73381C140.016 8.05077 139.658 8.30557 139.261 8.48352C138.864 8.66148 138.435 8.75908 138 8.77071C137.58 8.77071 137.46 8.83071 137.47 8.98071C137.48 9.13071 137.6 9.12071 137.7 9.11071H138.12C138.727 9.1094 139.327 8.9886 139.887 8.75521C140.447 8.52182 140.956 8.18041 141.384 7.75047C141.812 7.32054 142.151 6.8105 142.382 6.24947C142.613 5.68844 142.731 5.08742 142.73 4.48071C142.74 4.32086 142.74 4.16055 142.73 4.00071C142.658 3.11216 142.242 2.28689 141.57 1.70071C141.24 1.43071 140.28 0.700709 137.8 0.830709C136.89 0.890709 135.74 1.04071 135.31 1.06071C135.15 1.06071 133.95 1.06071 133.06 1.16071C132.84 1.16071 132.74 1.22071 132.75 1.34071C132.753 1.3593 132.761 1.37698 132.771 1.39268C132.782 1.40839 132.795 1.42178 132.811 1.43207C132.827 1.44235 132.845 1.4493 132.864 1.4525C132.882 1.45571 132.901 1.4551 132.92 1.45071C133.146 1.4307 133.374 1.4307 133.6 1.45071C134.26 1.54071 134.44 1.85071 134.53 2.53071C134.62 3.21071 134.65 3.71071 134.87 6.81071L135.07 10.3507ZM115.64 10.8207C114.89 6.52071 116.95 3.94071 120.23 3.36071C123.32 2.81071 126.63 4.84071 127.46 9.54071C128.46 15.2407 125 16.9007 123.23 17.2207C119.71 17.8407 116.44 15.3807 115.64 10.8207ZM113.87 11.6907C114.5 15.2207 117.47 19.0007 122.87 18.0607C123.883 17.9012 124.855 17.5436 125.73 17.0085C126.605 16.4734 127.366 15.7712 127.969 14.9419C128.573 14.1127 129.007 13.1727 129.248 12.1756C129.488 11.1785 129.529 10.1439 129.37 9.13071C129.35 8.97234 129.319 8.81538 129.28 8.66071C128.48 4.09071 124.7 1.89071 120.28 2.66071C118.259 2.97119 116.444 4.07164 115.235 5.72004C114.025 7.36844 113.52 9.42979 113.83 11.4507C113.84 11.5307 113.86 11.6107 113.87 11.6907ZM105.19 7.42071L107.59 6.68071C109.42 6.13071 110 6.43071 110.26 6.97071L110.34 7.17071C110.45 7.43071 110.5 7.47071 110.6 7.44071C110.7 7.41071 110.71 7.33071 110.6 7.15071C110.49 6.97071 110.17 5.62071 109.98 5.05071C109.98 4.94071 109.91 4.83071 109.81 4.86071C109.235 5.18795 108.629 5.45599 108 5.66071L101 8.00071C100.77 8.08071 99.9998 8.27071 99.4698 8.39071C99.1675 8.42586 98.8622 8.42586 98.5598 8.39071C98.4798 8.39071 98.4898 8.68071 98.4898 8.81071C98.4898 8.94071 98.6498 10.7207 98.7098 10.9107C98.7698 11.1007 98.7999 11.0707 98.8598 11.0507C98.9198 11.0307 98.9998 10.9507 98.9998 10.7607C99.0238 10.5275 99.0673 10.2967 99.1298 10.0707C99.2798 9.52071 99.6999 9.24071 100.87 8.83071L103.65 7.89071L106.26 15.8907C106.85 17.7107 107.33 19.2007 107.49 20.0307C107.6 20.6007 107.64 21.0307 107.28 21.2507C107.108 21.3533 106.927 21.4403 106.74 21.5107C106.721 21.5112 106.702 21.5162 106.686 21.5252C106.669 21.5342 106.655 21.5471 106.644 21.5627C106.633 21.5783 106.626 21.5962 106.624 21.615C106.622 21.6338 106.624 21.6529 106.63 21.6707C106.63 21.7307 106.77 21.8007 106.98 21.7307C107.55 21.5407 108.72 21.1007 108.81 21.0707C108.9 21.0407 110.12 20.7107 111.16 20.3707C111.37 20.3007 111.45 20.2107 111.42 20.1107C111.39 20.0107 111.34 20.0107 111.22 20.0507C110.934 20.1338 110.643 20.2005 110.35 20.2507C109.76 20.3607 109.51 19.9807 109.27 19.4507C108.92 18.6907 108.44 17.1907 107.85 15.3807L105.19 7.42071ZM96.8998 25.3407C98.0231 24.9021 99.0695 24.2878 99.9998 23.5207C100.108 23.4369 100.19 23.323 100.235 23.1933C100.279 23.0635 100.284 22.9235 100.25 22.7907C100.109 21.9377 99.9086 21.0956 99.6498 20.2707C99.6498 20.1207 99.4998 20.0107 99.4099 20.0507C99.3199 20.0907 99.2998 20.1807 99.3498 20.4007C99.4997 21.0015 99.4997 21.6299 99.3498 22.2307C98.9298 23.2907 97.9298 23.9107 96.5499 24.5007C95.6806 24.8695 94.7472 25.0632 93.803 25.0707C92.8589 25.0782 91.9225 24.8995 91.0475 24.5447C90.1725 24.1898 89.3761 23.6659 88.7038 23.0029C88.0316 22.3398 87.4967 21.5507 87.1298 20.6807V20.6007C85.7698 17.3607 85.6999 14.0007 90.4099 12.0007C92.6999 11.0007 95.1698 10.8907 96.0698 13.0007C96.1798 13.2607 96.2598 13.3807 96.3898 13.3307C96.5198 13.2807 96.4499 12.9707 96.0798 12.0907C95.6299 11.0307 95.3799 10.0907 95.2999 9.89071C95.2198 9.69071 95.1798 9.71071 94.9698 9.80071C93.3676 10.1842 91.7884 10.6583 90.2398 11.2207C84.4098 13.7007 84.3098 18.5007 85.5598 21.4307C87.2898 25.6807 91.3098 27.7207 96.8998 25.3407ZM75.2098 19.3907C75.1398 19.2707 75.2098 19.2107 75.2098 19.1807C75.5598 18.9907 77.2098 18.1807 77.2798 18.1807C78.2798 17.6207 78.9198 17.7507 79.1498 17.9207C79.3582 18.0806 79.5318 18.2814 79.6599 18.5107C79.7299 18.6307 79.7999 18.6807 79.8898 18.6407C79.9798 18.6007 79.9698 18.4807 79.8898 18.3807C79.6906 17.9911 79.5137 17.5904 79.3598 17.1807C79.1498 16.6607 79.1198 16.4007 79.0598 16.2807C78.9998 16.1607 78.9198 16.1107 78.8498 16.1407C78.7798 16.1707 78.7498 16.2807 78.6599 16.3807C78.4282 16.5578 78.1843 16.7182 77.9298 16.8607C77.6599 17.0007 75.9998 18.0007 73.9998 19.0007C73.9198 19.0507 72.7798 19.5807 71.9998 20.0007C71.8098 20.1007 71.7398 20.1807 71.7898 20.2907C71.802 20.3054 71.8173 20.3172 71.8346 20.3253C71.8519 20.3334 71.8708 20.3376 71.8898 20.3376C71.9089 20.3376 71.9278 20.3334 71.9451 20.3253C71.9624 20.3172 71.9776 20.3054 71.9898 20.2907C72.1914 20.1822 72.4022 20.0918 72.6199 20.0207C72.8297 19.9247 73.0688 19.9148 73.2858 19.9934C73.5027 20.072 73.6802 20.2326 73.7798 20.4407C73.9798 20.7207 74.3898 21.4407 75.9598 24.4407L77.5998 27.5307C78.3404 28.8567 79.008 30.222 79.5998 31.6207C79.7698 32.1907 79.7598 32.3907 79.5198 32.6207C79.3717 32.7572 79.2071 32.8748 79.0298 32.9707C78.9298 32.9707 78.9198 33.0907 78.9498 33.1507C78.9798 33.2107 79.1198 33.2507 79.3098 33.1507C79.6998 32.9507 80.5398 32.4307 80.9998 32.1507C81.4598 31.8707 82.7498 31.3607 85.3998 29.9507C86.0798 29.5907 86.2198 29.5107 86.0998 28.9507C85.9238 28.3244 85.6998 27.7126 85.4298 27.1207C85.3598 26.9807 85.2798 26.8607 85.1798 26.9107C85.0798 26.9607 85.0899 27.0507 85.1798 27.2607C85.4398 28.0507 85.4198 28.5107 85.0598 28.9507C84.605 29.3796 84.0852 29.7339 83.5198 30.0007C81.7998 30.9107 81.3298 30.8007 80.7198 29.6407L78.2798 25.1307C78.2649 25.0972 78.2627 25.0593 78.2737 25.0243C78.2848 24.9893 78.3083 24.9595 78.3398 24.9407C78.6398 24.7907 80.3998 23.8907 80.8998 23.6907C81.6199 23.4007 81.8998 23.6107 82.1398 23.8207C82.2985 23.9797 82.4272 24.166 82.5198 24.3707C82.5198 24.4507 82.6399 24.5107 82.7299 24.4607C82.8198 24.4107 82.7298 24.2507 82.6698 24.0607C82.3298 23.3407 82.0298 22.6007 81.7598 21.8407C81.7619 21.8213 81.7582 21.8017 81.7492 21.7844C81.7403 21.767 81.7264 21.7527 81.7094 21.7431C81.6924 21.7336 81.673 21.7292 81.6535 21.7305C81.634 21.7319 81.6154 21.7389 81.5998 21.7507C81.5998 21.7507 81.5098 21.9107 81.4598 22.1107C81.4098 22.3107 81.1699 22.5407 80.7598 22.8007C80.3498 23.0607 78.2198 24.2307 77.9998 24.3607C77.7798 24.4907 77.8598 24.3607 77.7999 24.2407L75.2098 19.3907ZM67.8898 33.0607C68.8898 34.7007 69.6798 36.0607 70.0298 36.8107C70.2498 37.3507 70.3898 37.8107 70.0898 38.0507C69.9466 38.1902 69.7891 38.3143 69.6199 38.4207C69.5199 38.4807 69.5098 38.5507 69.5499 38.6107C69.5899 38.6707 69.7198 38.7007 69.9099 38.6107C70.4199 38.3007 71.4598 37.6107 71.5098 37.6107C71.5599 37.6107 72.6998 36.9707 73.6398 36.4107C73.8298 36.3007 73.8799 36.1907 73.8298 36.1107C73.7798 36.0307 73.7298 36.0207 73.6298 36.1107C73.368 36.26 73.0975 36.3935 72.8198 36.5107C72.2698 36.7507 71.9398 36.4307 71.5898 35.9707C71.0798 35.3007 70.2698 33.9707 69.2798 32.3207L65.0698 25.3207C65.0186 25.1523 64.9949 24.9767 64.9998 24.8007C65.1916 24.5807 65.4221 24.3977 65.6798 24.2607C66.0843 23.9671 66.5482 23.7657 67.0388 23.6707C67.5295 23.5756 68.035 23.5893 68.5198 23.7107C69.0479 23.8721 69.5389 24.1364 69.9645 24.4882C70.3901 24.84 70.7419 25.2724 70.9998 25.7607C71.2166 26.1376 71.357 26.5535 71.413 26.9846C71.469 27.4157 71.4395 27.8537 71.3262 28.2734C71.2129 28.6932 71.018 29.0865 70.7527 29.4309C70.4874 29.7753 70.1568 30.0641 69.7798 30.2807H69.7198C69.3598 30.5007 69.2698 30.5807 69.3498 30.7107C69.4298 30.8407 69.5298 30.7707 69.6098 30.7107C69.7383 30.654 69.862 30.5871 69.9799 30.5107C71.0699 29.9511 71.893 28.9814 72.268 27.8149C72.6431 26.6484 72.5395 25.3808 71.9799 24.2907L71.7999 24.0007C71.3274 23.2501 70.5875 22.7068 69.7299 22.4807C69.3099 22.3907 68.1098 22.1407 65.9799 23.4207C65.1898 23.8907 64.2298 24.5307 63.8598 24.7607C63.7198 24.8407 62.6698 25.4107 61.8598 25.8707C61.6698 25.9807 61.6098 26.0707 61.6698 26.1707C61.7298 26.2707 61.7998 26.2307 61.8698 26.1707C62.0639 26.0528 62.268 25.9524 62.4798 25.8707C63.1098 25.6507 63.4098 25.8707 63.7898 26.4007C64.1698 26.9307 64.4398 27.4007 66.0398 30.0607L67.8898 33.0607ZM39.4398 55.3907H39.2998L36.5698 50.3907C36.4898 50.2707 36.4698 50.1707 36.4998 50.1407C36.5298 50.1107 36.6098 50.1407 36.7698 50.1407L41.9998 52.4607C42.0798 52.4607 42.1198 52.5407 41.9998 52.6107L39.4398 55.3907ZM34.5298 47.8407C34.4498 47.9307 34.5298 48.0707 34.7998 48.7007L40.7998 60.4307C41.2798 61.3707 41.5598 62.1707 41.0298 62.9207C40.9298 63.0607 40.7498 63.2707 40.6598 63.3807C40.5698 63.4907 40.5698 63.5307 40.6598 63.5907C40.7498 63.6507 40.8598 63.5907 41.0398 63.4207C41.6798 62.7407 42.3798 61.8907 42.5298 61.7307C42.6798 61.5707 43.3098 60.9907 43.6298 60.6407C43.7598 60.5107 43.8098 60.4007 43.7198 60.3107C43.6298 60.2207 43.5898 60.3107 43.4998 60.3807L43.3598 60.5207C43.2555 60.6653 43.0984 60.7631 42.9226 60.7931C42.7468 60.823 42.5662 60.7826 42.4198 60.6807C42.1025 60.3545 41.8392 59.9798 41.6398 59.5707L39.8798 56.2907C39.8514 56.2552 39.836 56.2112 39.836 56.1657C39.836 56.1203 39.8514 56.0762 39.8798 56.0407L42.7898 52.9107C42.8214 52.8912 42.8578 52.8809 42.8948 52.8809C42.9319 52.8809 42.9683 52.8912 42.9998 52.9107L47.8398 54.9107C47.8992 54.9285 47.9538 54.9593 47.9998 55.0007C48.0446 55.0373 48.0778 55.086 48.0956 55.141C48.1133 55.1959 48.1148 55.2549 48.0998 55.3107C48.0809 55.3388 48.0708 55.3719 48.0708 55.4057C48.0708 55.4396 48.0809 55.4726 48.0998 55.5007C48.1898 55.5907 48.3398 55.4307 48.6198 55.1607C49.6198 54.1607 50.6198 53.1607 50.7798 52.9107C50.9398 52.6607 51.0198 52.5907 50.9298 52.5107C50.8398 52.4307 50.7798 52.5107 50.7098 52.5707C50.53 52.7722 50.3169 52.9413 50.0798 53.0707C49.6998 53.3007 49.0798 53.5007 47.2898 52.8107C44.2898 51.6407 36.1098 48.3207 35.3498 48.0207C34.7398 47.7707 34.6098 47.7607 34.5298 47.8407ZM21.6798 73.5907C19.1598 71.7707 18.5298 71.3107 18.0398 70.9107C17.5498 70.5107 17.3198 70.1407 17.5498 69.6507C17.6195 69.4967 17.7032 69.3494 17.7998 69.2107C17.8244 69.1832 17.838 69.1476 17.838 69.1107C17.838 69.0738 17.8244 69.0382 17.7998 69.0107C17.6998 68.9407 17.5998 69.0107 17.4798 69.1807C17.1298 69.6607 16.4798 70.7107 16.3798 70.7907C16.2798 70.8707 15.5398 71.8507 15.0198 72.5807C14.8898 72.7607 14.8598 72.8607 14.9598 72.9307C15.0598 73.0007 15.0998 72.9307 15.1498 72.8707C15.2781 72.6827 15.4292 72.5114 15.5998 72.3607C16.0898 71.9107 16.4398 71.9707 17.0098 72.3607C17.5798 72.7507 18.0098 73.0307 20.5198 74.8507L23.3598 76.9007C24.5543 77.7058 25.7028 78.5772 26.7998 79.5107C27.2198 79.9107 27.5198 80.2507 27.3498 80.6207C27.267 80.8046 27.17 80.9818 27.0598 81.1507C26.9898 81.2507 27.0598 81.3107 27.0598 81.3507C27.0598 81.3907 27.2498 81.3507 27.3798 81.1907C27.7198 80.7007 28.3798 79.6507 28.4698 79.5707C30.1298 77.2607 33.3898 72.7707 33.3798 72.7807C33.3698 72.7907 34.2198 71.7207 34.8598 70.7807C34.9398 70.6707 34.9898 70.5807 34.9698 70.5207C37.6298 66.9607 38.3098 65.9107 38.3698 65.8307C38.4298 65.7507 39.2098 64.7707 39.8498 63.8807C39.9798 63.7107 39.9898 63.5907 39.9098 63.5307C39.8298 63.4707 39.7898 63.5307 39.7198 63.5907C39.6498 63.6507 39.3198 64.0707 39.1298 64.2707C38.7098 64.7007 38.2898 64.5407 37.7898 64.2707C37.0498 63.8707 35.7898 62.9407 34.2298 61.8307L31.3898 59.7707C28.8798 57.9507 28.3898 57.6307 27.9298 57.2207C27.4698 56.8107 27.2098 56.4507 27.4498 55.9607C27.5199 55.8089 27.6001 55.6619 27.6898 55.5207C27.7131 55.4965 27.726 55.4643 27.726 55.4307C27.726 55.3972 27.7131 55.3649 27.6898 55.3407C27.5998 55.2807 27.5098 55.3407 27.3798 55.5107C27.0298 55.9907 26.3798 57.0407 26.2798 57.1207C26.1798 57.2007 25.4398 58.1907 24.9198 58.9107C24.7898 59.0907 24.7598 59.1907 24.8598 59.2607C24.9598 59.3307 24.9998 59.2607 25.0498 59.2007C25.1891 59.0215 25.3394 58.8512 25.4998 58.6907C25.9998 58.2407 26.3498 58.2907 26.9198 58.6907C27.4898 59.0907 28.0798 59.4907 30.5998 61.3107L33.2598 63.2307C34.4543 64.0358 35.6028 64.9072 36.6998 65.8407C36.8698 66.0107 37.1798 66.2707 36.8998 66.6507L33.5998 71.2107C33.3098 71.6207 33.0098 71.3507 32.7998 71.2107C32.0698 70.8007 30.7998 69.8707 29.2498 68.7607L26.4098 66.7007C23.8998 64.8907 23.4098 64.5607 22.9498 64.1507C22.4898 63.7407 22.2298 63.3907 22.4598 62.8907C22.5334 62.7387 22.6169 62.5917 22.7098 62.4507C22.7344 62.4232 22.748 62.3876 22.748 62.3507C22.748 62.3138 22.7344 62.2782 22.7098 62.2507C22.5998 62.1807 22.5098 62.2507 22.3898 62.4207C22.0398 62.9007 21.3898 63.9507 21.2898 64.0407C21.1898 64.1307 20.4498 65.1007 20.0698 65.6307C19.9398 65.8007 19.9098 65.9107 20.0098 65.9807C20.1098 66.0507 20.1598 65.9807 20.1998 65.9207C20.3267 65.7558 20.4672 65.602 20.6198 65.4607C20.9598 65.1707 21.3498 65.2107 21.9198 65.5707C22.4898 65.9307 22.9198 66.2407 25.4298 68.0607L28.2698 70.0607C29.4643 70.8658 30.6128 71.7372 31.7098 72.6707C31.8798 72.8407 32.2298 73.0507 31.9198 73.4707L28.6398 78.0007C28.4198 78.3107 28.0998 78.0807 27.8998 78.0007C27.1598 77.5907 25.8998 76.6607 24.3398 75.5407L21.6798 73.5907ZM16.3498 88.2407C16.3498 88.2907 16.2698 88.3107 16.1998 88.2407L12.1398 84.3007C12.0298 84.2007 11.9898 84.1107 11.9998 84.0807C12.0098 84.0507 12.0998 84.0207 12.2698 84.0807L17.9298 84.7407C18.0098 84.7407 18.0598 84.7407 18.0198 84.8707L16.3498 88.2407ZM9.44984 82.4607C9.44984 82.5607 9.44984 82.6907 9.95984 83.1907L19.0798 92.6707C19.8198 93.4307 20.3298 94.1107 20.0798 94.9907C20.0298 95.1407 19.9198 95.4007 19.8698 95.5307C19.8198 95.6607 19.8198 95.7107 19.8698 95.7407C19.9198 95.7707 20.0698 95.7407 20.1898 95.4707C20.5998 94.6307 21.0198 93.6207 21.1098 93.4707C21.1998 93.3207 21.6398 92.5307 21.8498 92.1107C21.9298 91.9507 21.9498 91.8207 21.8498 91.7707C21.7498 91.7207 21.7098 91.7707 21.6498 91.8907L21.5698 92.0707C21.4198 92.3807 21.0698 92.6707 20.7098 92.5007C20.3115 92.2783 19.9505 91.9949 19.6398 91.6607L16.9998 89.0007C16.9644 88.9732 16.9392 88.9346 16.9283 88.8911C16.9174 88.8476 16.9215 88.8017 16.9398 88.7607L18.7998 84.9007C18.8114 84.8637 18.836 84.8321 18.8691 84.8118C18.9023 84.7916 18.9416 84.7841 18.9798 84.7907L24.1898 85.2707C24.2773 85.2821 24.362 85.3092 24.4398 85.3507C24.4951 85.3701 24.5425 85.407 24.5749 85.4557C24.6074 85.5043 24.6232 85.5623 24.6198 85.6207C24.6111 85.6557 24.6131 85.6926 24.6256 85.7265C24.6381 85.7604 24.6605 85.7897 24.6898 85.8107C24.7998 85.8107 24.8898 85.6607 25.0798 85.3307C25.7198 84.1107 26.3498 82.8107 26.4798 82.5407C26.6098 82.2707 26.6198 82.1707 26.4798 82.1107C26.3398 82.0507 26.3398 82.1107 26.2898 82.2407C26.1728 82.4839 26.0175 82.7068 25.8298 82.9007C25.5398 83.2207 24.9998 83.6007 23.0898 83.4707C19.8398 83.2407 11.0898 82.4707 10.2798 82.3807C9.46984 82.2907 9.50984 82.3507 9.44984 82.4607ZM10.0698 95.4607C7.14984 94.4007 6.62984 94.2107 6.06984 93.9607C5.50984 93.7107 5.16984 93.4207 5.25984 92.8807C5.28589 92.7152 5.32263 92.5515 5.36984 92.3907C5.3785 92.3743 5.38381 92.3564 5.38548 92.3379C5.38715 92.3195 5.38513 92.3008 5.37955 92.2832C5.37397 92.2655 5.36493 92.2491 5.35297 92.2349C5.341 92.2208 5.32634 92.2092 5.30984 92.2007C5.19984 92.2007 5.12984 92.2007 5.05984 92.4507C4.84984 93.0107 4.47984 94.2007 4.44984 94.3007C4.41984 94.4007 3.92984 95.5507 3.61984 96.3907C3.53984 96.6007 3.54984 96.7007 3.61984 96.7507C3.68984 96.8007 3.75984 96.7507 3.78984 96.6307C3.8702 96.4136 3.96715 96.203 4.07984 96.0007C4.43984 95.4307 4.79984 95.3907 5.43984 95.5907C6.07984 95.7907 6.77984 96.0307 9.69984 97.0907L10.0998 97.2307C10.1142 97.2329 10.1279 97.2382 10.14 97.2462C10.1521 97.2542 10.1624 97.2648 10.17 97.2772C10.1776 97.2895 10.1824 97.3034 10.1841 97.3178C10.1858 97.3323 10.1844 97.3469 10.1798 97.3607L7.28984 105.281C7.28646 105.294 7.2803 105.307 7.27176 105.318C7.26323 105.329 7.2525 105.338 7.24027 105.344C7.22804 105.351 7.21457 105.355 7.20073 105.356C7.18688 105.357 7.17296 105.355 7.15984 105.351L6.75984 105.211C3.84984 104.141 3.11984 103.881 2.52984 103.621C1.93984 103.361 1.62984 103.081 1.71984 102.541C1.76984 102.301 1.78984 102.191 1.82984 102.051C1.84035 102.035 1.84743 102.018 1.8506 102C1.85377 101.981 1.85296 101.962 1.84822 101.944C1.84348 101.926 1.83492 101.909 1.82312 101.895C1.81132 101.881 1.79657 101.869 1.77984 101.861C1.66984 101.861 1.58984 101.861 1.51984 102.111C1.30984 102.671 0.939844 103.871 0.909844 103.971C0.879844 104.071 0.389844 105.221 0.0798438 106.061C0.00984375 106.271 0.00984375 106.381 0.0798438 106.421C0.149844 106.461 0.219844 106.421 0.249844 106.311C0.332235 106.098 0.429128 105.891 0.539844 105.691C0.889844 105.131 1.24984 105.081 1.89984 105.281C2.54984 105.481 3.02984 105.651 5.94984 106.711L9.23984 107.911C11.0298 108.561 12.5098 109.101 13.2398 109.481C13.7598 109.751 14.1398 109.991 14.0698 110.401C14.0685 110.603 14.0451 110.804 13.9998 111.001C13.9794 111.024 13.9682 111.054 13.9682 111.086C13.9682 111.117 13.9794 111.147 13.9998 111.171C14.1198 111.171 14.1898 111.171 14.2698 110.931C14.4698 110.371 14.8398 109.171 14.8698 109.071C14.8998 108.971 15.3898 107.821 15.7698 106.801C15.8398 106.591 15.7698 106.481 15.7198 106.441C15.6698 106.401 15.5998 106.441 15.5598 106.551C15.4494 106.828 15.3225 107.099 15.1798 107.361C14.8998 107.901 14.4498 107.861 13.8798 107.721C13.0598 107.531 11.5898 106.991 9.78984 106.341L8.02984 105.701C8.00228 105.694 7.97854 105.676 7.96363 105.652C7.94871 105.628 7.94377 105.599 7.94984 105.571L10.8398 97.6507C10.8444 97.6356 10.8519 97.6215 10.8619 97.6093C10.872 97.5971 10.8843 97.587 10.8982 97.5796C10.9122 97.5721 10.9274 97.5675 10.9432 97.566C10.9589 97.5645 10.9747 97.5661 10.9898 97.5707L12.7498 98.2107C14.5398 98.8707 16.0198 99.4107 16.7498 99.7807C17.2698 100.061 17.6498 100.301 17.5798 100.701C17.5615 100.902 17.5179 101.1 17.4498 101.291C17.4498 101.401 17.4498 101.461 17.5098 101.481C17.5698 101.501 17.6998 101.481 17.7698 101.241C17.9798 100.681 18.3498 99.4807 18.3798 99.3807C18.4098 99.2807 18.8998 98.1307 19.2698 97.1007C19.3498 96.9007 19.3298 96.7807 19.2698 96.7507C19.2098 96.7207 19.1498 96.7507 19.1098 96.8507C19.0036 97.1331 18.8766 97.4072 18.7298 97.6707C18.4498 98.2007 17.9898 98.1707 17.4298 98.0307C16.6098 97.8407 15.1398 97.3007 13.3398 96.6407L10.0698 95.4607Z" fill="white"/>
</g>
<defs>
<clipPath id="clip0_2001_1696">
<rect width="301.01" height="204.7" fill="white"/>
</clipPath>
</defs>
</svg>
