<svg width="230" height="140" viewBox="0 0 230 140" fill="none" xmlns="http://www.w3.org/2000/svg">
<path d="M96.8237 40.5448C96.8237 40.5933 96.7571 40.6205 96.6269 40.6326C96.4936 40.6448 96.3997 40.6387 96.3482 40.6145L77.9981 20.8197C77.0926 19.8506 76.29 19.1904 75.5844 18.8481C74.8787 18.5059 74.2064 18.3333 73.5704 18.3333C73.4886 18.3333 73.4492 18.2636 73.4492 18.1183C73.4492 17.9759 73.4886 17.9062 73.5704 17.9062C74.0489 17.9062 74.5334 17.9184 75.0271 17.9426C75.5177 17.9668 75.9629 17.9759 76.3627 17.9759C76.8412 17.9759 77.2925 17.9638 77.7195 17.9426C78.1435 17.9184 78.4615 17.9062 78.6765 17.9062C79.0218 17.9062 79.261 18.0425 79.3943 18.3151C79.5276 18.5877 79.9122 19.0662 80.5512 19.7537L96.5088 37.2043L96.8237 40.5448ZM76.717 36.2442V18.724L77.6347 18.7936V36.2442C77.6347 37.4769 77.874 38.3582 78.3525 38.8912C78.831 39.4242 79.6275 39.6908 80.745 39.6908C80.8238 39.6908 80.8662 39.7604 80.8662 39.9058C80.8662 40.0481 80.8268 40.1178 80.745 40.1178C80.212 40.1178 79.6699 40.1057 79.1096 40.0815C78.5524 40.0572 77.9254 40.0481 77.2349 40.0481C76.5686 40.0481 75.9326 40.0603 75.3209 40.0815C74.7091 40.1057 74.1246 40.1178 73.5673 40.1178C73.5128 40.1178 73.4856 40.0481 73.4856 39.9058C73.4856 39.7634 73.5128 39.6908 73.5673 39.6908C74.7364 39.6908 75.5541 39.4242 76.0205 38.8912C76.4869 38.3582 76.717 37.4769 76.717 36.2442ZM96.8237 21.8161V40.5478L95.9061 39.4455V21.8161C95.9061 20.5865 95.6729 19.6961 95.2095 19.151C94.7461 18.6058 93.9648 18.3333 92.8745 18.3333C92.82 18.3333 92.7957 18.2636 92.7957 18.1183C92.7957 17.9759 92.823 17.9062 92.8745 17.9062C93.4075 17.9062 93.9587 17.9244 94.5311 17.9608C95.1035 17.9941 95.7213 18.0153 96.3876 18.0153C97.0266 18.0153 97.6566 17.9971 98.2805 17.9608C98.9044 17.9244 99.4858 17.9062 100.016 17.9062C100.095 17.9062 100.134 17.9759 100.134 18.1183C100.134 18.2606 100.095 18.3333 100.016 18.3333C98.871 18.3333 98.0533 18.6058 97.5627 19.151C97.0721 19.6961 96.8237 20.5835 96.8237 21.8161Z" fill="white"/>
<path d="M126.699 40.2998C123.849 40.2998 121.405 39.7971 119.369 38.7916C117.334 37.7892 115.781 36.4354 114.712 34.7333C113.642 33.0313 113.109 31.1414 113.109 29.0608C113.109 27.3133 113.473 25.7233 114.2 24.2938C114.927 22.8644 115.941 21.6287 117.252 20.5899C118.561 19.5511 120.102 18.7455 121.871 18.1792C123.64 17.6128 125.569 17.3281 127.656 17.3281C128.852 17.3281 130.021 17.4341 131.169 17.6461C132.314 17.8581 133.255 18.1761 133.991 18.6031C134.222 18.7455 134.349 18.8636 134.373 18.9575C134.397 19.0514 134.424 19.2058 134.449 19.4178L134.906 23.3883C134.906 23.4367 134.836 23.4791 134.697 23.5125C134.558 23.5488 134.473 23.5185 134.449 23.4246C133.888 21.6984 132.883 20.3809 131.432 19.4723C129.982 18.5607 128.173 18.1065 126.011 18.1065C122.78 18.1065 120.29 18.9757 118.546 20.7141C116.804 22.4494 115.932 24.8087 115.932 27.7858C115.932 30.1269 116.441 32.1863 117.458 33.9701C118.476 35.7539 119.863 37.1562 121.62 38.1707C123.376 39.1883 125.372 39.6941 127.613 39.6941C128.861 39.6941 129.854 39.5881 130.59 39.3761C131.329 39.1641 131.862 38.7492 132.192 38.1344C132.523 37.5196 132.689 36.611 132.689 35.4026C132.689 34.27 132.613 33.4341 132.459 32.9041C132.307 32.371 131.926 32.0227 131.314 31.8592C130.702 31.6926 129.724 31.6109 128.376 31.6109C128.222 31.6109 128.146 31.517 128.146 31.3262C128.146 31.1384 128.21 31.0445 128.337 31.0445C129.939 31.1384 131.402 31.1929 132.725 31.202C134.049 31.2141 135.436 31.1838 136.887 31.1142C137.014 31.1142 137.077 31.1959 137.077 31.3625C137.077 31.5291 137.014 31.6109 136.887 31.6109C136.302 31.5866 135.875 31.6654 135.609 31.841C135.342 32.0167 135.169 32.4013 135.094 32.9919C135.018 33.5825 134.979 34.5062 134.979 35.757C134.979 36.5383 135.003 37.1168 135.054 37.4923C135.106 37.8709 135.151 38.1495 135.188 38.3252C135.227 38.5039 135.245 38.6856 135.245 38.8734C135.245 39.0157 135.221 39.1096 135.169 39.155C135.118 39.2035 135.003 39.2489 134.827 39.2974C133.528 39.579 132.174 39.8153 130.763 40.0061C129.352 40.206 127.998 40.2998 126.699 40.2998Z" fill="white"/>
<path d="M29.834 139.334C29.7916 139.334 29.7734 139.274 29.7734 139.15C29.7734 139.026 29.7946 138.965 29.834 138.965C30.5972 138.965 31.1726 138.914 31.5633 138.811C31.954 138.708 32.2114 138.502 32.3356 138.193C32.4598 137.884 32.5204 137.433 32.5204 136.833V122.529C32.5204 121.932 32.4598 121.484 32.3356 121.184C32.2114 120.884 31.9601 120.678 31.5785 120.566C31.1969 120.454 30.6245 120.397 29.8643 120.397C29.8219 120.397 29.8037 120.336 29.8037 120.212C29.8037 120.088 29.8249 120.027 29.8643 120.027C30.3579 120.027 30.9152 120.042 31.533 120.073C32.1509 120.103 32.799 120.118 33.4804 120.118C34.2224 120.118 34.9069 120.103 35.5338 120.073C36.1607 120.042 36.724 120.027 37.2177 120.027C37.2601 120.027 37.2782 120.088 37.2782 120.212C37.2782 120.336 37.257 120.397 37.2177 120.397C36.4545 120.397 35.8851 120.457 35.5035 120.582C35.1219 120.706 34.8645 120.921 34.7312 121.23C34.598 121.539 34.5313 121.993 34.5313 122.59V136.83C34.5313 137.426 34.5919 137.881 34.7161 138.19C34.8402 138.499 35.0977 138.705 35.4884 138.808C35.879 138.91 36.4575 138.962 37.2177 138.962C37.2601 138.962 37.2782 139.023 37.2782 139.147C37.2782 139.271 37.257 139.331 37.2177 139.331C36.7028 139.331 36.1365 139.322 35.5186 139.301C34.9008 139.28 34.2224 139.271 33.4804 139.271C32.802 139.271 32.1478 139.283 31.5179 139.301C30.888 139.325 30.3277 139.334 29.834 139.334ZM44.9102 139.334C44.7255 139.334 44.5498 139.304 44.3863 139.241C44.2228 139.18 44.0047 138.992 43.7382 138.683C43.4717 138.374 43.0779 137.866 42.5631 137.154C42.0482 136.442 41.3365 135.44 40.431 134.144C39.792 133.217 39.2529 132.454 38.8107 131.857C38.3685 131.26 37.9657 130.803 37.6053 130.482C37.2449 130.164 36.8573 129.937 36.4454 129.804C36.0335 129.67 35.5277 129.604 34.9311 129.604C34.7252 129.604 34.5101 129.616 34.283 129.634C34.0558 129.655 33.8287 129.676 33.6046 129.695L33.5743 129.137C34.8705 129.077 35.879 129.043 36.6029 129.043C37.2813 129.043 37.8446 129.101 38.2867 129.213C38.7289 129.328 39.1317 129.543 39.4921 129.861C39.8525 130.179 40.2553 130.633 40.6975 131.221C41.1397 131.808 41.703 132.575 42.3814 133.523C43.2052 134.677 43.9411 135.655 44.5892 136.457C45.2373 137.26 45.8915 137.875 46.5517 138.296C47.2089 138.717 47.963 138.941 48.808 138.959C48.8474 138.959 48.8686 139.02 48.8686 139.144C48.8686 139.268 48.8474 139.328 48.808 139.328H44.9102V139.334ZM37.5871 129.543L37.0299 129.264L40.9216 123.828C41.8908 122.511 42.3572 121.608 42.3269 121.127C42.2966 120.642 41.7666 120.4 40.7369 120.4C40.6945 120.4 40.6763 120.339 40.6763 120.215C40.6763 120.091 40.6975 120.03 40.7369 120.03C41.2305 120.03 41.7363 120.046 42.2512 120.076C42.766 120.106 43.4353 120.121 44.2591 120.121C45.0829 120.121 45.728 120.106 46.1913 120.076C46.6547 120.046 47.1029 120.03 47.536 120.03C47.5966 120.03 47.6269 120.091 47.6269 120.215C47.6269 120.339 47.5966 120.4 47.536 120.4C46.8152 120.4 46.155 120.518 45.5583 120.754C44.9617 120.99 44.3802 121.363 43.8139 121.866C43.2475 122.371 42.6539 123.035 42.0361 123.858L37.5871 129.543Z" fill="white"/>
<path d="M63.3484 139.334H50.4043C50.3619 139.334 50.3438 139.274 50.3438 139.15C50.3438 139.026 50.365 138.965 50.4043 138.965C51.1675 138.965 51.7339 138.914 52.1033 138.811C52.4728 138.708 52.7272 138.502 52.8605 138.193C52.9937 137.884 53.0604 137.433 53.0604 136.833V122.529C53.0604 121.932 52.9937 121.484 52.8605 121.184C52.7272 120.884 52.4728 120.678 52.1033 120.566C51.7339 120.454 51.1675 120.397 50.4043 120.397C50.3619 120.397 50.3438 120.336 50.3438 120.212C50.3438 120.088 50.365 120.027 50.4043 120.027H62.8215C63.0062 120.027 63.1001 120.121 63.1001 120.306L63.1607 124.107C63.1607 124.167 63.1031 124.204 62.9911 124.216C62.876 124.228 62.8215 124.201 62.8215 124.14C62.7609 123.029 62.4247 122.175 61.819 121.575C61.2103 120.978 60.4228 120.678 59.4567 120.678H57.5729C56.8733 120.678 56.3433 120.73 55.9829 120.833C55.6225 120.936 55.3742 121.133 55.241 121.42C55.1077 121.708 55.0411 122.132 55.0411 122.686V136.712C55.0411 137.248 55.1077 137.66 55.241 137.947C55.3742 138.235 55.6104 138.432 55.9527 138.535C56.2919 138.638 56.8007 138.689 57.4821 138.689H59.9534C60.9407 138.689 61.7706 138.335 62.4399 137.623C63.1092 136.912 63.5453 135.952 63.7512 134.734C63.7512 134.674 63.8118 134.652 63.936 134.674C64.0602 134.695 64.1207 134.734 64.1207 134.798C64.0389 135.334 63.9723 135.982 63.9208 136.745C63.8694 137.508 63.8451 138.217 63.8451 138.877C63.8421 139.18 63.6786 139.334 63.3484 139.334ZM61.6191 132.136C61.6191 131.23 61.398 130.582 60.9559 130.188C60.5137 129.798 59.7777 129.601 58.748 129.601H54.1143V128.953H58.8419C59.8292 128.953 60.5349 128.783 60.9589 128.444C61.3799 128.105 61.5919 127.553 61.5919 126.79C61.5919 126.748 61.6524 126.73 61.7766 126.73C61.9008 126.73 61.9614 126.751 61.9614 126.79C61.9614 127.408 61.9553 127.886 61.9462 128.226C61.9341 128.565 61.9311 128.919 61.9311 129.292C61.9311 129.767 61.9402 130.231 61.9614 130.682C61.9826 131.136 61.9916 131.618 61.9916 132.133C61.9916 132.175 61.9311 132.193 61.8069 132.193C61.6797 132.199 61.6191 132.178 61.6191 132.136Z" fill="white"/>
<path d="M66.7481 139.336C66.7057 139.336 66.6875 139.276 66.6875 139.151C66.6875 139.027 66.7087 138.967 66.7481 138.967C67.5082 138.967 68.0867 138.915 68.4774 138.812C68.8681 138.709 69.1316 138.503 69.2648 138.194C69.3981 137.885 69.4647 137.434 69.4647 136.835V122.531C69.4647 121.934 69.3981 121.486 69.2648 121.186C69.1316 120.886 68.8741 120.68 68.4925 120.568C68.1109 120.456 67.5385 120.398 66.7784 120.398C66.736 120.398 66.7178 120.338 66.7178 120.214C66.7178 120.09 66.739 120.029 66.7784 120.029C67.272 120.029 67.8323 120.044 68.4622 120.074C69.0892 120.105 69.7433 120.12 70.4247 120.12C71.1849 120.12 71.8754 120.105 72.4933 120.074C73.1111 120.044 73.6684 120.029 74.162 120.029C74.2044 120.029 74.2226 120.09 74.2226 120.214C74.2226 120.338 74.2014 120.398 74.162 120.398C73.3988 120.398 72.8234 120.459 72.4327 120.583C72.042 120.707 71.7785 120.922 71.6453 121.231C71.512 121.54 71.4454 121.995 71.4454 122.591V136.831C71.4454 137.428 71.506 137.882 71.6301 138.191C71.7543 138.5 72.0178 138.706 72.4176 138.809C72.8204 138.912 73.4018 138.964 74.162 138.964C74.2044 138.964 74.2226 139.024 74.2226 139.148C74.2226 139.273 74.2014 139.333 74.162 139.333C73.6472 139.333 73.0869 139.324 72.4781 139.303C71.8694 139.282 71.1849 139.273 70.4247 139.273C69.7463 139.273 69.0861 139.285 68.4471 139.303C67.8081 139.327 67.2417 139.336 66.7481 139.336ZM70.764 137.113L70.24 136.619L83.8322 122.131L84.3259 122.594L70.764 137.113ZM77.1906 118.175C77.8084 118.175 78.293 117.985 78.6413 117.603C78.9926 117.221 79.2379 116.785 79.3833 116.292C79.4862 115.901 79.6195 115.556 79.7861 115.256C79.9496 114.956 80.2404 114.808 80.6522 114.808C80.94 114.808 81.158 114.896 81.3004 115.071C81.4427 115.247 81.5154 115.477 81.5154 115.765C81.5154 116.258 81.3094 116.719 80.8976 117.14C80.4857 117.561 79.9557 117.903 79.3076 118.16C78.6594 118.418 77.9629 118.545 77.2239 118.545C76.4819 118.545 75.7823 118.412 75.1221 118.142C74.4618 117.876 73.9379 117.524 73.5472 117.091C73.1565 116.658 72.9597 116.207 72.9597 115.731C72.9597 115.444 73.0324 115.217 73.1747 115.053C73.317 114.889 73.5351 114.805 73.8228 114.805C74.2771 114.805 74.5739 114.953 74.7193 115.253C74.8646 115.553 74.9858 115.898 75.0888 116.289C75.2311 116.743 75.4643 117.17 75.7823 117.57C76.1033 117.976 76.5728 118.175 77.1906 118.175ZM80.2161 139.336C80.1737 139.336 80.1555 139.276 80.1555 139.151C80.1555 139.027 80.1768 138.967 80.2161 138.967C81.0187 138.967 81.6123 138.915 81.9939 138.812C82.3755 138.709 82.6269 138.503 82.751 138.194C82.8752 137.885 82.9358 137.434 82.9358 136.835V122.594C82.9358 121.998 82.8752 121.543 82.751 121.234C82.6269 120.925 82.3755 120.71 81.9939 120.586C81.6123 120.462 81.0217 120.401 80.2161 120.401C80.1737 120.401 80.1555 120.341 80.1555 120.217C80.1555 120.093 80.1768 120.032 80.2161 120.032C80.731 120.032 81.2913 120.047 81.9 120.077C82.5057 120.108 83.1932 120.123 83.9534 120.123C84.6318 120.123 85.292 120.108 85.931 120.077C86.5701 120.047 87.1364 120.032 87.6301 120.032C87.6695 120.032 87.6906 120.093 87.6906 120.217C87.6906 120.341 87.6695 120.401 87.6301 120.401C86.8669 120.401 86.2914 120.459 85.9008 120.571C85.5101 120.683 85.2526 120.889 85.1285 121.189C85.0043 121.489 84.9437 121.937 84.9437 122.534V136.838C84.9437 137.434 85.0043 137.888 85.1285 138.197C85.2526 138.506 85.5101 138.712 85.9008 138.815C86.2914 138.918 86.8699 138.97 87.6301 138.97C87.6695 138.97 87.6906 139.03 87.6906 139.154C87.6906 139.279 87.6695 139.339 87.6301 139.339C87.1364 139.339 86.5701 139.33 85.931 139.309C85.292 139.288 84.6348 139.279 83.9534 139.279C83.1902 139.279 82.5057 139.291 81.9 139.309C81.2913 139.327 80.731 139.336 80.2161 139.336Z" fill="white"/>
<path d="M94.5517 120.584C93.2736 120.584 92.3136 120.914 91.6624 121.572C91.0143 122.232 90.5449 123.352 90.2572 124.939C90.2572 124.982 90.1996 125 90.0876 125C89.9755 125 89.918 124.979 89.918 124.939C89.9604 124.673 89.9997 124.297 90.0421 123.813C90.0845 123.328 90.13 122.807 90.1815 122.253C90.2329 121.696 90.2753 121.157 90.3056 120.633C90.3359 120.109 90.3511 119.682 90.3511 119.352C90.3511 119.249 90.4086 119.197 90.5207 119.197C90.6327 119.197 90.6903 119.249 90.6903 119.352C90.6903 119.558 90.7932 119.706 90.9992 119.8C91.2051 119.894 91.4353 119.954 91.6927 119.985C91.9501 120.015 92.1712 120.03 92.356 120.03C94.1277 120.091 96.1962 120.124 98.5645 120.124C100.027 120.124 101.184 120.109 102.041 120.079C102.895 120.048 103.725 120.033 104.528 120.033C105.227 120.033 105.77 119.988 106.148 119.894C106.53 119.8 106.772 119.591 106.875 119.261C106.896 119.179 106.957 119.137 107.06 119.137C107.163 119.137 107.214 119.179 107.214 119.261C107.193 119.57 107.163 119.991 107.12 120.527C107.078 121.063 107.048 121.62 107.026 122.196C107.005 122.774 106.984 123.307 106.966 123.801C106.945 124.294 106.936 124.676 106.936 124.942C106.936 124.985 106.875 125.003 106.751 125.003C106.627 125.003 106.566 124.982 106.566 124.942C106.505 123.337 106.175 122.208 105.579 121.56C104.982 120.911 103.992 120.587 102.614 120.587C101.748 120.587 101.099 120.63 100.666 120.712C100.233 120.793 99.9516 120.975 99.8184 121.254C99.6851 121.532 99.6185 121.981 99.6185 122.598V136.839C99.6185 137.435 99.6912 137.89 99.8335 138.199C99.9759 138.507 100.261 138.713 100.682 138.816C101.102 138.919 101.748 138.971 102.614 138.971C102.674 138.971 102.708 139.031 102.708 139.156C102.708 139.28 102.677 139.34 102.614 139.34C102.078 139.34 101.472 139.331 100.791 139.31C100.112 139.289 99.3701 139.28 98.5676 139.28C97.8044 139.28 97.0836 139.292 96.4052 139.31C95.7268 139.331 95.1089 139.34 94.5517 139.34C94.5093 139.34 94.4911 139.28 94.4911 139.156C94.4911 139.031 94.5123 138.971 94.5517 138.971C95.3967 138.971 96.0387 138.919 96.4839 138.816C96.9261 138.713 97.2198 138.507 97.3652 138.199C97.5076 137.89 97.5803 137.438 97.5803 136.839V122.535C97.5803 121.917 97.5076 121.469 97.3652 121.19C97.2198 120.911 96.9321 120.742 96.499 120.681C96.066 120.615 95.4148 120.584 94.5517 120.584Z" fill="white"/>
<path d="M122.598 139.334H109.654C109.612 139.334 109.594 139.274 109.594 139.15C109.594 139.026 109.615 138.965 109.654 138.965C110.418 138.965 110.984 138.914 111.353 138.811C111.723 138.708 111.977 138.502 112.11 138.193C112.244 137.884 112.31 137.433 112.31 136.833V122.529C112.31 121.932 112.244 121.484 112.11 121.184C111.977 120.884 111.723 120.678 111.353 120.566C110.984 120.454 110.418 120.397 109.654 120.397C109.612 120.397 109.594 120.336 109.594 120.212C109.594 120.088 109.615 120.027 109.654 120.027H122.071C122.256 120.027 122.35 120.121 122.35 120.306L122.411 124.107C122.411 124.167 122.353 124.204 122.241 124.216C122.126 124.228 122.071 124.201 122.071 124.14C122.011 123.029 121.675 122.175 121.069 121.575C120.46 120.978 119.673 120.678 118.707 120.678H116.823C116.123 120.678 115.593 120.73 115.233 120.833C114.873 120.936 114.624 121.133 114.491 121.42C114.358 121.708 114.291 122.132 114.291 122.686V136.712C114.291 137.248 114.358 137.66 114.491 137.947C114.624 138.235 114.863 138.432 115.203 138.535C115.542 138.638 116.051 138.689 116.732 138.689H119.203C120.191 138.689 121.021 138.335 121.69 137.623C122.359 136.912 122.795 135.952 123.001 134.734C123.001 134.674 123.062 134.652 123.186 134.674C123.31 134.695 123.371 134.734 123.371 134.798C123.289 135.334 123.222 135.982 123.171 136.745C123.119 137.508 123.095 138.217 123.095 138.877C123.095 139.18 122.929 139.334 122.598 139.334ZM120.869 132.136C120.869 131.23 120.648 130.582 120.206 130.188C119.764 129.798 119.028 129.601 117.998 129.601H113.364V128.953H118.092C119.079 128.953 119.785 128.783 120.209 128.444C120.63 128.105 120.842 127.553 120.842 126.79C120.842 126.748 120.902 126.73 121.027 126.73C121.151 126.73 121.211 126.751 121.211 126.79C121.211 127.408 121.205 127.886 121.196 128.226C121.184 128.565 121.181 128.919 121.181 129.292C121.181 129.767 121.19 130.231 121.211 130.682C121.233 131.136 121.242 131.618 121.242 132.133C121.242 132.175 121.181 132.193 121.057 132.193C120.933 132.199 120.869 132.178 120.869 132.136Z" fill="white"/>
<path d="M130.851 136.711C130.851 137.329 130.932 137.798 131.099 138.116C131.262 138.437 131.614 138.658 132.15 138.78C132.686 138.904 133.479 138.964 134.527 138.964C134.588 138.964 134.621 139.025 134.621 139.149C134.621 139.273 134.591 139.334 134.527 139.334C133.867 139.334 133.152 139.325 132.38 139.303C131.608 139.282 130.769 139.273 129.863 139.273C129.185 139.273 128.531 139.285 127.901 139.303C127.271 139.325 126.71 139.334 126.217 139.334C126.174 139.334 126.156 139.273 126.156 139.149C126.156 139.025 126.177 138.964 126.217 138.964C126.977 138.964 127.546 138.913 127.916 138.81C128.285 138.707 128.534 138.501 128.658 138.192C128.782 137.883 128.843 137.432 128.843 136.832V122.528C128.843 121.932 128.782 121.483 128.658 121.184C128.534 120.884 128.288 120.678 127.916 120.566C127.546 120.454 126.98 120.396 126.217 120.396C126.174 120.396 126.156 120.335 126.156 120.211C126.156 120.087 126.177 120.027 126.217 120.027C126.71 120.027 127.268 120.042 127.886 120.072C128.503 120.102 129.152 120.117 129.833 120.117C130.369 120.117 131.023 120.087 131.795 120.024C132.568 119.963 133.346 119.93 134.127 119.93C135.303 119.93 136.356 120.105 137.292 120.454C138.228 120.805 138.976 121.35 139.533 122.092C140.091 122.834 140.378 123.803 140.4 124.996C140.4 126.09 140.2 127.026 139.797 127.807C139.394 128.588 138.858 129.233 138.192 129.739C137.522 130.245 136.787 130.621 135.984 130.866C135.181 131.114 134.379 131.235 133.573 131.235C133.325 131.235 133.074 131.226 132.816 131.205C132.559 131.184 132.316 131.144 132.089 131.081C132.007 131.06 131.98 130.984 132.014 130.851C132.044 130.717 132.089 130.66 132.153 130.681C132.338 130.724 132.528 130.754 132.725 130.775C132.922 130.796 133.101 130.805 133.267 130.805C134.112 130.805 134.906 130.621 135.645 130.248C136.387 129.879 136.983 129.306 137.438 128.534C137.892 127.762 138.116 126.798 138.116 125.645C138.116 124.512 137.91 123.558 137.498 122.786C137.086 122.013 136.52 121.423 135.799 121.008C135.078 120.596 134.276 120.39 133.388 120.39C132.71 120.39 132.189 120.426 131.829 120.499C131.468 120.572 131.217 120.763 131.072 121.071C130.926 121.38 130.857 121.886 130.857 122.586V136.711H130.851Z" fill="white"/>
<path d="M142.771 139.334C142.729 139.334 142.711 139.274 142.711 139.15C142.711 139.026 142.732 138.965 142.771 138.965C143.532 138.965 144.11 138.914 144.501 138.811C144.892 138.708 145.155 138.502 145.288 138.193C145.421 137.884 145.488 137.433 145.488 136.833V122.529C145.488 121.932 145.421 121.484 145.288 121.184C145.155 120.884 144.898 120.678 144.516 120.566C144.134 120.454 143.562 120.397 142.802 120.397C142.759 120.397 142.741 120.336 142.741 120.212C142.741 120.088 142.762 120.027 142.802 120.027C143.295 120.027 143.856 120.042 144.486 120.073C145.113 120.103 145.767 120.118 146.448 120.118C147.208 120.118 147.899 120.103 148.517 120.073C149.135 120.042 149.692 120.027 150.185 120.027C150.228 120.027 150.246 120.088 150.246 120.212C150.246 120.336 150.225 120.397 150.185 120.397C149.422 120.397 148.847 120.457 148.456 120.582C148.065 120.706 147.802 120.921 147.669 121.23C147.535 121.539 147.469 121.993 147.469 122.59V136.83C147.469 137.426 147.529 137.881 147.654 138.19C147.778 138.499 148.041 138.705 148.441 138.808C148.844 138.91 149.425 138.962 150.185 138.962C150.228 138.962 150.246 139.023 150.246 139.147C150.246 139.271 150.225 139.331 150.185 139.331C149.671 139.331 149.11 139.322 148.502 139.301C147.893 139.28 147.208 139.271 146.448 139.271C145.77 139.271 145.11 139.283 144.471 139.301C143.832 139.325 143.265 139.334 142.771 139.334ZM146.787 137.112L146.263 136.618L159.856 122.129L160.349 122.593L146.787 137.112ZM156.24 139.334C156.197 139.334 156.179 139.274 156.179 139.15C156.179 139.026 156.2 138.965 156.24 138.965C157.042 138.965 157.636 138.914 158.017 138.811C158.399 138.708 158.65 138.502 158.774 138.193C158.899 137.884 158.959 137.433 158.959 136.833V122.593C158.959 121.996 158.899 121.542 158.774 121.233C158.65 120.924 158.399 120.709 158.017 120.585C157.636 120.46 157.045 120.4 156.24 120.4C156.197 120.4 156.179 120.339 156.179 120.215C156.179 120.091 156.2 120.03 156.24 120.03C156.754 120.03 157.315 120.046 157.923 120.076C158.529 120.106 159.217 120.121 159.977 120.121C160.655 120.121 161.315 120.106 161.954 120.076C162.594 120.046 163.16 120.03 163.653 120.03C163.693 120.03 163.714 120.091 163.714 120.215C163.714 120.339 163.693 120.4 163.653 120.4C162.89 120.4 162.315 120.457 161.924 120.569C161.534 120.682 161.276 120.887 161.152 121.187C161.028 121.487 160.967 121.935 160.967 122.532V136.836C160.967 137.433 161.028 137.887 161.152 138.196C161.276 138.505 161.534 138.711 161.924 138.814C162.315 138.917 162.893 138.968 163.653 138.968C163.693 138.968 163.714 139.029 163.714 139.153C163.714 139.277 163.693 139.338 163.653 139.338C163.16 139.338 162.594 139.328 161.954 139.307C161.315 139.286 160.658 139.277 159.977 139.277C159.214 139.277 158.529 139.289 157.923 139.307C157.315 139.325 156.754 139.334 156.24 139.334Z" fill="white"/>
<path d="M168.566 136.833V122.529C168.566 121.932 168.5 121.484 168.366 121.184C168.233 120.884 167.976 120.678 167.594 120.566C167.212 120.454 166.64 120.397 165.88 120.397C165.838 120.397 165.819 120.336 165.819 120.212C165.819 120.088 165.841 120.027 165.88 120.027C166.374 120.027 166.934 120.042 167.564 120.073C168.191 120.103 168.845 120.118 169.526 120.118C170.286 120.118 170.977 120.103 171.595 120.073C172.213 120.042 172.77 120.027 173.264 120.027C173.306 120.027 173.324 120.088 173.324 120.212C173.324 120.336 173.303 120.397 173.264 120.397C172.5 120.397 171.925 120.457 171.534 120.582C171.144 120.706 170.88 120.921 170.747 121.23C170.614 121.539 170.547 121.993 170.547 122.59V136.83C170.547 137.426 170.608 137.881 170.732 138.19C170.856 138.499 171.119 138.705 171.519 138.808C171.922 138.91 172.503 138.962 173.264 138.962C173.306 138.962 173.324 139.023 173.324 139.147C173.324 139.271 173.303 139.331 173.264 139.331C172.749 139.331 172.188 139.322 171.58 139.301C170.971 139.28 170.286 139.271 169.526 139.271C168.848 139.271 168.188 139.283 167.549 139.301C166.91 139.322 166.343 139.331 165.85 139.331C165.807 139.331 165.789 139.271 165.789 139.147C165.789 139.023 165.81 138.962 165.85 138.962C166.61 138.962 167.188 138.91 167.579 138.808C167.97 138.705 168.233 138.499 168.366 138.19C168.5 137.884 168.566 137.43 168.566 136.833ZM169.463 129.604V128.956H183.27V129.604H169.463ZM182.404 122.593C182.404 121.996 182.343 121.542 182.219 121.233C182.095 120.924 181.844 120.709 181.462 120.585C181.08 120.46 180.49 120.4 179.684 120.4C179.624 120.4 179.59 120.339 179.59 120.215C179.59 120.091 179.621 120.03 179.684 120.03C180.178 120.03 180.735 120.046 181.353 120.076C181.971 120.106 182.661 120.121 183.421 120.121C184.1 120.121 184.76 120.106 185.399 120.076C186.038 120.046 186.592 120.03 187.068 120.03C187.128 120.03 187.162 120.091 187.162 120.215C187.162 120.339 187.131 120.4 187.068 120.4C186.305 120.4 185.729 120.457 185.339 120.569C184.948 120.682 184.69 120.887 184.566 121.187C184.442 121.487 184.381 121.935 184.381 122.532V136.836C184.381 137.433 184.442 137.887 184.566 138.196C184.69 138.505 184.948 138.711 185.339 138.814C185.729 138.917 186.308 138.968 187.068 138.968C187.128 138.968 187.162 139.029 187.162 139.153C187.162 139.277 187.131 139.338 187.068 139.338C186.595 139.338 186.038 139.328 185.399 139.307C184.76 139.286 184.103 139.277 183.421 139.277C182.658 139.277 181.971 139.289 181.353 139.307C180.735 139.328 180.178 139.338 179.684 139.338C179.624 139.338 179.59 139.277 179.59 139.153C179.59 139.029 179.621 138.968 179.684 138.968C180.487 138.968 181.08 138.917 181.462 138.814C181.844 138.711 182.095 138.505 182.219 138.196C182.343 137.887 182.404 137.436 182.404 136.836V122.593Z" fill="white"/>
<path d="M189.51 139.334C189.467 139.334 189.449 139.274 189.449 139.15C189.449 139.026 189.47 138.965 189.51 138.965C190.27 138.965 190.842 138.914 191.224 138.811C191.606 138.708 191.863 138.502 191.996 138.193C192.13 137.884 192.196 137.433 192.196 136.833V122.529C192.196 121.932 192.13 121.484 191.996 121.184C191.863 120.884 191.609 120.678 191.239 120.566C190.87 120.454 190.303 120.397 189.54 120.397C189.498 120.397 189.479 120.336 189.479 120.212C189.479 120.088 189.501 120.027 189.54 120.027H202.608C202.814 120.027 202.917 120.121 202.917 120.306L202.978 124.322C202.978 124.382 202.917 124.419 202.793 124.431C202.669 124.443 202.608 124.416 202.608 124.355C202.527 123.18 202.181 122.275 201.573 121.636C200.964 120.997 200.155 120.678 199.147 120.678H196.706C195.676 120.678 194.998 120.803 194.667 121.048C194.337 121.296 194.174 121.799 194.174 122.562V136.712C194.174 137.33 194.262 137.799 194.437 138.117C194.613 138.438 194.973 138.659 195.518 138.78C196.064 138.904 196.872 138.965 197.944 138.965C198.005 138.965 198.038 139.026 198.038 139.15C198.038 139.274 198.008 139.334 197.944 139.334C197.266 139.334 196.539 139.325 195.767 139.304C194.995 139.283 194.134 139.274 193.187 139.274C192.508 139.274 191.848 139.286 191.209 139.304C190.57 139.325 190.003 139.334 189.51 139.334Z" fill="white"/>
<path d="M11.8963 133.609C13.4786 133.609 14.7613 132.326 14.7613 130.744C14.7613 129.162 13.4786 127.879 11.8963 127.879C10.314 127.879 9.03125 129.162 9.03125 130.744C9.03125 132.326 10.314 133.609 11.8963 133.609Z" fill="white"/>
<path d="M217.56 133.601C219.143 133.601 220.425 132.318 220.425 130.736C220.425 129.154 219.143 127.871 217.56 127.871C215.978 127.871 214.695 129.154 214.695 130.736C214.695 132.318 215.978 133.601 217.56 133.601Z" fill="white"/>
<path d="M139.201 36.3974C142.139 33.8503 143.305 21.8693 143.044 19.5252C142.52 14.8097 137.568 6.57503 129.303 3.69789C126.581 2.74995 123.634 1.94737 120.209 1.94737C117.865 1.94737 115.96 2.12 114.491 2.46526C113.022 2.81355 111.995 3.63126 111.411 4.92749C110.82 6.22372 110.526 8.29526 110.526 11.1482V70.8776C110.526 73.3883 110.796 75.2842 111.332 76.5835C111.868 77.8767 113.046 78.7398 114.854 79.1729C116.662 79.606 119.379 79.821 122.995 79.821C123.289 79.821 123.437 80.0784 123.437 80.6024C123.437 81.1203 123.289 81.3777 122.995 81.3777C120.651 81.3777 118.034 81.3353 115.148 81.2444C112.265 81.1596 109.115 81.1173 105.69 81.1173C102.467 81.1173 99.357 81.1596 96.3799 81.2444C93.3967 81.3353 90.6801 81.3777 88.2391 81.3777C88.0422 81.3777 87.9453 81.1203 87.9453 80.6024C87.9453 80.0815 88.0422 79.821 88.2391 79.821C91.8552 79.821 94.5658 79.606 96.3799 79.1729C98.1879 78.7398 99.4357 77.8767 100.117 76.5835C100.805 75.2873 101.144 73.3883 101.144 70.8776V10.8907C101.144 8.38612 100.829 6.50538 100.196 5.25458C99.5569 4.00075 98.3636 3.13456 96.604 2.66211C94.8444 2.18965 92.152 1.9504 88.5359 1.9504C88.2421 1.9504 88.0937 1.69297 88.0937 1.16902C88.0937 0.651138 88.2421 0.393711 88.5359 0.393711C90.88 0.393711 93.5239 0.457315 96.4556 0.587544C99.3933 0.714744 102.47 0.781377 105.693 0.781377C108.234 0.781377 111.22 0.648108 114.639 0.390679C118.064 0.13325 120.948 0 123.292 0C131.311 0 137.432 1.47189 141.702 4.34298C149.144 9.34921 150.016 22.0813 146.893 27.7932C144.216 32.6843 139.201 36.3974 139.201 36.3974Z" fill="white"/>
<path d="M11.201 74.35C9.41108 70.8399 9.14153 68.2353 9.00827 66.1668C8.86593 63.962 10.574 62.3295 13.0817 60.6154C14.1902 59.8582 13.3058 64.9069 13.2604 68.1717C13.1786 74.0562 13.3119 74.9315 14.1902 79.4198C14.1902 79.4198 11.8612 75.6432 11.201 74.35Z" fill="white"/>
<path d="M23.75 90.7778C44.3625 105.391 68.6122 102.041 99.004 92.9129C128.823 83.9544 155.417 66.7278 174.352 66.9368C192.881 67.1428 198.32 72.1248 200.997 76.6979C210.625 93.1431 180.267 99.821 160.711 86.4772C147.543 77.4944 141.019 70.2168 122.3 49.3287C120.952 47.8266 117.593 43.0898 117.593 43.0898H130.553C133.366 45.9337 143.224 58.8627 154.787 72.1338C158.945 76.9069 180.424 96.6017 194.843 89.8177C207.642 83.7969 192.681 72.6881 178.849 73.1666C165.018 73.6421 140.489 82.9186 129.995 87.2131C119.501 91.5046 80.9688 107.859 44.9773 102.165C36.1369 100.763 23.75 90.7778 23.75 90.7778Z" fill="white"/>
</svg>
