<svg width="230" height="140" viewBox="0 0 230 140" fill="none" xmlns="http://www.w3.org/2000/svg">
<path d="M191.841 47.7262C191.585 47.7984 191.323 47.8482 191.058 47.8749C190.81 47.8914 190.56 47.8914 190.311 47.8749C189.895 47.9233 189.474 47.8585 189.091 47.6875C188.709 47.5164 188.381 47.2455 188.141 46.9034C187.881 46.3577 187.763 45.7558 187.798 45.1529V35.4201L189.204 35V38.326H191.841V39.3062H189.204V45.1004C189.148 45.6162 189.255 46.1367 189.512 46.5883C189.643 46.7187 189.802 46.8185 189.977 46.8806C190.151 46.9426 190.338 46.9654 190.522 46.9472C190.812 46.9472 191.058 46.9472 191.261 46.9472C191.477 46.9165 191.69 46.8607 191.893 46.7809M114.439 39.455C114.239 39.3769 114.029 39.3268 113.815 39.3062C113.593 39.2936 113.37 39.2936 113.147 39.3062C112.78 39.2908 112.415 39.3697 112.087 39.5352C111.759 39.7007 111.48 39.9474 111.275 40.2515C110.866 40.862 110.654 41.583 110.669 42.3171V47.7437H109.315V38.3347H110.519V40.3478C110.675 39.7833 110.979 39.2699 111.398 38.8599C111.677 38.5657 112.033 38.3563 112.427 38.2559C112.712 38.177 113.009 38.1445 113.305 38.1597C113.707 38.171 114.106 38.2328 114.492 38.3435L114.439 39.455ZM123.746 43.3937H115.951C115.931 44.1785 116.158 44.9499 116.601 45.5993C116.947 46.0606 117.406 46.4265 117.933 46.6623C118.46 46.8982 119.04 46.9962 119.616 46.9472C120.204 46.9577 120.792 46.9167 121.373 46.8246C121.909 46.7313 122.429 46.5665 122.92 46.3345V47.4111C122.408 47.5976 121.878 47.7297 121.338 47.8049C120.756 47.885 120.168 47.923 119.581 47.9187C118.903 47.9596 118.225 47.8654 117.585 47.6414C116.945 47.4174 116.357 47.0683 115.854 46.6146C115.385 46.116 115.023 45.5274 114.791 44.8848C114.558 44.2422 114.459 43.5591 114.501 42.8773C114.467 42.2426 114.566 41.6079 114.793 41.014C115.02 40.4201 115.37 39.8801 115.819 39.4288C116.29 38.9948 116.844 38.6597 117.448 38.4431C118.052 38.2266 118.694 38.1332 119.334 38.1684C121.092 38.1684 122.375 38.7636 123.078 39.9714C123.566 40.9076 123.796 41.9553 123.746 43.0085V43.3937ZM122.323 42.4134C122.376 41.5401 122.093 40.6794 121.532 40.0064C121.248 39.7094 120.903 39.4773 120.521 39.3262C120.139 39.1751 119.728 39.1085 119.317 39.1312C118.877 39.1122 118.438 39.1825 118.026 39.3379C117.615 39.4933 117.239 39.7306 116.923 40.0352C116.606 40.3398 116.355 40.7055 116.185 41.1098C116.015 41.5141 115.929 41.9487 115.933 42.3871L122.323 42.4134ZM131.735 45.2317C131.741 45.5835 131.664 45.9318 131.512 46.2492C131.359 46.5666 131.135 46.8445 130.856 47.061C129.964 47.6991 128.877 48.0085 127.78 47.9362C127.301 47.9381 126.823 47.9089 126.348 47.8487C125.85 47.7791 125.359 47.6678 124.88 47.5161L124.968 46.4133C125.429 46.6036 125.909 46.7444 126.401 46.8334C126.871 46.9161 127.347 46.9571 127.824 46.9559C128.461 46.9902 129.093 46.8381 129.644 46.5183C129.85 46.3767 130.019 46.1872 130.136 45.9661C130.253 45.745 130.314 45.499 130.314 45.2492C130.314 44.9994 130.253 44.7533 130.136 44.5323C130.019 44.3112 129.85 44.1217 129.644 43.9801C129.08 43.6729 128.492 43.4124 127.886 43.2011C127.191 42.9683 126.531 42.6414 125.926 42.2296C125.647 42.0313 125.421 41.7681 125.268 41.463C125.115 41.1579 125.039 40.8201 125.047 40.4791C125.045 40.1305 125.141 39.7882 125.322 39.4901C125.504 39.192 125.764 38.9496 126.075 38.7898C126.883 38.3547 127.794 38.1431 128.712 38.1772C129.162 38.1731 129.612 38.2083 130.057 38.2822C130.493 38.3706 130.919 38.4996 131.331 38.6673L131.252 39.5426C130.405 39.2457 129.513 39.0977 128.615 39.1049C128.088 39.0861 127.562 39.1724 127.068 39.3588C126.846 39.4364 126.653 39.5825 126.519 39.776C126.385 39.9694 126.316 40.2002 126.321 40.4353C126.34 40.7478 126.455 41.0471 126.65 41.2928C126.845 41.5385 127.11 41.7188 127.411 41.8095C127.411 41.8095 128.009 42.0458 129.169 42.4746C129.946 42.7162 130.646 43.1568 131.199 43.7525C131.553 44.1641 131.743 44.69 131.735 45.2317ZM137.597 47.7262C137.341 47.7968 137.079 47.8465 136.815 47.8749C136.566 47.8911 136.317 47.8911 136.068 47.8749C135.652 47.9243 135.23 47.8599 134.847 47.6888C134.465 47.5177 134.137 47.2462 133.897 46.9034C133.638 46.3577 133.52 45.7558 133.554 45.1529V35.4201L134.908 35V38.326H137.544V39.3062H134.908V45.1004C134.85 45.6152 134.954 46.1353 135.207 46.5883C135.338 46.7187 135.497 46.8185 135.672 46.8806C135.846 46.9426 136.033 46.9654 136.217 46.9472C136.507 46.9472 136.754 46.9472 136.956 46.9472C137.175 46.9155 137.39 46.8597 137.597 46.7809V47.7262ZM39.4283 90.9198C39.5216 89.5313 39.0782 88.1598 38.1891 87.0862C37.7362 86.6208 37.1874 86.2586 36.5806 86.0244C35.9738 85.7902 35.3232 85.6896 34.6737 85.7296C33.9272 85.6991 33.1831 85.8305 32.4927 86.1146C31.8022 86.3987 31.182 86.8288 30.6748 87.375C29.7857 88.3249 29.2952 89.5775 29.3038 90.876L39.4283 90.9198ZM41.6782 92.469H29.295C29.2614 93.7144 29.621 94.939 30.3233 95.97C31.3252 97.3938 32.9218 98.1085 35.1131 98.1144C36.0426 98.126 36.9714 98.0616 37.8903 97.9218C38.7408 97.7689 39.568 97.507 40.3511 97.1428V98.8933C39.5364 99.1863 38.6944 99.3974 37.8376 99.5235C36.9231 99.6484 36.001 99.7098 35.0779 99.7073C34.0017 99.7714 32.9234 99.621 31.9062 99.2648C30.8891 98.9086 29.9535 98.3538 29.1544 97.633C28.4166 96.8416 27.8484 95.9088 27.4842 94.8916C27.1201 93.8744 26.9677 92.794 27.0363 91.7163C26.9825 90.7062 27.1416 89.6961 27.5034 88.751C27.8651 87.8058 28.4215 86.9466 29.1368 86.2285C29.8798 85.547 30.7507 85.0184 31.6993 84.673C32.6479 84.3275 33.6557 84.172 34.6649 84.2154C37.5212 84.2154 39.4986 85.1694 40.6236 87.0862C41.3132 88.3928 41.675 89.8463 41.6782 91.3224C41.687 91.6813 41.6782 92.0751 41.6782 92.469ZM24.8568 99.4448H22.6596V90.1846C22.7278 89.1912 22.5497 88.1963 22.1411 87.2875C21.5259 86.2547 20.2603 85.7296 18.3444 85.7296C16.9906 85.7154 15.686 86.2344 14.7147 87.1737C14.222 87.614 13.8298 88.1542 13.5645 88.7582C13.2992 89.3621 13.167 90.0156 13.1767 90.6747V99.4273H11.0235V76.942L13.1767 76.2681V87.2175C13.6509 86.3605 14.3455 85.6445 15.1893 85.1432C16.2471 84.4999 17.4654 84.1662 18.7047 84.1804C21.1655 84.1804 22.8969 84.8893 23.8724 86.2985C24.5878 87.4487 24.9314 88.7899 24.8568 90.1408V99.4448ZM8.49235 99.3572C8.08094 99.4733 7.66058 99.5553 7.23558 99.6023C6.84486 99.65 6.45154 99.6734 6.0579 99.6723C4.37049 99.6723 3.21918 99.1559 2.60397 98.1231C2.16603 97.2532 1.96023 96.2856 2.00635 95.3136V79.6378L4.15956 78.9551V84.3817H8.34294V85.9309H4.15956V95.191C4.07386 96.0095 4.24259 96.8344 4.64293 97.5542C4.85278 97.7606 5.10561 97.9186 5.38354 98.0169C5.66146 98.1152 5.95769 98.1515 6.25125 98.1231C6.64463 98.1237 7.03776 98.1033 7.42893 98.0619C7.77856 98.0177 8.12113 97.9295 8.44841 97.7993L8.49235 99.3572ZM70.707 102.858H57.0846L26.0608 38.3085H42.434L63.2015 88.4341L80.2251 38.3085H105.158V47.7699H92.0985L70.707 102.858ZM145.094 72.3907C145.017 70.7254 144.582 69.0959 143.82 67.6119C141.86 63.9708 137.922 62.9468 134.099 62.9293C132.667 62.9036 131.237 63.0624 129.846 63.4019C129.441 63.5069 129.063 63.6207 128.703 63.752C126.795 64.4622 125.099 65.6426 123.773 67.183C122.684 68.4666 121.905 69.9817 121.496 71.6118C121.426 71.8656 121.365 72.1282 121.312 72.3907H145.094ZM136.56 104.092C132.691 104.152 128.837 103.611 125.135 102.491C121.913 101.502 118.941 99.8403 116.417 97.6155C114.001 95.4376 112.14 92.7198 110.985 89.6857C109.728 86.3433 109.114 82.7951 109.175 79.2264C109.131 75.6722 109.727 72.139 110.933 68.7935C112.07 65.7127 113.87 62.9167 116.206 60.6011C118.624 58.1985 121.548 56.36 124.766 55.2183C128.025 54.094 131.459 53.5518 134.908 53.6166C136.352 53.6346 137.793 53.7457 139.223 53.9492C142.928 54.4337 146.436 55.8963 149.383 58.1854C152.589 60.772 154.848 64.3413 155.807 68.3383C156.443 71.0663 156.738 73.862 156.686 76.662V81.2833H121.083C121.166 82.9473 121.494 84.5902 122.059 86.1584C122.684 87.8745 123.708 89.4191 125.047 90.666C126.435 91.9247 128.077 92.8736 129.863 93.4493C132 94.1201 134.232 94.4423 136.472 94.4033C140.163 94.4088 143.82 93.7106 147.247 92.3465C150.294 91.1224 153.136 89.4431 155.675 87.3663V99.6198C153.728 100.547 151.716 101.334 149.655 101.974C145.425 103.344 141.008 104.059 136.56 104.092ZM93.408 54.6581H105.15V102.876H93.408V54.6581ZM192.482 70.5002L181.505 102.884H170.528L156.959 54.6581H169.939L177.19 86.6398L187.842 54.6932H197.052L207.713 86.6398L214.946 54.6932H227.935L214.357 102.876H203.424L192.482 70.5002ZM165.677 39.455C165.477 39.3759 165.267 39.3258 165.053 39.3062C164.83 39.2935 164.607 39.2935 164.385 39.3062C164.018 39.2925 163.654 39.3721 163.326 39.5375C162.999 39.7029 162.719 39.9486 162.513 40.2515C162.103 40.862 161.892 41.583 161.907 42.3171V47.7437H160.562V38.3347H161.766V40.3478C161.909 39.7875 162.196 39.2745 162.601 38.8599C162.884 38.5669 163.243 38.3578 163.638 38.2559C163.924 38.1761 164.22 38.1436 164.517 38.1597C164.919 38.1697 165.317 38.2315 165.703 38.3435L165.677 39.455ZM146.14 46.2557C146.078 46.352 146.017 46.4308 145.946 46.5271C145.601 46.985 145.149 47.3516 144.628 47.5949C144.016 47.8223 143.366 47.9322 142.712 47.9187C141.746 47.9724 140.79 47.6944 140.005 47.131C139.721 46.9101 139.493 46.6252 139.34 46.2996C139.187 45.974 139.114 45.6171 139.126 45.2579C139.126 43.8984 139.9 42.9706 141.447 42.4746C142.728 42.1213 144.055 41.962 145.384 42.002H146.14V41.6782C146.166 41.3329 146.124 40.9858 146.016 40.6568C145.907 40.3279 145.734 40.0235 145.507 39.7614C144.973 39.3161 144.285 39.099 143.591 39.1574C142.455 39.15 141.332 39.3952 140.304 39.8752V38.7723C140.805 38.5782 141.323 38.4317 141.851 38.3347C142.431 38.2334 143.019 38.1836 143.609 38.1859C145.191 38.1859 146.289 38.606 146.904 39.455C147.341 40.1184 147.554 40.9035 147.511 41.6957V47.7699H146.14V46.2557ZM146.14 43.63V42.991H144.909C143.702 42.9017 142.492 43.1217 141.394 43.63C141.122 43.7864 140.897 44.0126 140.742 44.2851C140.588 44.5575 140.509 44.8663 140.515 45.1792C140.51 45.4231 140.562 45.6649 140.667 45.8853C140.773 46.1056 140.928 46.2984 141.121 46.4483C141.569 46.7961 142.127 46.973 142.695 46.9472C143.615 46.995 144.518 46.6806 145.208 46.0719C145.524 45.7582 145.771 45.3818 145.931 44.9671C146.092 44.5525 146.163 44.1088 146.14 43.665V43.63ZM156.686 47.7349V46.177C156.399 46.6702 155.991 47.0828 155.5 47.3761C154.841 47.7476 154.094 47.9351 153.338 47.9187C152.484 47.9609 151.637 47.7508 150.903 47.3148C150.446 46.9961 150.082 46.5627 149.847 46.0585C149.613 45.5543 149.516 44.9973 149.567 44.444V38.3172H150.921V44.5227C150.898 45.0465 151.026 45.5658 151.29 46.0194C151.519 46.3398 151.829 46.5938 152.189 46.7553C152.549 46.9169 152.945 46.9801 153.338 46.9384C154.213 46.9633 155.063 46.6496 155.711 46.0632C156.028 45.7795 156.279 45.4307 156.447 45.0408C156.616 44.651 156.697 44.2293 156.686 43.805V38.326H158.04V47.7699L156.686 47.7349ZM173.235 46.2207C173.18 46.3151 173.118 46.4058 173.051 46.4921C172.703 46.9478 172.251 47.314 171.732 47.5599C171.12 47.7865 170.47 47.8963 169.816 47.8837C168.85 47.9389 167.894 47.6607 167.109 47.096C166.825 46.875 166.597 46.5901 166.444 46.2646C166.291 45.939 166.218 45.5821 166.231 45.2229C166.231 43.8634 167.004 42.9356 168.551 42.4396C169.839 42.0966 171.173 41.9491 172.506 42.002H173.209V41.6782C173.238 41.3341 173.198 40.9877 173.093 40.6587C172.987 40.3298 172.818 40.0249 172.594 39.7614C172.06 39.3161 171.371 39.099 170.678 39.1574C169.539 39.1514 168.414 39.3965 167.382 39.8752V38.7723C167.883 38.5794 168.401 38.4329 168.929 38.3347C169.509 38.2335 170.097 38.1837 170.686 38.1859C172.26 38.1859 173.323 38.606 173.973 39.455C174.41 40.1184 174.623 40.9035 174.58 41.6957V47.7699H173.217L173.235 46.2207ZM173.235 43.595V42.991H172.013C170.806 42.9017 169.596 43.1217 168.498 43.63C168.226 43.7864 168.001 44.0126 167.846 44.2851C167.692 44.5575 167.613 44.8663 167.619 45.1792C167.614 45.4231 167.666 45.6649 167.771 45.8853C167.877 46.1056 168.032 46.2984 168.226 46.4483C168.671 46.7948 169.225 46.9717 169.79 46.9472C170.714 46.9973 171.62 46.6828 172.312 46.0719C172.62 45.7546 172.856 45.376 173.006 44.9612C173.156 44.5464 173.216 44.1046 173.182 43.665L173.235 43.595ZM185.539 47.6999H184.186V42.002C184.235 41.369 184.123 40.7338 183.861 40.1552C183.474 39.525 182.683 39.2012 181.47 39.2012C181.046 39.1871 180.623 39.2572 180.226 39.4074C179.829 39.5577 179.466 39.7851 179.159 40.0765C178.858 40.3596 178.62 40.7019 178.46 41.0816C178.299 41.4613 178.22 41.8702 178.227 42.2821V47.7787H176.9V38.3347H178.262V39.9189C178.584 39.4277 179.022 39.0221 179.537 38.7373C180.193 38.3675 180.936 38.1772 181.69 38.1859C183.272 38.1859 184.326 38.6148 184.968 39.49C185.404 40.215 185.612 41.0533 185.566 41.897L185.539 47.6999Z" fill="white"/>
</svg>
